{
copyright = "Copyright 2015 Google Inc. All Rights Reserved.";
customParameters = (
{
name = description;
value = "Designed by Monotype design team.";
},
{
name = license;
value = "This Font Software is licensed under the SIL Open Font License, Version 1.1. This Font Software is distributed on an \"AS IS\" BASIS, WITHOUT WARRANTIES OR CONDITIONS OF ANY KIND, either express or implied. See the SIL Open Font License for the specific language, permissions and limitations governing your use of this Font Software.";
},
{
name = licenseURL;
value = "http://scripts.sil.org/OFL";
},
{
name = vendorID;
value = GOOG;
},
{
name = glyphOrder;
value = (
    ".notdef",
    NULL,
    CR,
    space,
    uni0591,
    uni0592,
    uni0593,
    uni0594,
    uni0595,
    uni0596,
    uni0597,
    uni0598,
    uni0599,
    uni059A,
    uni059B,
    uni059C,
    uni059D,
    uni059E,
    uni059F,
    uni05A0,
    uni05A1,
    uni05A2,
    uni05A3,
    uni05A4,
    uni05A5,
    uni05A6,
    uni05A7,
    uni05A8,
    uni05A9,
    uni05AA,
    uni05AB,
    uni05AC,
    uni05AD,
    uni05AE,
    uni05AF,
    sheva,
    hatafsegol,
    hatafpatah,
    hatafqamats,
    hiriq,
    tsere,
    segol,
    patah,
    qamats,
    holam,
    uni05BA,
    qubuts,
    dagesh,
    meteg,
    maqaf,
    rafe,
    paseq,
    shindot,
    sindot,
    sofpasuq,
    "upper_dot",
    lowerdot,
    uni05C6,
    qamatsqatan,
    alef,
    bet,
    gimel,
    dalet,
    he,
    vav,
    zayin,
    het,
    tet,
    yod,
    finalkaf,
    kaf,
    lamed,
    finalmem,
    mem,
    finalnun,
    nun,
    samekh,
    ayin,
    finalpe,
    pe,
    finaltsadi,
    tsadi,
    qof,
    resh,
    shin,
    tav,
    vavvav,
    vavyod,
    yodyod,
    geresh,
    gershayim,
    sheqel,
    uniFB1D,
    uniFB1E,
    "yodyod_patah",
    alternativeayin,
    alefwide,
    daletwide,
    hewide,
    kafwide,
    lamedwide,
    finalmemwide,
    reshwide,
    tavwide,
    "alt_plussign",
    shinshindot,
    shinsindot,

glyphs = (
{
glyphname = .notdef;
lastChange = "2015-12-02 12:01:14 +0000";
layers = (
{
associatedMasterId = "1F954AD7-537E-453D-9D07-161C7E95D0AA";
layerId = "0A718E2F-231D-484E-9433-16A5230D2CE8";
name = Bold;
paths = (
{
closed = 1;
nodes = (
"496 0 LINE",
"496 714 LINE",
"85 714 LINE",
"85 0 LINE"
);
},
{
closed = 1;
nodes = (
"136 663 LINE",
"445 663 LINE",
"445 51 LINE",
"136 51 LINE"
);
}
);
width = 582;
},
{
associatedMasterId = "1F954AD7-537E-453D-9D07-161C7E95D0AA";
layerId = "98E204A9-1C79-49C7-AB3E-40A925F56409";
name = "Bold Condensed";
paths = (
{
closed = 1;
nodes = (
"496 0 LINE",
"496 714 LINE",
"85 714 LINE",
"85 0 LINE"
);
},
{
closed = 1;
nodes = (
"136 663 LINE",
"445 663 LINE",
"445 51 LINE",
"136 51 LINE"
);
}
);
width = 582;
},
{
associatedMasterId = "1F954AD7-537E-453D-9D07-161C7E95D0AA";
layerId = "9FF96064-8718-4A86-A5C8-73C592101F67";
name = Regular;
paths = (
{
closed = 1;
nodes = (
"505 0 LINE",
"505 714 LINE",
"94 714 LINE",
"94 0 LINE"
);
},
{
closed = 1;
nodes = (
"145 663 LINE",
"454 663 LINE",
"454 51 LINE",
"145 51 LINE"
);
}
);
width = 600;
},
{
associatedMasterId = "1F954AD7-537E-453D-9D07-161C7E95D0AA";
layerId = "134B12F2-BF5D-48E3-8003-C7502B438C7E";
name = SemiBold;
paths = (
{
closed = 1;
nodes = (
"505 0 LINE",
"505 714 LINE",
"94 714 LINE",
"94 0 LINE"
);
},
{
closed = 1;
nodes = (
"145 663 LINE",
"454 663 LINE",
"454 51 LINE",
"145 51 LINE"
);
}
);
width = 600;
},
{
associatedMasterId = "1F954AD7-537E-453D-9D07-161C7E95D0AA";
layerId = "36F3C8CB-53EE-4548-BFDE-2C03212BACAA";
name = Condensed;
paths = (
{
closed = 1;
nodes = (
"496 0 LINE",
"496 714 LINE",
"85 714 LINE",
"85 0 LINE"
);
},
{
closed = 1;
nodes = (
"136 663 LINE",
"445 663 LINE",
"445 51 LINE",
"136 51 LINE"
);
}
);
width = 595;
},
{
associatedMasterId = "1F954AD7-537E-453D-9D07-161C7E95D0AA";
layerId = "43B45EC1-5522-4B1A-B0C7-88628E50A583";
name = "SemiBold Condensed";
paths = (
{
closed = 1;
nodes = (
"496 0 LINE",
"496 714 LINE",
"85 714 LINE",
"85 0 LINE"
);
},
{
closed = 1;
nodes = (
"136 663 LINE",
"445 663 LINE",
"445 51 LINE",
"136 51 LINE"
);
}
);
width = 587;
},
{
layerId = "1F954AD7-537E-453D-9D07-161C7E95D0AA";
name = Light;
paths = (
{
closed = 1;
nodes = (
"505 0 LINE",
"505 714 LINE",
"94 714 LINE",
"94 0 LINE"
);
},
{
closed = 1;
nodes = (
"145 663 LINE",
"454 663 LINE",
"454 51 LINE",
"145 51 LINE"
);
}
);
width = 600;
},
{
associatedMasterId = "1F954AD7-537E-453D-9D07-161C7E95D0AA";
layerId = "029FEF0C-5FA4-4A3E-AC23-838A1147A554";
name = "Light Condensed";
paths = (
{
closed = 1;
nodes = (
"496 0 LINE",
"496 714 LINE",
"85 714 LINE",
"85 0 LINE"
);
},
{
closed = 1;
nodes = (
"136 663 LINE",
"445 663 LINE",
"445 51 LINE",
"136 51 LINE"
);
}
);
width = 600;
},
{
associatedMasterId = "0C04772A-F31D-4E86-90EF-3402D1EA39CA";
layerId = "6CD3EE05-C8AD-47E9-A0AE-B645441B0163";
name = Bold;
paths = (
{
closed = 1;
nodes = (
"496 0 LINE",
"496 714 LINE",
"85 714 LINE",
"85 0 LINE"
);
},
{
closed = 1;
nodes = (
"136 663 LINE",
"445 663 LINE",
"445 51 LINE",
"136 51 LINE"
);
}
);
width = 582;
},
{
associatedMasterId = "0C04772A-F31D-4E86-90EF-3402D1EA39CA";
layerId = "4BA813F0-6E24-42D1-9A84-D42DCF76A6FD";
name = "Bold Condensed";
paths = (
{
closed = 1;
nodes = (
"496 0 LINE",
"496 714 LINE",
"85 714 LINE",
"85 0 LINE"
);
},
{
closed = 1;
nodes = (
"136 663 LINE",
"445 663 LINE",
"445 51 LINE",
"136 51 LINE"
);
}
);
width = 582;
},
{
associatedMasterId = "0C04772A-F31D-4E86-90EF-3402D1EA39CA";
layerId = "11C7202F-BDE1-4540-9196-841830120CA8";
name = Regular;
paths = (
{
closed = 1;
nodes = (
"505 0 LINE",
"505 714 LINE",
"94 714 LINE",
"94 0 LINE"
);
},
{
closed = 1;
nodes = (
"145 663 LINE",
"454 663 LINE",
"454 51 LINE",
"145 51 LINE"
);
}
);
width = 600;
},
{
associatedMasterId = "0C04772A-F31D-4E86-90EF-3402D1EA39CA";
layerId = "5D16F8A9-2BA9-47A0-99C6-C9F3EBB274A0";
name = SemiBold;
paths = (
{
closed = 1;
nodes = (
"505 0 LINE",
"505 714 LINE",
"94 714 LINE",
"94 0 LINE"
);
},
{
closed = 1;
nodes = (
"145 663 LINE",
"454 663 LINE",
"454 51 LINE",
"145 51 LINE"
);
}
);
width = 600;
},
{
associatedMasterId = "0C04772A-F31D-4E86-90EF-3402D1EA39CA";
layerId = "444C4D7B-BB42-46E5-A210-3251DB2C5DF7";
name = Condensed;
paths = (
{
closed = 1;
nodes = (
"496 0 LINE",
"496 714 LINE",
"85 714 LINE",
"85 0 LINE"
);
},
{
closed = 1;
nodes = (
"136 663 LINE",
"445 663 LINE",
"445 51 LINE",
"136 51 LINE"
);
}
);
width = 595;
},
{
associatedMasterId = "0C04772A-F31D-4E86-90EF-3402D1EA39CA";
layerId = "D00C89AE-1924-40D7-BCB8-50F6B6FF00C9";
name = "SemiBold Condensed";
paths = (
{
closed = 1;
nodes = (
"496 0 LINE",
"496 714 LINE",
"85 714 LINE",
"85 0 LINE"
);
},
{
closed = 1;
nodes = (
"136 663 LINE",
"445 663 LINE",
"445 51 LINE",
"136 51 LINE"
);
}
);
width = 587;
},
{
layerId = "0C04772A-F31D-4E86-90EF-3402D1EA39CA";
name = Regular;
paths = (
{
closed = 1;
nodes = (
"505 0 LINE",
"505 714 LINE",
"94 714 LINE",
"94 0 LINE"
);
},
{
closed = 1;
nodes = (
"145 663 LINE",
"454 663 LINE",
"454 51 LINE",
"145 51 LINE"
);
}
);
width = 600;
},
{
associatedMasterId = "0C04772A-F31D-4E86-90EF-3402D1EA39CA";
layerId = "E44A1C33-4DA7-464B-9CD1-E803182C2B8E";
name = "Light Condensed";
paths = (
{
closed = 1;
nodes = (
"496 0 LINE",
"496 714 LINE",
"85 714 LINE",
"85 0 LINE"
);
},
{
closed = 1;
nodes = (
"136 663 LINE",
"445 663 LINE",
"445 51 LINE",
"136 51 LINE"
);
}
);
width = 600;
},
{
associatedMasterId = "206B8059-80C9-426C-870D-7DCC5D63B771";
layerId = "6CD769E4-BA55-4180-AEEB-BBFB0FE71E60";
name = Bold;
paths = (
{
closed = 1;
nodes = (
"496 0 LINE",
"496 714 LINE",
"85 714 LINE",
"85 0 LINE"
);
},
{
closed = 1;
nodes = (
"136 663 LINE",
"445 663 LINE",
"445 51 LINE",
"136 51 LINE"
);
}
);
width = 582;
},
{
associatedMasterId = "206B8059-80C9-426C-870D-7DCC5D63B771";
layerId = "B72AC865-DCE2-4021-9F6A-E52C2F7C36C3";
name = "Bold Condensed";
paths = (
{
closed = 1;
nodes = (
"496 0 LINE",
"496 714 LINE",
"85 714 LINE",
"85 0 LINE"
);
},
{
closed = 1;
nodes = (
"136 663 LINE",
"445 663 LINE",
"445 51 LINE",
"136 51 LINE"
);
}
);
width = 582;
},
{
associatedMasterId = "206B8059-80C9-426C-870D-7DCC5D63B771";
layerId = "73144C29-A3E1-435F-A101-12EB16795B90";
name = Regular;
paths = (
{
closed = 1;
nodes = (
"505 0 LINE",
"505 714 LINE",
"94 714 LINE",
"94 0 LINE"
);
},
{
closed = 1;
nodes = (
"145 663 LINE",
"454 663 LINE",
"454 51 LINE",
"145 51 LINE"
);
}
);
width = 600;
},
{
associatedMasterId = "206B8059-80C9-426C-870D-7DCC5D63B771";
layerId = "18CF4588-85AB-4745-818C-09CE36B775D2";
name = SemiBold;
paths = (
{
closed = 1;
nodes = (
"505 0 LINE",
"505 714 LINE",
"94 714 LINE",
"94 0 LINE"
);
},
{
closed = 1;
nodes = (
"145 663 LINE",
"454 663 LINE",
"454 51 LINE",
"145 51 LINE"
);
}
);
width = 600;
},
{
associatedMasterId = "206B8059-80C9-426C-870D-7DCC5D63B771";
layerId = "686EB0C4-EABE-4AD7-86BC-00ECD1BF7E9E";
name = Condensed;
paths = (
{
closed = 1;
nodes = (
"496 0 LINE",
"496 714 LINE",
"85 714 LINE",
"85 0 LINE"
);
},
{
closed = 1;
nodes = (
"136 663 LINE",
"445 663 LINE",
"445 51 LINE",
"136 51 LINE"
);
}
);
width = 595;
},
{
associatedMasterId = "206B8059-80C9-426C-870D-7DCC5D63B771";
layerId = "E5BC6AAC-6572-4494-8CA4-C3D39E7EACEC";
name = "SemiBold Condensed";
paths = (
{
closed = 1;
nodes = (
"496 0 LINE",
"496 714 LINE",
"85 714 LINE",
"85 0 LINE"
);
},
{
closed = 1;
nodes = (
"136 663 LINE",
"445 663 LINE",
"445 51 LINE",
"136 51 LINE"
);
}
);
width = 587;
},
{
layerId = "206B8059-80C9-426C-870D-7DCC5D63B771";
name = SemiBold;
paths = (
{
closed = 1;
nodes = (
"505 0 LINE",
"505 714 LINE",
"94 714 LINE",
"94 0 LINE"
);
},
{
closed = 1;
nodes = (
"145 663 LINE",
"454 663 LINE",
"454 51 LINE",
"145 51 LINE"
);
}
);
width = 600;
},
{
associatedMasterId = "206B8059-80C9-426C-870D-7DCC5D63B771";
layerId = "8CA70734-D081-4BD8-AD2F-7C5E13D31257";
name = "Light Condensed";
paths = (
{
closed = 1;
nodes = (
"496 0 LINE",
"496 714 LINE",
"85 714 LINE",
"85 0 LINE"
);
},
{
closed = 1;
nodes = (
"136 663 LINE",
"445 663 LINE",
"445 51 LINE",
"136 51 LINE"
);
}
);
width = 600;
},
{
associatedMasterId = "3FB868F8-5CDC-4A46-BA32-95627737ABE0";
layerId = "6D228CAF-D3D7-4333-A99C-26716E667E2A";
name = Bold;
paths = (
{
closed = 1;
nodes = (
"496 0 LINE",
"496 714 LINE",
"85 714 LINE",
"85 0 LINE"
);
},
{
closed = 1;
nodes = (
"136 663 LINE",
"445 663 LINE",
"445 51 LINE",
"136 51 LINE"
);
}
);
width = 582;
},
{
associatedMasterId = "3FB868F8-5CDC-4A46-BA32-95627737ABE0";
layerId = "0F275DA8-301B-4F20-BD77-158CA365DF6E";
name = "Bold Condensed";
paths = (
{
closed = 1;
nodes = (
"496 0 LINE",
"496 714 LINE",
"85 714 LINE",
"85 0 LINE"
);
},
{
closed = 1;
nodes = (
"136 663 LINE",
"445 663 LINE",
"445 51 LINE",
"136 51 LINE"
);
}
);
width = 582;
},
{
associatedMasterId = "3FB868F8-5CDC-4A46-BA32-95627737ABE0";
layerId = "D46BE755-DD9E-4EEB-B458-600115B36096";
name = Regular;
paths = (
{
closed = 1;
nodes = (
"505 0 LINE",
"505 714 LINE",
"94 714 LINE",
"94 0 LINE"
);
},
{
closed = 1;
nodes = (
"145 663 LINE",
"454 663 LINE",
"454 51 LINE",
"145 51 LINE"
);
}
);
width = 600;
},
{
associatedMasterId = "3FB868F8-5CDC-4A46-BA32-95627737ABE0";
layerId = "7FE48EA0-3A2C-4D49-ABA4-E32E78AB57C1";
name = SemiBold;
paths = (
{
closed = 1;
nodes = (
"505 0 LINE",
"505 714 LINE",
"94 714 LINE",
"94 0 LINE"
);
},
{
closed = 1;
nodes = (
"145 663 LINE",
"454 663 LINE",
"454 51 LINE",
"145 51 LINE"
);
}
);
width = 600;
},
{
associatedMasterId = "3FB868F8-5CDC-4A46-BA32-95627737ABE0";
layerId = "0C5F2DE2-4894-433A-AF78-14A7760305F4";
name = Condensed;
paths = (
{
closed = 1;
nodes = (
"496 0 LINE",
"496 714 LINE",
"85 714 LINE",
"85 0 LINE"
);
},
{
closed = 1;
nodes = (
"136 663 LINE",
"445 663 LINE",
"445 51 LINE",
"136 51 LINE"
);
}
);
width = 595;
},
{
associatedMasterId = "3FB868F8-5CDC-4A46-BA32-95627737ABE0";
layerId = "218C21A7-D612-4AB3-84F9-0D3A7F75CFA6";
name = "SemiBold Condensed";
paths = (
{
closed = 1;
nodes = (
"496 0 LINE",
"496 714 LINE",
"85 714 LINE",
"85 0 LINE"
);
},
{
closed = 1;
nodes = (
"136 663 LINE",
"445 663 LINE",
"445 51 LINE",
"136 51 LINE"
);
}
);
width = 587;
},
{
layerId = "3FB868F8-5CDC-4A46-BA32-95627737ABE0";
name = Bold;
paths = (
{
closed = 1;
nodes = (
"505 0 LINE",
"505 714 LINE",
"94 714 LINE",
"94 0 LINE"
);
},
{
closed = 1;
nodes = (
"145 663 LINE",
"454 663 LINE",
"454 51 LINE",
"145 51 LINE"
);
}
);
width = 600;
},
{
associatedMasterId = "3FB868F8-5CDC-4A46-BA32-95627737ABE0";
layerId = "5BFF9FCA-B510-42EF-B974-4F4703A3DF37";
name = "Light Condensed";
paths = (
{
closed = 1;
nodes = (
"496 0 LINE",
"496 714 LINE",
"85 714 LINE",
"85 0 LINE"
);
},
{
closed = 1;
nodes = (
"136 663 LINE",
"445 663 LINE",
"445 51 LINE",
"136 51 LINE"
);
}
);
width = 600;
},
{
associatedMasterId = "BD31AAF9-E65B-4A30-ACC0-7018B0C27C60";
layerId = "10F16149-C491-4EC1-A76D-4B0D82B949A8";
name = Bold;
paths = (
{
closed = 1;
nodes = (
"496 0 LINE",
"496 714 LINE",
"85 714 LINE",
"85 0 LINE"
);
},
{
closed = 1;
nodes = (
"136 663 LINE",
"445 663 LINE",
"445 51 LINE",
"136 51 LINE"
);
}
);
width = 582;
},
{
associatedMasterId = "BD31AAF9-E65B-4A30-ACC0-7018B0C27C60";
layerId = "72186310-A4A1-43C8-93EC-DE7F7E0C04DC";
name = "Bold Condensed";
paths = (
{
closed = 1;
nodes = (
"496 0 LINE",
"496 714 LINE",
"85 714 LINE",
"85 0 LINE"
);
},
{
closed = 1;
nodes = (
"136 663 LINE",
"445 663 LINE",
"445 51 LINE",
"136 51 LINE"
);
}
);
width = 582;
},
{
associatedMasterId = "BD31AAF9-E65B-4A30-ACC0-7018B0C27C60";
layerId = "3AA2D878-A039-41E2-8382-305C1EBDDC14";
name = Regular;
paths = (
{
closed = 1;
nodes = (
"505 0 LINE",
"505 714 LINE",
"94 714 LINE",
"94 0 LINE"
);
},
{
closed = 1;
nodes = (
"145 663 LINE",
"454 663 LINE",
"454 51 LINE",
"145 51 LINE"
);
}
);
width = 600;
},
{
associatedMasterId = "BD31AAF9-E65B-4A30-ACC0-7018B0C27C60";
layerId = "910244F3-C233-4E50-A821-AC6322E08668";
name = SemiBold;
paths = (
{
closed = 1;
nodes = (
"505 0 LINE",
"505 714 LINE",
"94 714 LINE",
"94 0 LINE"
);
},
{
closed = 1;
nodes = (
"145 663 LINE",
"454 663 LINE",
"454 51 LINE",
"145 51 LINE"
);
}
);
width = 600;
},
{
associatedMasterId = "BD31AAF9-E65B-4A30-ACC0-7018B0C27C60";
layerId = "3D21177B-E83B-427F-9FBC-21300ED8A213";
name = Condensed;
paths = (
{
closed = 1;
nodes = (
"496 0 LINE",
"496 714 LINE",
"85 714 LINE",
"85 0 LINE"
);
},
{
closed = 1;
nodes = (
"136 663 LINE",
"445 663 LINE",
"445 51 LINE",
"136 51 LINE"
);
}
);
width = 595;
},
{
associatedMasterId = "BD31AAF9-E65B-4A30-ACC0-7018B0C27C60";
layerId = "4355EC66-3F59-4296-9F4C-72EC0B481B5D";
name = "SemiBold Condensed";
paths = (
{
closed = 1;
nodes = (
"496 0 LINE",
"496 714 LINE",
"85 714 LINE",
"85 0 LINE"
);
},
{
closed = 1;
nodes = (
"136 663 LINE",
"445 663 LINE",
"445 51 LINE",
"136 51 LINE"
);
}
);
width = 587;
},
{
layerId = "BD31AAF9-E65B-4A30-ACC0-7018B0C27C60";
name = "Light Condensed";
paths = (
{
closed = 1;
nodes = (
"505 0 LINE",
"505 714 LINE",
"94 714 LINE",
"94 0 LINE"
);
},
{
closed = 1;
nodes = (
"145 663 LINE",
"454 663 LINE",
"454 51 LINE",
"145 51 LINE"
);
}
);
width = 600;
},
{
associatedMasterId = "BD31AAF9-E65B-4A30-ACC0-7018B0C27C60";
layerId = "D77228BB-6669-4F59-82EB-EFDED494D297";
name = "Light Condensed";
paths = (
{
closed = 1;
nodes = (
"496 0 LINE",
"496 714 LINE",
"85 714 LINE",
"85 0 LINE"
);
},
{
closed = 1;
nodes = (
"136 663 LINE",
"445 663 LINE",
"445 51 LINE",
"136 51 LINE"
);
}
);
width = 600;
},
{
associatedMasterId = "E193C3F6-581C-4255-BA06-39B2C55FEA85";
layerId = "81F4823B-D69E-4E11-86B2-52E1D1CABD54";
name = Bold;
paths = (
{
closed = 1;
nodes = (
"496 0 LINE",
"496 714 LINE",
"85 714 LINE",
"85 0 LINE"
);
},
{
closed = 1;
nodes = (
"136 663 LINE",
"445 663 LINE",
"445 51 LINE",
"136 51 LINE"
);
}
);
width = 582;
},
{
associatedMasterId = "E193C3F6-581C-4255-BA06-39B2C55FEA85";
layerId = "1ACF29D9-9C6C-45FA-8C10-238DD2AA8ADF";
name = "Bold Condensed";
paths = (
{
closed = 1;
nodes = (
"496 0 LINE",
"496 714 LINE",
"85 714 LINE",
"85 0 LINE"
);
},
{
closed = 1;
nodes = (
"136 663 LINE",
"445 663 LINE",
"445 51 LINE",
"136 51 LINE"
);
}
);
width = 582;
},
{
associatedMasterId = "E193C3F6-581C-4255-BA06-39B2C55FEA85";
layerId = "A823C984-E080-4BD5-A1B6-02506CC81AD1";
name = Regular;
paths = (
{
closed = 1;
nodes = (
"505 0 LINE",
"505 714 LINE",
"94 714 LINE",
"94 0 LINE"
);
},
{
closed = 1;
nodes = (
"145 663 LINE",
"454 663 LINE",
"454 51 LINE",
"145 51 LINE"
);
}
);
width = 600;
},
{
associatedMasterId = "E193C3F6-581C-4255-BA06-39B2C55FEA85";
layerId = "7C505BEE-2611-4A04-ABA0-64C0BA48336F";
name = SemiBold;
paths = (
{
closed = 1;
nodes = (
"505 0 LINE",
"505 714 LINE",
"94 714 LINE",
"94 0 LINE"
);
},
{
closed = 1;
nodes = (
"145 663 LINE",
"454 663 LINE",
"454 51 LINE",
"145 51 LINE"
);
}
);
width = 600;
},
{
associatedMasterId = "E193C3F6-581C-4255-BA06-39B2C55FEA85";
layerId = "CFFC113C-B55C-44E0-A174-84F7BF124894";
name = Condensed;
paths = (
{
closed = 1;
nodes = (
"496 0 LINE",
"496 714 LINE",
"85 714 LINE",
"85 0 LINE"
);
},
{
closed = 1;
nodes = (
"136 663 LINE",
"445 663 LINE",
"445 51 LINE",
"136 51 LINE"
);
}
);
width = 595;
},
{
associatedMasterId = "E193C3F6-581C-4255-BA06-39B2C55FEA85";
layerId = "43D1030E-7459-4003-8CF9-EC0A1464FBD9";
name = "SemiBold Condensed";
paths = (
{
closed = 1;
nodes = (
"496 0 LINE",
"496 714 LINE",
"85 714 LINE",
"85 0 LINE"
);
},
{
closed = 1;
nodes = (
"136 663 LINE",
"445 663 LINE",
"445 51 LINE",
"136 51 LINE"
);
}
);
width = 587;
},
{
layerId = "E193C3F6-581C-4255-BA06-39B2C55FEA85";
name = Condensed;
paths = (
{
closed = 1;
nodes = (
"505 0 LINE",
"505 714 LINE",
"94 714 LINE",
"94 0 LINE"
);
},
{
closed = 1;
nodes = (
"145 663 LINE",
"454 663 LINE",
"454 51 LINE",
"145 51 LINE"
);
}
);
width = 600;
},
{
associatedMasterId = "E193C3F6-581C-4255-BA06-39B2C55FEA85";
layerId = "BC1F2A7D-5C4C-489A-B80D-F8A78AA87396";
name = "Light Condensed";
paths = (
{
closed = 1;
nodes = (
"496 0 LINE",
"496 714 LINE",
"85 714 LINE",
"85 0 LINE"
);
},
{
closed = 1;
nodes = (
"136 663 LINE",
"445 663 LINE",
"445 51 LINE",
"136 51 LINE"
);
}
);
width = 600;
},
{
associatedMasterId = "1F954AD7-537E-453D-9D07-161C7E95D0AA";
layerId = "4A97D365-134C-40CE-A1F4-ACEEDAC52A69";
name = Bold;
paths = (
{
closed = 1;
nodes = (
"496 0 LINE",
"496 714 LINE",
"85 714 LINE",
"85 0 LINE"
);
},
{
closed = 1;
nodes = (
"136 663 LINE",
"445 663 LINE",
"445 51 LINE",
"136 51 LINE"
);
}
);
width = 582;
},
{
associatedMasterId = "1F954AD7-537E-453D-9D07-161C7E95D0AA";
layerId = "E30ED5CA-5FDA-483A-B078-9F166668F082";
name = "Bold Condensed";
paths = (
{
closed = 1;
nodes = (
"496 0 LINE",
"496 714 LINE",
"85 714 LINE",
"85 0 LINE"
);
},
{
closed = 1;
nodes = (
"136 663 LINE",
"445 663 LINE",
"445 51 LINE",
"136 51 LINE"
);
}
);
width = 582;
},
{
associatedMasterId = "1F954AD7-537E-453D-9D07-161C7E95D0AA";
layerId = "5E9EB60B-4C02-4C45-9028-66D331043723";
name = Regular;
paths = (
{
closed = 1;
nodes = (
"505 0 LINE",
"505 714 LINE",
"94 714 LINE",
"94 0 LINE"
);
},
{
closed = 1;
nodes = (
"145 663 LINE",
"454 663 LINE",
"454 51 LINE",
"145 51 LINE"
);
}
);
width = 600;
},
{
associatedMasterId = "1F954AD7-537E-453D-9D07-161C7E95D0AA";
layerId = "CF4745A3-289E-483C-9D08-2C2CDA3793CE";
name = SemiBold;
paths = (
{
closed = 1;
nodes = (
"505 0 LINE",
"505 714 LINE",
"94 714 LINE",
"94 0 LINE"
);
},
{
closed = 1;
nodes = (
"145 663 LINE",
"454 663 LINE",
"454 51 LINE",
"145 51 LINE"
);
}
);
width = 600;
},
{
associatedMasterId = "1F954AD7-537E-453D-9D07-161C7E95D0AA";
layerId = "0007F7B2-5B0D-4ECF-8993-9E445AE70882";
name = Condensed;
paths = (
{
closed = 1;
nodes = (
"496 0 LINE",
"496 714 LINE",
"85 714 LINE",
"85 0 LINE"
);
},
{
closed = 1;
nodes = (
"136 663 LINE",
"445 663 LINE",
"445 51 LINE",
"136 51 LINE"
);
}
);
width = 595;
},
{
associatedMasterId = "1F954AD7-537E-453D-9D07-161C7E95D0AA";
layerId = "A6240D38-CEDA-4780-B12F-EAC7EDB843D9";
name = "SemiBold Condensed";
paths = (
{
closed = 1;
nodes = (
"496 0 LINE",
"496 714 LINE",
"85 714 LINE",
"85 0 LINE"
);
},
{
closed = 1;
nodes = (
"136 663 LINE",
"445 663 LINE",
"445 51 LINE",
"136 51 LINE"
);
}
);
width = 587;
},
{
associatedMasterId = "1F954AD7-537E-453D-9D07-161C7E95D0AA";
layerId = "79A278C6-3EFA-4DDB-B984-DD1D15CE97C9";
name = "Light Condensed";
paths = (
{
closed = 1;
nodes = (
"496 0 LINE",
"496 714 LINE",
"85 714 LINE",
"85 0 LINE"
);
},
{
closed = 1;
nodes = (
"136 663 LINE",
"445 663 LINE",
"445 51 LINE",
"136 51 LINE"
);
}
);
width = 600;
},
{
associatedMasterId = "4D9C3FAB-40EB-4CCF-A752-6D6FE9920038";
layerId = "0F2AC913-770D-4B71-A4B9-DFCE7D340767";
name = Bold;
paths = (
{
closed = 1;
nodes = (
"496 0 LINE",
"496 714 LINE",
"85 714 LINE",
"85 0 LINE"
);
},
{
closed = 1;
nodes = (
"136 663 LINE",
"445 663 LINE",
"445 51 LINE",
"136 51 LINE"
);
}
);
width = 582;
},
{
associatedMasterId = "4D9C3FAB-40EB-4CCF-A752-6D6FE9920038";
layerId = "5818F93F-12B0-43EF-AE07-DE875336F2D3";
name = "Bold Condensed";
paths = (
{
closed = 1;
nodes = (
"496 0 LINE",
"496 714 LINE",
"85 714 LINE",
"85 0 LINE"
);
},
{
closed = 1;
nodes = (
"136 663 LINE",
"445 663 LINE",
"445 51 LINE",
"136 51 LINE"
);
}
);
width = 582;
},
{
associatedMasterId = "4D9C3FAB-40EB-4CCF-A752-6D6FE9920038";
layerId = "69A75AA9-C824-4690-AF06-368352D8C4A0";
name = Regular;
paths = (
{
closed = 1;
nodes = (
"505 0 LINE",
"505 714 LINE",
"94 714 LINE",
"94 0 LINE"
);
},
{
closed = 1;
nodes = (
"145 663 LINE",
"454 663 LINE",
"454 51 LINE",
"145 51 LINE"
);
}
);
width = 600;
},
{
associatedMasterId = "4D9C3FAB-40EB-4CCF-A752-6D6FE9920038";
layerId = "0659F8A8-1CA7-437A-8862-AFE6849E1BC8";
name = SemiBold;
paths = (
{
closed = 1;
nodes = (
"505 0 LINE",
"505 714 LINE",
"94 714 LINE",
"94 0 LINE"
);
},
{
closed = 1;
nodes = (
"145 663 LINE",
"454 663 LINE",
"454 51 LINE",
"145 51 LINE"
);
}
);
width = 600;
},
{
associatedMasterId = "4D9C3FAB-40EB-4CCF-A752-6D6FE9920038";
layerId = "9849390B-0D5D-419F-BBF7-4CB8DF1108F4";
name = Condensed;
paths = (
{
closed = 1;
nodes = (
"496 0 LINE",
"496 714 LINE",
"85 714 LINE",
"85 0 LINE"
);
},
{
closed = 1;
nodes = (
"136 663 LINE",
"445 663 LINE",
"445 51 LINE",
"136 51 LINE"
);
}
);
width = 595;
},
{
associatedMasterId = "4D9C3FAB-40EB-4CCF-A752-6D6FE9920038";
layerId = "435372D3-A5C6-4F91-8D68-18D24F2DC602";
name = "SemiBold Condensed";
paths = (
{
closed = 1;
nodes = (
"496 0 LINE",
"496 714 LINE",
"85 714 LINE",
"85 0 LINE"
);
},
{
closed = 1;
nodes = (
"136 663 LINE",
"445 663 LINE",
"445 51 LINE",
"136 51 LINE"
);
}
);
width = 587;
},
{
layerId = "4D9C3FAB-40EB-4CCF-A752-6D6FE9920038";
name = "SemiBold Condensed";
paths = (
{
closed = 1;
nodes = (
"505 0 LINE",
"505 714 LINE",
"94 714 LINE",
"94 0 LINE"
);
},
{
closed = 1;
nodes = (
"145 663 LINE",
"454 663 LINE",
"454 51 LINE",
"145 51 LINE"
);
}
);
width = 600;
},
{
associatedMasterId = "4D9C3FAB-40EB-4CCF-A752-6D6FE9920038";
layerId = "AFC07936-CFE6-40C4-A927-1C79F0D571B9";
name = "Light Condensed";
paths = (
{
closed = 1;
nodes = (
"496 0 LINE",
"496 714 LINE",
"85 714 LINE",
"85 0 LINE"
);
},
{
closed = 1;
nodes = (
"136 663 LINE",
"445 663 LINE",
"445 51 LINE",
"136 51 LINE"
);
}
);
width = 600;
},
{
associatedMasterId = "AD6F6DAA-2D58-4E1D-98AF-ACAAF76D7B9E";
layerId = "3DB921F2-2B03-4BC4-8509-8FCD7A6F784E";
name = Bold;
paths = (
{
closed = 1;
nodes = (
"496 0 LINE",
"496 714 LINE",
"85 714 LINE",
"85 0 LINE"
);
},
{
closed = 1;
nodes = (
"136 663 LINE",
"445 663 LINE",
"445 51 LINE",
"136 51 LINE"
);
}
);
width = 582;
},
{
associatedMasterId = "AD6F6DAA-2D58-4E1D-98AF-ACAAF76D7B9E";
layerId = "2F2377A1-11C3-41B6-919D-D55F8AA75D07";
name = "Bold Condensed";
paths = (
{
closed = 1;
nodes = (
"496 0 LINE",
"496 714 LINE",
"85 714 LINE",
"85 0 LINE"
);
},
{
closed = 1;
nodes = (
"136 663 LINE",
"445 663 LINE",
"445 51 LINE",
"136 51 LINE"
);
}
);
width = 582;
},
{
associatedMasterId = "AD6F6DAA-2D58-4E1D-98AF-ACAAF76D7B9E";
layerId = "18EFA2A5-94BA-44A1-8C61-68BF4E401414";
name = Regular;
paths = (
{
closed = 1;
nodes = (
"505 0 LINE",
"505 714 LINE",
"94 714 LINE",
"94 0 LINE"
);
},
{
closed = 1;
nodes = (
"145 663 LINE",
"454 663 LINE",
"454 51 LINE",
"145 51 LINE"
);
}
);
width = 600;
},
{
associatedMasterId = "AD6F6DAA-2D58-4E1D-98AF-ACAAF76D7B9E";
layerId = "9E2FF5C0-3F8B-4CDD-8C0B-518BB51B0C53";
name = SemiBold;
paths = (
{
closed = 1;
nodes = (
"505 0 LINE",
"505 714 LINE",
"94 714 LINE",
"94 0 LINE"
);
},
{
closed = 1;
nodes = (
"145 663 LINE",
"454 663 LINE",
"454 51 LINE",
"145 51 LINE"
);
}
);
width = 600;
},
{
associatedMasterId = "AD6F6DAA-2D58-4E1D-98AF-ACAAF76D7B9E";
layerId = "49C7FBBB-5D49-485A-90F5-A2972E78A97C";
name = Condensed;
paths = (
{
closed = 1;
nodes = (
"496 0 LINE",
"496 714 LINE",
"85 714 LINE",
"85 0 LINE"
);
},
{
closed = 1;
nodes = (
"136 663 LINE",
"445 663 LINE",
"445 51 LINE",
"136 51 LINE"
);
}
);
width = 595;
},
{
associatedMasterId = "AD6F6DAA-2D58-4E1D-98AF-ACAAF76D7B9E";
layerId = "42E87011-FEDB-43C8-99A4-706BFF7CA79F";
name = "SemiBold Condensed";
paths = (
{
closed = 1;
nodes = (
"496 0 LINE",
"496 714 LINE",
"85 714 LINE",
"85 0 LINE"
);
},
{
closed = 1;
nodes = (
"136 663 LINE",
"445 663 LINE",
"445 51 LINE",
"136 51 LINE"
);
}
);
width = 587;
},
{
layerId = "AD6F6DAA-2D58-4E1D-98AF-ACAAF76D7B9E";
name = "Bold Condensed";
paths = (
{
closed = 1;
nodes = (
"505 0 LINE",
"505 714 LINE",
"94 714 LINE",
"94 0 LINE"
);
},
{
closed = 1;
nodes = (
"145 663 LINE",
"454 663 LINE",
"454 51 LINE",
"145 51 LINE"
);
}
);
width = 600;
},
{
associatedMasterId = "AD6F6DAA-2D58-4E1D-98AF-ACAAF76D7B9E";
layerId = "001EDBC9-3154-4441-98CE-7D8995D9200E";
name = "Light Condensed";
paths = (
{
closed = 1;
nodes = (
"496 0 LINE",
"496 714 LINE",
"85 714 LINE",
"85 0 LINE"
);
},
{
closed = 1;
nodes = (
"136 663 LINE",
"445 663 LINE",
"445 51 LINE",
"136 51 LINE"
);
}
);
width = 600;
}
);
},
{
glyphname = sheqel;
lastChange = "2015-12-03 05:32:19 +0000";
layers = (
{
layerId = "1F954AD7-537E-453D-9D07-161C7E95D0AA";
name = Light;
paths = (
{
closed = 1;
nodes = (
"476 0 LINE SMOOTH",
"577 0 OFFCURVE",
"636 53 OFFCURVE",
"636 165 CURVE SMOOTH",
"636 584 LINE",
"610 584 LINE",
"610 168 LINE SMOOTH",
"610 66 OFFCURVE",
"559 27 OFFCURVE",
"471 27 CURVE SMOOTH",
"289 27 LINE",
"289 434 LINE",
"263 434 LINE",
"263 0 LINE"
);
},
{
closed = 1;
nodes = (
"116 0 LINE",
"116 557 LINE",
"298 557 LINE SMOOTH",
"386 557 OFFCURVE",
"437 518 OFFCURVE",
"437 416 CURVE SMOOTH",
"437 150 LINE",
"463 150 LINE",
"463 419 LINE SMOOTH",
"463 531 OFFCURVE",
"404 584 OFFCURVE",
"303 584 CURVE SMOOTH",
"90 584 LINE",
"90 0 LINE"
);
}
);
width = 721;
},
{
layerId = "0C04772A-F31D-4E86-90EF-3402D1EA39CA";
name = Regular;
paths = (
{
closed = 1;
nodes = (
"403 0 LINE SMOOTH",
"639 0 OFFCURVE",
"710 75 OFFCURVE",
"710 307 CURVE SMOOTH",
"710 592 LINE",
"620 592 LINE",
"620 307 LINE SMOOTH",
"620 114 OFFCURVE",
"576 83 OFFCURVE",
"403 83 CURVE SMOOTH",
"353 83 LINE",
"353 418 LINE",
"263 418 LINE",
"263 0 LINE"
);
},
{
closed = 1;
nodes = (
"175 0 LINE",
"175 509 LINE",
"325 509 LINE SMOOTH",
"398 509 OFFCURVE",
"442 478 OFFCURVE",
"442 385 CURVE SMOOTH",
"442 184 LINE",
"532 184 LINE",
"532 403 LINE SMOOTH",
"532 535 OFFCURVE",
"467 592 OFFCURVE",
"331 592 CURVE SMOOTH",
"85 592 LINE",
"85 0 LINE"
);
}
);
width = 790;
},
{
layerId = "206B8059-80C9-426C-870D-7DCC5D63B771";
name = SemiBold;
paths = (
{
closed = 1;
nodes = (
"467 0 LINE SMOOTH",
"719 0 OFFCURVE",
"804 84 OFFCURVE",
"804 329 CURVE SMOOTH",
"804 602 LINE",
"654 602 LINE",
"654 329 LINE SMOOTH",
"654 154 OFFCURVE",
"629 127 OFFCURVE",
"467 127 CURVE SMOOTH",
"408 127 LINE",
"408 398 LINE",
"288 398 LINE",
"288 0 LINE"
);
},
{
closed = 1;
nodes = (
"230 0 LINE",
"230 475 LINE",
"379 475 LINE SMOOTH",
"421 475 OFFCURVE",
"466 453 OFFCURVE",
"466 373 CURVE SMOOTH",
"466 204 LINE",
"586 204 LINE",
"586 391 LINE SMOOTH",
"586 533 OFFCURVE",
"511 602 OFFCURVE",
"355 602 CURVE SMOOTH",
"80 602 LINE",
"80 0 LINE"
);
}
);
width = 879;
},
{
layerId = "3FB868F8-5CDC-4A46-BA32-95627737ABE0";
name = Bold;
paths = (
{
closed = 1;
nodes = (
"552 0 LINE SMOOTH",
"759 0 OFFCURVE",
"841 83 OFFCURVE",
"841 315 CURVE SMOOTH",
"841 609 LINE",
"649 609 LINE",
"649 315 LINE SMOOTH",
"649 185 OFFCURVE",
"617 159 OFFCURVE",
"513 159 CURVE SMOOTH",
"435 159 LINE",
"435 390 LINE",
"313 390 LINE",
"313 0 LINE"
);
},
{
closed = 1;
nodes = (
"267 0 LINE",
"267 450 LINE",
"435 450 LINE SMOOTH",
"465 450 OFFCURVE",
"481 428 OFFCURVE",
"481 384 CURVE SMOOTH",
"481 219 LINE",
"603 219 LINE",
"603 412 LINE SMOOTH",
"603 545 OFFCURVE",
"560 609 OFFCURVE",
"395 609 CURVE SMOOTH",
"75 609 LINE",
"75 0 LINE"
);
}
);
width = 911;
},
{
layerId = "BD31AAF9-E65B-4A30-ACC0-7018B0C27C60";
name = "Light Condensed";
paths = (
{
closed = 1;
nodes = (
"364 0 LINE SMOOTH",
"465 0 OFFCURVE",
"509 38 OFFCURVE",
"509 150 CURVE SMOOTH",
"509 584 LINE",
"483 584 LINE",
"483 155 LINE SMOOTH",
"483 53 OFFCURVE",
"447 27 OFFCURVE",
"359 27 CURVE SMOOTH",
"237 27 LINE",
"237 434 LINE",
"211 434 LINE",
"211 0 LINE"
);
},
{
closed = 1;
nodes = (
"101 0 LINE",
"101 557 LINE",
"223 557 LINE SMOOTH",
"311 557 OFFCURVE",
"347 531 OFFCURVE",
"347 429 CURVE SMOOTH",
"347 150 LINE",
"373 150 LINE",
"373 434 LINE SMOOTH",
"373 546 OFFCURVE",
"329 584 OFFCURVE",
"228 584 CURVE SMOOTH",
"75 584 LINE",
"75 0 LINE"
);
}
);
width = 579;
},
{
layerId = "E193C3F6-581C-4255-BA06-39B2C55FEA85";
name = Condensed;
paths = (
{
closed = 1;
nodes = (
"385 0 LINE SMOOTH",
"486 0 OFFCURVE",
"535 67 OFFCURVE",
"535 185 CURVE SMOOTH",
"535 592 LINE",
"451 592 LINE",
"451 201 LINE SMOOTH",
"451 119 OFFCURVE",
"420 81 OFFCURVE",
"369 81 CURVE SMOOTH",
"278 81 LINE",
"278 418 LINE",
"194 418 LINE",
"194 0 LINE"
);
},
{
closed = 1;
nodes = (
"149 0 LINE",
"149 511 LINE",
"240 511 LINE SMOOTH",
"291 511 OFFCURVE",
"322 473 OFFCURVE",
"322 391 CURVE SMOOTH",
"322 184 LINE",
"406 184 LINE",
"406 407 LINE SMOOTH",
"406 525 OFFCURVE",
"357 592 OFFCURVE",
"256 592 CURVE SMOOTH",
"65 592 LINE",
"65 0 LINE"
);
}
);
width = 595;
},
{
layerId = "4D9C3FAB-40EB-4CCF-A752-6D6FE9920038";
name = "SemiBold Condensed";
paths = (
{
closed = 1;
nodes = (
"479 0 LINE SMOOTH",
"585 0 OFFCURVE",
"676 76 OFFCURVE",
"676 205 CURVE SMOOTH",
"676 602 LINE",
"541 602 LINE",
"541 219 LINE SMOOTH",
"541 141 OFFCURVE",
"489 120 OFFCURVE",
"447 120 CURVE SMOOTH",
"349 120 LINE",
"349 398 LINE",
"244 398 LINE",
"244 0 LINE"
);
},
{
closed = 1;
nodes = (
"199 0 LINE",
"200 482 LINE",
"332 482 LINE SMOOTH",
"374 482 OFFCURVE",
"392 453 OFFCURVE",
"392 393 CURVE SMOOTH",
"392 204 LINE",
"497 204 LINE",
"497 407 LINE SMOOTH",
"497 536 OFFCURVE",
"440 602 OFFCURVE",
"334 602 CURVE SMOOTH",
"65 602 LINE",
"65 0 LINE"
);
}
);
width = 736;
},
{
layerId = "AD6F6DAA-2D58-4E1D-98AF-ACAAF76D7B9E";
name = "Bold Condensed";
paths = (
{
closed = 1;
nodes = (
"456 0 LINE SMOOTH",
"608 0 OFFCURVE",
"694 83 OFFCURVE",
"694 309 CURVE SMOOTH",
"694 609 LINE",
"534 609 LINE",
"534 309 LINE SMOOTH",
"534 181 OFFCURVE",
"523 147 OFFCURVE",
"407 147 CURVE SMOOTH",
"358 147 LINE",
"358 390 LINE",
"258 390 LINE",
"258 0 LINE"
);
},
{
closed = 1;
nodes = (
"220 0 LINE",
"220 462 LINE",
"349 462 LINE SMOOTH",
"387 462 OFFCURVE",
"396 437 OFFCURVE",
"396 390 CURVE SMOOTH",
"396 225 LINE",
"496 225 LINE",
"496 418 LINE SMOOTH",
"496 560 OFFCURVE",
"455 609 OFFCURVE",
"309 609 CURVE SMOOTH",
"60 609 LINE",
"60 0 LINE"
);
}
);
width = 749;
}
);
note = sheqel;
unicode = 20AA;
},
{
glyphname = uni25CC;
lastChange = "2015-12-09 19:09:58 +0000";
layers = (
{
layerId = "1F954AD7-537E-453D-9D07-161C7E95D0AA";
name = Light;
paths = (
{
closed = 1;
nodes = (
"480 466 OFFCURVE",
"472 475 OFFCURVE",
"455 475 CURVE SMOOTH",
"437 475 OFFCURVE",
"428 466 OFFCURVE",
"428 448 CURVE SMOOTH",
"428 431 OFFCURVE",
"437 422 OFFCURVE",
"455 422 CURVE SMOOTH",
"472 422 OFFCURVE",
"480 431 OFFCURVE",
"480 448 CURVE SMOOTH"
);
},
{
closed = 1;
nodes = (
"408 514 OFFCURVE",
"400 523 OFFCURVE",
"383 523 CURVE SMOOTH",
"364 523 OFFCURVE",
"355 514 OFFCURVE",
"355 496 CURVE SMOOTH",
"355 479 OFFCURVE",
"364 470 OFFCURVE",
"383 470 CURVE SMOOTH",
"400 470 OFFCURVE",
"408 479 OFFCURVE",
"408 496 CURVE SMOOTH"
);
},
{
closed = 1;
nodes = (
"529 393 OFFCURVE",
"520 402 OFFCURVE",
"503 402 CURVE SMOOTH",
"485 402 OFFCURVE",
"476 393 OFFCURVE",
"476 376 CURVE SMOOTH",
"476 358 OFFCURVE",
"485 349 OFFCURVE",
"502 349 CURVE SMOOTH",
"520 349 OFFCURVE",
"529 358 OFFCURVE",
"529 376 CURVE SMOOTH"
);
},
{
closed = 1;
nodes = (
"546 308 OFFCURVE",
"538 317 OFFCURVE",
"521 317 CURVE SMOOTH",
"503 317 OFFCURVE",
"494 308 OFFCURVE",
"494 291 CURVE SMOOTH",
"494 274 OFFCURVE",
"503 265 OFFCURVE",
"521 265 CURVE SMOOTH",
"538 265 OFFCURVE",
"546 274 OFFCURVE",
"546 291 CURVE SMOOTH"
);
},
{
closed = 1;
nodes = (
"323 531 OFFCURVE",
"314 540 OFFCURVE",
"297 540 CURVE SMOOTH",
"280 540 OFFCURVE",
"271 531 OFFCURVE",
"271 514 CURVE SMOOTH",
"271 496 OFFCURVE",
"280 487 OFFCURVE",
"297 487 CURVE SMOOTH",
"314 487 OFFCURVE",
"323 496 OFFCURVE",
"323 514 CURVE SMOOTH"
);
},
{
closed = 1;
nodes = (
"239 514 OFFCURVE",
"230 523 OFFCURVE",
"212 523 CURVE SMOOTH",
"195 523 OFFCURVE",
"186 514 OFFCURVE",
"186 496 CURVE SMOOTH",
"186 479 OFFCURVE",
"195 470 OFFCURVE",
"212 470 CURVE SMOOTH",
"230 470 OFFCURVE",
"239 479 OFFCURVE",
"239 496 CURVE SMOOTH"
);
},
{
closed = 1;
nodes = (
"529 224 OFFCURVE",
"520 233 OFFCURVE",
"502 233 CURVE SMOOTH",
"485 233 OFFCURVE",
"476 224 OFFCURVE",
"476 206 CURVE SMOOTH",
"476 189 OFFCURVE",
"485 180 OFFCURVE",
"502 180 CURVE SMOOTH",
"520 180 OFFCURVE",
"529 189 OFFCURVE",
"529 206 CURVE SMOOTH"
);
},
{
closed = 1;
nodes = (
"167 466 OFFCURVE",
"158 475 OFFCURVE",
"140 475 CURVE SMOOTH",
"123 475 OFFCURVE",
"114 466 OFFCURVE",
"114 447 CURVE SMOOTH",
"114 430 OFFCURVE",
"123 422 OFFCURVE",
"140 422 CURVE SMOOTH",
"158 422 OFFCURVE",
"167 431 OFFCURVE",
"167 448 CURVE SMOOTH"
);
},
{
closed = 1;
nodes = (
"480 151 OFFCURVE",
"472 160 OFFCURVE",
"455 160 CURVE SMOOTH",
"437 160 OFFCURVE",
"428 151 OFFCURVE",
"428 133 CURVE SMOOTH",
"428 116 OFFCURVE",
"437 107 OFFCURVE",
"455 107 CURVE SMOOTH",
"472 107 OFFCURVE",
"480 116 OFFCURVE",
"480 133 CURVE SMOOTH"
);
},
{
closed = 1;
nodes = (
"408 103 OFFCURVE",
"400 112 OFFCURVE",
"383 112 CURVE SMOOTH",
"364 112 OFFCURVE",
"355 103 OFFCURVE",
"355 85 CURVE SMOOTH",
"355 68 OFFCURVE",
"364 60 OFFCURVE",
"383 60 CURVE SMOOTH",
"400 60 OFFCURVE",
"408 68 OFFCURVE",
"408 85 CURVE SMOOTH"
);
},
{
closed = 1;
nodes = (
"118 393 OFFCURVE",
"109 402 OFFCURVE",
"92 402 CURVE SMOOTH",
"74 402 OFFCURVE",
"65 393 OFFCURVE",
"65 376 CURVE SMOOTH",
"65 358 OFFCURVE",
"74 349 OFFCURVE",
"93 349 CURVE SMOOTH",
"110 349 OFFCURVE",
"118 358 OFFCURVE",
"118 376 CURVE SMOOTH"
);
},
{
closed = 1;
nodes = (
"101 308 OFFCURVE",
"92 317 OFFCURVE",
"75 317 CURVE SMOOTH",
"57 317 OFFCURVE",
"48 308 OFFCURVE",
"48 291 CURVE SMOOTH",
"48 274 OFFCURVE",
"57 265 OFFCURVE",
"75 265 CURVE SMOOTH",
"92 265 OFFCURVE",
"101 274 OFFCURVE",
"101 291 CURVE SMOOTH"
);
},
{
closed = 1;
nodes = (
"323 86 OFFCURVE",
"314 95 OFFCURVE",
"297 95 CURVE SMOOTH",
"280 95 OFFCURVE",
"271 86 OFFCURVE",
"271 69 CURVE SMOOTH",
"271 51 OFFCURVE",
"280 42 OFFCURVE",
"297 42 CURVE SMOOTH",
"314 42 OFFCURVE",
"323 51 OFFCURVE",
"323 69 CURVE SMOOTH"
);
},
{
closed = 1;
nodes = (
"118 224 OFFCURVE",
"109 233 OFFCURVE",
"92 233 CURVE SMOOTH",
"74 233 OFFCURVE",
"65 224 OFFCURVE",
"65 206 CURVE SMOOTH",
"65 189 OFFCURVE",
"74 180 OFFCURVE",
"92 180 CURVE SMOOTH",
"109 180 OFFCURVE",
"118 189 OFFCURVE",
"118 206 CURVE SMOOTH"
);
},
{
closed = 1;
nodes = (
"239 104 OFFCURVE",
"230 112 OFFCURVE",
"212 112 CURVE SMOOTH",
"195 112 OFFCURVE",
"186 103 OFFCURVE",
"186 85 CURVE SMOOTH",
"186 68 OFFCURVE",
"195 60 OFFCURVE",
"212 60 CURVE SMOOTH",
"230 60 OFFCURVE",
"239 69 OFFCURVE",
"239 87 CURVE SMOOTH"
);
},
{
closed = 1;
nodes = (
"167 151 OFFCURVE",
"158 160 OFFCURVE",
"140 160 CURVE SMOOTH",
"123 160 OFFCURVE",
"114 151 OFFCURVE",
"114 133 CURVE SMOOTH",
"114 116 OFFCURVE",
"123 107 OFFCURVE",
"140 107 CURVE SMOOTH",
"158 107 OFFCURVE",
"167 116 OFFCURVE",
"167 133 CURVE SMOOTH"
);
}
);
width = 594;
},
{
layerId = "0C04772A-F31D-4E86-90EF-3402D1EA39CA";
name = Regular;
paths = (
{
closed = 1;
nodes = (
"480 466 OFFCURVE",
"472 475 OFFCURVE",
"455 475 CURVE SMOOTH",
"437 475 OFFCURVE",
"428 466 OFFCURVE",
"428 448 CURVE SMOOTH",
"428 431 OFFCURVE",
"437 422 OFFCURVE",
"455 422 CURVE SMOOTH",
"472 422 OFFCURVE",
"480 431 OFFCURVE",
"480 448 CURVE SMOOTH"
);
},
{
closed = 1;
nodes = (
"408 514 OFFCURVE",
"400 523 OFFCURVE",
"383 523 CURVE SMOOTH",
"364 523 OFFCURVE",
"355 514 OFFCURVE",
"355 496 CURVE SMOOTH",
"355 479 OFFCURVE",
"364 470 OFFCURVE",
"383 470 CURVE SMOOTH",
"400 470 OFFCURVE",
"408 479 OFFCURVE",
"408 496 CURVE SMOOTH"
);
},
{
closed = 1;
nodes = (
"529 393 OFFCURVE",
"520 402 OFFCURVE",
"503 402 CURVE SMOOTH",
"485 402 OFFCURVE",
"476 393 OFFCURVE",
"476 376 CURVE SMOOTH",
"476 358 OFFCURVE",
"485 349 OFFCURVE",
"502 349 CURVE SMOOTH",
"520 349 OFFCURVE",
"529 358 OFFCURVE",
"529 376 CURVE SMOOTH"
);
},
{
closed = 1;
nodes = (
"546 308 OFFCURVE",
"538 317 OFFCURVE",
"521 317 CURVE SMOOTH",
"503 317 OFFCURVE",
"494 308 OFFCURVE",
"494 291 CURVE SMOOTH",
"494 274 OFFCURVE",
"503 265 OFFCURVE",
"521 265 CURVE SMOOTH",
"538 265 OFFCURVE",
"546 274 OFFCURVE",
"546 291 CURVE SMOOTH"
);
},
{
closed = 1;
nodes = (
"323 531 OFFCURVE",
"314 540 OFFCURVE",
"297 540 CURVE SMOOTH",
"280 540 OFFCURVE",
"271 531 OFFCURVE",
"271 514 CURVE SMOOTH",
"271 496 OFFCURVE",
"280 487 OFFCURVE",
"297 487 CURVE SMOOTH",
"314 487 OFFCURVE",
"323 496 OFFCURVE",
"323 514 CURVE SMOOTH"
);
},
{
closed = 1;
nodes = (
"239 514 OFFCURVE",
"230 523 OFFCURVE",
"212 523 CURVE SMOOTH",
"195 523 OFFCURVE",
"186 514 OFFCURVE",
"186 496 CURVE SMOOTH",
"186 479 OFFCURVE",
"195 470 OFFCURVE",
"212 470 CURVE SMOOTH",
"230 470 OFFCURVE",
"239 479 OFFCURVE",
"239 496 CURVE SMOOTH"
);
},
{
closed = 1;
nodes = (
"529 224 OFFCURVE",
"520 233 OFFCURVE",
"502 233 CURVE SMOOTH",
"485 233 OFFCURVE",
"476 224 OFFCURVE",
"476 206 CURVE SMOOTH",
"476 189 OFFCURVE",
"485 180 OFFCURVE",
"502 180 CURVE SMOOTH",
"520 180 OFFCURVE",
"529 189 OFFCURVE",
"529 206 CURVE SMOOTH"
);
},
{
closed = 1;
nodes = (
"167 466 OFFCURVE",
"158 475 OFFCURVE",
"140 475 CURVE SMOOTH",
"123 475 OFFCURVE",
"114 466 OFFCURVE",
"114 447 CURVE SMOOTH",
"114 430 OFFCURVE",
"123 422 OFFCURVE",
"140 422 CURVE SMOOTH",
"158 422 OFFCURVE",
"167 431 OFFCURVE",
"167 448 CURVE SMOOTH"
);
},
{
closed = 1;
nodes = (
"480 151 OFFCURVE",
"472 160 OFFCURVE",
"455 160 CURVE SMOOTH",
"437 160 OFFCURVE",
"428 151 OFFCURVE",
"428 133 CURVE SMOOTH",
"428 116 OFFCURVE",
"437 107 OFFCURVE",
"455 107 CURVE SMOOTH",
"472 107 OFFCURVE",
"480 116 OFFCURVE",
"480 133 CURVE SMOOTH"
);
},
{
closed = 1;
nodes = (
"408 103 OFFCURVE",
"400 112 OFFCURVE",
"383 112 CURVE SMOOTH",
"364 112 OFFCURVE",
"355 103 OFFCURVE",
"355 85 CURVE SMOOTH",
"355 68 OFFCURVE",
"364 60 OFFCURVE",
"383 60 CURVE SMOOTH",
"400 60 OFFCURVE",
"408 68 OFFCURVE",
"408 85 CURVE SMOOTH"
);
},
{
closed = 1;
nodes = (
"118 393 OFFCURVE",
"109 402 OFFCURVE",
"92 402 CURVE SMOOTH",
"74 402 OFFCURVE",
"65 393 OFFCURVE",
"65 376 CURVE SMOOTH",
"65 358 OFFCURVE",
"74 349 OFFCURVE",
"93 349 CURVE SMOOTH",
"110 349 OFFCURVE",
"118 358 OFFCURVE",
"118 376 CURVE SMOOTH"
);
},
{
closed = 1;
nodes = (
"101 308 OFFCURVE",
"92 317 OFFCURVE",
"75 317 CURVE SMOOTH",
"57 317 OFFCURVE",
"48 308 OFFCURVE",
"48 291 CURVE SMOOTH",
"48 274 OFFCURVE",
"57 265 OFFCURVE",
"75 265 CURVE SMOOTH",
"92 265 OFFCURVE",
"101 274 OFFCURVE",
"101 291 CURVE SMOOTH"
);
},
{
closed = 1;
nodes = (
"323 86 OFFCURVE",
"314 95 OFFCURVE",
"297 95 CURVE SMOOTH",
"280 95 OFFCURVE",
"271 86 OFFCURVE",
"271 69 CURVE SMOOTH",
"271 51 OFFCURVE",
"280 42 OFFCURVE",
"297 42 CURVE SMOOTH",
"314 42 OFFCURVE",
"323 51 OFFCURVE",
"323 69 CURVE SMOOTH"
);
},
{
closed = 1;
nodes = (
"118 224 OFFCURVE",
"109 233 OFFCURVE",
"92 233 CURVE SMOOTH",
"74 233 OFFCURVE",
"65 224 OFFCURVE",
"65 206 CURVE SMOOTH",
"65 189 OFFCURVE",
"74 180 OFFCURVE",
"92 180 CURVE SMOOTH",
"109 180 OFFCURVE",
"118 189 OFFCURVE",
"118 206 CURVE SMOOTH"
);
},
{
closed = 1;
nodes = (
"239 104 OFFCURVE",
"230 112 OFFCURVE",
"212 112 CURVE SMOOTH",
"195 112 OFFCURVE",
"186 103 OFFCURVE",
"186 85 CURVE SMOOTH",
"186 68 OFFCURVE",
"195 60 OFFCURVE",
"212 60 CURVE SMOOTH",
"230 60 OFFCURVE",
"239 69 OFFCURVE",
"239 87 CURVE SMOOTH"
);
},
{
closed = 1;
nodes = (
"167 151 OFFCURVE",
"158 160 OFFCURVE",
"140 160 CURVE SMOOTH",
"123 160 OFFCURVE",
"114 151 OFFCURVE",
"114 133 CURVE SMOOTH",
"114 116 OFFCURVE",
"123 107 OFFCURVE",
"140 107 CURVE SMOOTH",
"158 107 OFFCURVE",
"167 116 OFFCURVE",
"167 133 CURVE SMOOTH"
);
}
);
width = 594;
},
{
layerId = "206B8059-80C9-426C-870D-7DCC5D63B771";
name = SemiBold;
paths = (
{
closed = 1;
nodes = (
"480 466 OFFCURVE",
"472 475 OFFCURVE",
"455 475 CURVE SMOOTH",
"437 475 OFFCURVE",
"428 466 OFFCURVE",
"428 448 CURVE SMOOTH",
"428 431 OFFCURVE",
"437 422 OFFCURVE",
"455 422 CURVE SMOOTH",
"472 422 OFFCURVE",
"480 431 OFFCURVE",
"480 448 CURVE SMOOTH"
);
},
{
closed = 1;
nodes = (
"408 514 OFFCURVE",
"400 523 OFFCURVE",
"383 523 CURVE SMOOTH",
"364 523 OFFCURVE",
"355 514 OFFCURVE",
"355 496 CURVE SMOOTH",
"355 479 OFFCURVE",
"364 470 OFFCURVE",
"383 470 CURVE SMOOTH",
"400 470 OFFCURVE",
"408 479 OFFCURVE",
"408 496 CURVE SMOOTH"
);
},
{
closed = 1;
nodes = (
"529 393 OFFCURVE",
"520 402 OFFCURVE",
"503 402 CURVE SMOOTH",
"485 402 OFFCURVE",
"476 393 OFFCURVE",
"476 376 CURVE SMOOTH",
"476 358 OFFCURVE",
"485 349 OFFCURVE",
"502 349 CURVE SMOOTH",
"520 349 OFFCURVE",
"529 358 OFFCURVE",
"529 376 CURVE SMOOTH"
);
},
{
closed = 1;
nodes = (
"546 308 OFFCURVE",
"538 317 OFFCURVE",
"521 317 CURVE SMOOTH",
"503 317 OFFCURVE",
"494 308 OFFCURVE",
"494 291 CURVE SMOOTH",
"494 274 OFFCURVE",
"503 265 OFFCURVE",
"521 265 CURVE SMOOTH",
"538 265 OFFCURVE",
"546 274 OFFCURVE",
"546 291 CURVE SMOOTH"
);
},
{
closed = 1;
nodes = (
"323 531 OFFCURVE",
"314 540 OFFCURVE",
"297 540 CURVE SMOOTH",
"280 540 OFFCURVE",
"271 531 OFFCURVE",
"271 514 CURVE SMOOTH",
"271 496 OFFCURVE",
"280 487 OFFCURVE",
"297 487 CURVE SMOOTH",
"314 487 OFFCURVE",
"323 496 OFFCURVE",
"323 514 CURVE SMOOTH"
);
},
{
closed = 1;
nodes = (
"239 514 OFFCURVE",
"230 523 OFFCURVE",
"212 523 CURVE SMOOTH",
"195 523 OFFCURVE",
"186 514 OFFCURVE",
"186 496 CURVE SMOOTH",
"186 479 OFFCURVE",
"195 470 OFFCURVE",
"212 470 CURVE SMOOTH",
"230 470 OFFCURVE",
"239 479 OFFCURVE",
"239 496 CURVE SMOOTH"
);
},
{
closed = 1;
nodes = (
"529 224 OFFCURVE",
"520 233 OFFCURVE",
"502 233 CURVE SMOOTH",
"485 233 OFFCURVE",
"476 224 OFFCURVE",
"476 206 CURVE SMOOTH",
"476 189 OFFCURVE",
"485 180 OFFCURVE",
"502 180 CURVE SMOOTH",
"520 180 OFFCURVE",
"529 189 OFFCURVE",
"529 206 CURVE SMOOTH"
);
},
{
closed = 1;
nodes = (
"167 466 OFFCURVE",
"158 475 OFFCURVE",
"140 475 CURVE SMOOTH",
"123 475 OFFCURVE",
"114 466 OFFCURVE",
"114 447 CURVE SMOOTH",
"114 430 OFFCURVE",
"123 422 OFFCURVE",
"140 422 CURVE SMOOTH",
"158 422 OFFCURVE",
"167 431 OFFCURVE",
"167 448 CURVE SMOOTH"
);
},
{
closed = 1;
nodes = (
"480 151 OFFCURVE",
"472 160 OFFCURVE",
"455 160 CURVE SMOOTH",
"437 160 OFFCURVE",
"428 151 OFFCURVE",
"428 133 CURVE SMOOTH",
"428 116 OFFCURVE",
"437 107 OFFCURVE",
"455 107 CURVE SMOOTH",
"472 107 OFFCURVE",
"480 116 OFFCURVE",
"480 133 CURVE SMOOTH"
);
},
{
closed = 1;
nodes = (
"408 103 OFFCURVE",
"400 112 OFFCURVE",
"383 112 CURVE SMOOTH",
"364 112 OFFCURVE",
"355 103 OFFCURVE",
"355 85 CURVE SMOOTH",
"355 68 OFFCURVE",
"364 60 OFFCURVE",
"383 60 CURVE SMOOTH",
"400 60 OFFCURVE",
"408 68 OFFCURVE",
"408 85 CURVE SMOOTH"
);
},
{
closed = 1;
nodes = (
"118 393 OFFCURVE",
"109 402 OFFCURVE",
"92 402 CURVE SMOOTH",
"74 402 OFFCURVE",
"65 393 OFFCURVE",
"65 376 CURVE SMOOTH",
"65 358 OFFCURVE",
"74 349 OFFCURVE",
"93 349 CURVE SMOOTH",
"110 349 OFFCURVE",
"118 358 OFFCURVE",
"118 376 CURVE SMOOTH"
);
},
{
closed = 1;
nodes = (
"101 308 OFFCURVE",
"92 317 OFFCURVE",
"75 317 CURVE SMOOTH",
"57 317 OFFCURVE",
"48 308 OFFCURVE",
"48 291 CURVE SMOOTH",
"48 274 OFFCURVE",
"57 265 OFFCURVE",
"75 265 CURVE SMOOTH",
"92 265 OFFCURVE",
"101 274 OFFCURVE",
"101 291 CURVE SMOOTH"
);
},
{
closed = 1;
nodes = (
"323 86 OFFCURVE",
"314 95 OFFCURVE",
"297 95 CURVE SMOOTH",
"280 95 OFFCURVE",
"271 86 OFFCURVE",
"271 69 CURVE SMOOTH",
"271 51 OFFCURVE",
"280 42 OFFCURVE",
"297 42 CURVE SMOOTH",
"314 42 OFFCURVE",
"323 51 OFFCURVE",
"323 69 CURVE SMOOTH"
);
},
{
closed = 1;
nodes = (
"118 224 OFFCURVE",
"109 233 OFFCURVE",
"92 233 CURVE SMOOTH",
"74 233 OFFCURVE",
"65 224 OFFCURVE",
"65 206 CURVE SMOOTH",
"65 189 OFFCURVE",
"74 180 OFFCURVE",
"92 180 CURVE SMOOTH",
"109 180 OFFCURVE",
"118 189 OFFCURVE",
"118 206 CURVE SMOOTH"
);
},
{
closed = 1;
nodes = (
"239 104 OFFCURVE",
"230 112 OFFCURVE",
"212 112 CURVE SMOOTH",
"195 112 OFFCURVE",
"186 103 OFFCURVE",
"186 85 CURVE SMOOTH",
"186 68 OFFCURVE",
"195 60 OFFCURVE",
"212 60 CURVE SMOOTH",
"230 60 OFFCURVE",
"239 69 OFFCURVE",
"239 87 CURVE SMOOTH"
);
},
{
closed = 1;
nodes = (
"167 151 OFFCURVE",
"158 160 OFFCURVE",
"140 160 CURVE SMOOTH",
"123 160 OFFCURVE",
"114 151 OFFCURVE",
"114 133 CURVE SMOOTH",
"114 116 OFFCURVE",
"123 107 OFFCURVE",
"140 107 CURVE SMOOTH",
"158 107 OFFCURVE",
"167 116 OFFCURVE",
"167 133 CURVE SMOOTH"
);
}
);
width = 594;
},
{
layerId = "3FB868F8-5CDC-4A46-BA32-95627737ABE0";
name = Bold;
paths = (
{
closed = 1;
nodes = (
"480 466 OFFCURVE",
"472 475 OFFCURVE",
"455 475 CURVE SMOOTH",
"437 475 OFFCURVE",
"428 466 OFFCURVE",
"428 448 CURVE SMOOTH",
"428 431 OFFCURVE",
"437 422 OFFCURVE",
"455 422 CURVE SMOOTH",
"472 422 OFFCURVE",
"480 431 OFFCURVE",
"480 448 CURVE SMOOTH"
);
},
{
closed = 1;
nodes = (
"408 514 OFFCURVE",
"400 523 OFFCURVE",
"383 523 CURVE SMOOTH",
"364 523 OFFCURVE",
"355 514 OFFCURVE",
"355 496 CURVE SMOOTH",
"355 479 OFFCURVE",
"364 470 OFFCURVE",
"383 470 CURVE SMOOTH",
"400 470 OFFCURVE",
"408 479 OFFCURVE",
"408 496 CURVE SMOOTH"
);
},
{
closed = 1;
nodes = (
"529 393 OFFCURVE",
"520 402 OFFCURVE",
"503 402 CURVE SMOOTH",
"485 402 OFFCURVE",
"476 393 OFFCURVE",
"476 376 CURVE SMOOTH",
"476 358 OFFCURVE",
"485 349 OFFCURVE",
"502 349 CURVE SMOOTH",
"520 349 OFFCURVE",
"529 358 OFFCURVE",
"529 376 CURVE SMOOTH"
);
},
{
closed = 1;
nodes = (
"546 308 OFFCURVE",
"538 317 OFFCURVE",
"521 317 CURVE SMOOTH",
"503 317 OFFCURVE",
"494 308 OFFCURVE",
"494 291 CURVE SMOOTH",
"494 274 OFFCURVE",
"503 265 OFFCURVE",
"521 265 CURVE SMOOTH",
"538 265 OFFCURVE",
"546 274 OFFCURVE",
"546 291 CURVE SMOOTH"
);
},
{
closed = 1;
nodes = (
"323 531 OFFCURVE",
"314 540 OFFCURVE",
"297 540 CURVE SMOOTH",
"280 540 OFFCURVE",
"271 531 OFFCURVE",
"271 514 CURVE SMOOTH",
"271 496 OFFCURVE",
"280 487 OFFCURVE",
"297 487 CURVE SMOOTH",
"314 487 OFFCURVE",
"323 496 OFFCURVE",
"323 514 CURVE SMOOTH"
);
},
{
closed = 1;
nodes = (
"239 514 OFFCURVE",
"230 523 OFFCURVE",
"212 523 CURVE SMOOTH",
"195 523 OFFCURVE",
"186 514 OFFCURVE",
"186 496 CURVE SMOOTH",
"186 479 OFFCURVE",
"195 470 OFFCURVE",
"212 470 CURVE SMOOTH",
"230 470 OFFCURVE",
"239 479 OFFCURVE",
"239 496 CURVE SMOOTH"
);
},
{
closed = 1;
nodes = (
"529 224 OFFCURVE",
"520 233 OFFCURVE",
"502 233 CURVE SMOOTH",
"485 233 OFFCURVE",
"476 224 OFFCURVE",
"476 206 CURVE SMOOTH",
"476 189 OFFCURVE",
"485 180 OFFCURVE",
"502 180 CURVE SMOOTH",
"520 180 OFFCURVE",
"529 189 OFFCURVE",
"529 206 CURVE SMOOTH"
);
},
{
closed = 1;
nodes = (
"167 466 OFFCURVE",
"158 475 OFFCURVE",
"140 475 CURVE SMOOTH",
"123 475 OFFCURVE",
"114 466 OFFCURVE",
"114 447 CURVE SMOOTH",
"114 430 OFFCURVE",
"123 422 OFFCURVE",
"140 422 CURVE SMOOTH",
"158 422 OFFCURVE",
"167 431 OFFCURVE",
"167 448 CURVE SMOOTH"
);
},
{
closed = 1;
nodes = (
"480 151 OFFCURVE",
"472 160 OFFCURVE",
"455 160 CURVE SMOOTH",
"437 160 OFFCURVE",
"428 151 OFFCURVE",
"428 133 CURVE SMOOTH",
"428 116 OFFCURVE",
"437 107 OFFCURVE",
"455 107 CURVE SMOOTH",
"472 107 OFFCURVE",
"480 116 OFFCURVE",
"480 133 CURVE SMOOTH"
);
},
{
closed = 1;
nodes = (
"408 103 OFFCURVE",
"400 112 OFFCURVE",
"383 112 CURVE SMOOTH",
"364 112 OFFCURVE",
"355 103 OFFCURVE",
"355 85 CURVE SMOOTH",
"355 68 OFFCURVE",
"364 60 OFFCURVE",
"383 60 CURVE SMOOTH",
"400 60 OFFCURVE",
"408 68 OFFCURVE",
"408 85 CURVE SMOOTH"
);
},
{
closed = 1;
nodes = (
"118 393 OFFCURVE",
"109 402 OFFCURVE",
"92 402 CURVE SMOOTH",
"74 402 OFFCURVE",
"65 393 OFFCURVE",
"65 376 CURVE SMOOTH",
"65 358 OFFCURVE",
"74 349 OFFCURVE",
"93 349 CURVE SMOOTH",
"110 349 OFFCURVE",
"118 358 OFFCURVE",
"118 376 CURVE SMOOTH"
);
},
{
closed = 1;
nodes = (
"101 308 OFFCURVE",
"92 317 OFFCURVE",
"75 317 CURVE SMOOTH",
"57 317 OFFCURVE",
"48 308 OFFCURVE",
"48 291 CURVE SMOOTH",
"48 274 OFFCURVE",
"57 265 OFFCURVE",
"75 265 CURVE SMOOTH",
"92 265 OFFCURVE",
"101 274 OFFCURVE",
"101 291 CURVE SMOOTH"
);
},
{
closed = 1;
nodes = (
"323 86 OFFCURVE",
"314 95 OFFCURVE",
"297 95 CURVE SMOOTH",
"280 95 OFFCURVE",
"271 86 OFFCURVE",
"271 69 CURVE SMOOTH",
"271 51 OFFCURVE",
"280 42 OFFCURVE",
"297 42 CURVE SMOOTH",
"314 42 OFFCURVE",
"323 51 OFFCURVE",
"323 69 CURVE SMOOTH"
);
},
{
closed = 1;
nodes = (
"118 224 OFFCURVE",
"109 233 OFFCURVE",
"92 233 CURVE SMOOTH",
"74 233 OFFCURVE",
"65 224 OFFCURVE",
"65 206 CURVE SMOOTH",
"65 189 OFFCURVE",
"74 180 OFFCURVE",
"92 180 CURVE SMOOTH",
"109 180 OFFCURVE",
"118 189 OFFCURVE",
"118 206 CURVE SMOOTH"
);
},
{
closed = 1;
nodes = (
"239 104 OFFCURVE",
"230 112 OFFCURVE",
"212 112 CURVE SMOOTH",
"195 112 OFFCURVE",
"186 103 OFFCURVE",
"186 85 CURVE SMOOTH",
"186 68 OFFCURVE",
"195 60 OFFCURVE",
"212 60 CURVE SMOOTH",
"230 60 OFFCURVE",
"239 69 OFFCURVE",
"239 87 CURVE SMOOTH"
);
},
{
closed = 1;
nodes = (
"167 151 OFFCURVE",
"158 160 OFFCURVE",
"140 160 CURVE SMOOTH",
"123 160 OFFCURVE",
"114 151 OFFCURVE",
"114 133 CURVE SMOOTH",
"114 116 OFFCURVE",
"123 107 OFFCURVE",
"140 107 CURVE SMOOTH",
"158 107 OFFCURVE",
"167 116 OFFCURVE",
"167 133 CURVE SMOOTH"
);
}
);
width = 594;
},
{
layerId = "BD31AAF9-E65B-4A30-ACC0-7018B0C27C60";
name = "Light Condensed";
paths = (
{
closed = 1;
nodes = (
"480 466 OFFCURVE",
"472 475 OFFCURVE",
"455 475 CURVE SMOOTH",
"437 475 OFFCURVE",
"428 466 OFFCURVE",
"428 448 CURVE SMOOTH",
"428 431 OFFCURVE",
"437 422 OFFCURVE",
"455 422 CURVE SMOOTH",
"472 422 OFFCURVE",
"480 431 OFFCURVE",
"480 448 CURVE SMOOTH"
);
},
{
closed = 1;
nodes = (
"408 514 OFFCURVE",
"400 523 OFFCURVE",
"383 523 CURVE SMOOTH",
"364 523 OFFCURVE",
"355 514 OFFCURVE",
"355 496 CURVE SMOOTH",
"355 479 OFFCURVE",
"364 470 OFFCURVE",
"383 470 CURVE SMOOTH",
"400 470 OFFCURVE",
"408 479 OFFCURVE",
"408 496 CURVE SMOOTH"
);
},
{
closed = 1;
nodes = (
"529 393 OFFCURVE",
"520 402 OFFCURVE",
"503 402 CURVE SMOOTH",
"485 402 OFFCURVE",
"476 393 OFFCURVE",
"476 376 CURVE SMOOTH",
"476 358 OFFCURVE",
"485 349 OFFCURVE",
"502 349 CURVE SMOOTH",
"520 349 OFFCURVE",
"529 358 OFFCURVE",
"529 376 CURVE SMOOTH"
);
},
{
closed = 1;
nodes = (
"546 308 OFFCURVE",
"538 317 OFFCURVE",
"521 317 CURVE SMOOTH",
"503 317 OFFCURVE",
"494 308 OFFCURVE",
"494 291 CURVE SMOOTH",
"494 274 OFFCURVE",
"503 265 OFFCURVE",
"521 265 CURVE SMOOTH",
"538 265 OFFCURVE",
"546 274 OFFCURVE",
"546 291 CURVE SMOOTH"
);
},
{
closed = 1;
nodes = (
"323 531 OFFCURVE",
"314 540 OFFCURVE",
"297 540 CURVE SMOOTH",
"280 540 OFFCURVE",
"271 531 OFFCURVE",
"271 514 CURVE SMOOTH",
"271 496 OFFCURVE",
"280 487 OFFCURVE",
"297 487 CURVE SMOOTH",
"314 487 OFFCURVE",
"323 496 OFFCURVE",
"323 514 CURVE SMOOTH"
);
},
{
closed = 1;
nodes = (
"239 514 OFFCURVE",
"230 523 OFFCURVE",
"212 523 CURVE SMOOTH",
"195 523 OFFCURVE",
"186 514 OFFCURVE",
"186 496 CURVE SMOOTH",
"186 479 OFFCURVE",
"195 470 OFFCURVE",
"212 470 CURVE SMOOTH",
"230 470 OFFCURVE",
"239 479 OFFCURVE",
"239 496 CURVE SMOOTH"
);
},
{
closed = 1;
nodes = (
"529 224 OFFCURVE",
"520 233 OFFCURVE",
"502 233 CURVE SMOOTH",
"485 233 OFFCURVE",
"476 224 OFFCURVE",
"476 206 CURVE SMOOTH",
"476 189 OFFCURVE",
"485 180 OFFCURVE",
"502 180 CURVE SMOOTH",
"520 180 OFFCURVE",
"529 189 OFFCURVE",
"529 206 CURVE SMOOTH"
);
},
{
closed = 1;
nodes = (
"167 466 OFFCURVE",
"158 475 OFFCURVE",
"140 475 CURVE SMOOTH",
"123 475 OFFCURVE",
"114 466 OFFCURVE",
"114 447 CURVE SMOOTH",
"114 430 OFFCURVE",
"123 422 OFFCURVE",
"140 422 CURVE SMOOTH",
"158 422 OFFCURVE",
"167 431 OFFCURVE",
"167 448 CURVE SMOOTH"
);
},
{
closed = 1;
nodes = (
"480 151 OFFCURVE",
"472 160 OFFCURVE",
"455 160 CURVE SMOOTH",
"437 160 OFFCURVE",
"428 151 OFFCURVE",
"428 133 CURVE SMOOTH",
"428 116 OFFCURVE",
"437 107 OFFCURVE",
"455 107 CURVE SMOOTH",
"472 107 OFFCURVE",
"480 116 OFFCURVE",
"480 133 CURVE SMOOTH"
);
},
{
closed = 1;
nodes = (
"408 103 OFFCURVE",
"400 112 OFFCURVE",
"383 112 CURVE SMOOTH",
"364 112 OFFCURVE",
"355 103 OFFCURVE",
"355 85 CURVE SMOOTH",
"355 68 OFFCURVE",
"364 60 OFFCURVE",
"383 60 CURVE SMOOTH",
"400 60 OFFCURVE",
"408 68 OFFCURVE",
"408 85 CURVE SMOOTH"
);
},
{
closed = 1;
nodes = (
"118 393 OFFCURVE",
"109 402 OFFCURVE",
"92 402 CURVE SMOOTH",
"74 402 OFFCURVE",
"65 393 OFFCURVE",
"65 376 CURVE SMOOTH",
"65 358 OFFCURVE",
"74 349 OFFCURVE",
"93 349 CURVE SMOOTH",
"110 349 OFFCURVE",
"118 358 OFFCURVE",
"118 376 CURVE SMOOTH"
);
},
{
closed = 1;
nodes = (
"101 308 OFFCURVE",
"92 317 OFFCURVE",
"75 317 CURVE SMOOTH",
"57 317 OFFCURVE",
"48 308 OFFCURVE",
"48 291 CURVE SMOOTH",
"48 274 OFFCURVE",
"57 265 OFFCURVE",
"75 265 CURVE SMOOTH",
"92 265 OFFCURVE",
"101 274 OFFCURVE",
"101 291 CURVE SMOOTH"
);
},
{
closed = 1;
nodes = (
"323 86 OFFCURVE",
"314 95 OFFCURVE",
"297 95 CURVE SMOOTH",
"280 95 OFFCURVE",
"271 86 OFFCURVE",
"271 69 CURVE SMOOTH",
"271 51 OFFCURVE",
"280 42 OFFCURVE",
"297 42 CURVE SMOOTH",
"314 42 OFFCURVE",
"323 51 OFFCURVE",
"323 69 CURVE SMOOTH"
);
},
{
closed = 1;
nodes = (
"118 224 OFFCURVE",
"109 233 OFFCURVE",
"92 233 CURVE SMOOTH",
"74 233 OFFCURVE",
"65 224 OFFCURVE",
"65 206 CURVE SMOOTH",
"65 189 OFFCURVE",
"74 180 OFFCURVE",
"92 180 CURVE SMOOTH",
"109 180 OFFCURVE",
"118 189 OFFCURVE",
"118 206 CURVE SMOOTH"
);
},
{
closed = 1;
nodes = (
"239 104 OFFCURVE",
"230 112 OFFCURVE",
"212 112 CURVE SMOOTH",
"195 112 OFFCURVE",
"186 103 OFFCURVE",
"186 85 CURVE SMOOTH",
"186 68 OFFCURVE",
"195 60 OFFCURVE",
"212 60 CURVE SMOOTH",
"230 60 OFFCURVE",
"239 69 OFFCURVE",
"239 87 CURVE SMOOTH"
);
},
{
closed = 1;
nodes = (
"167 151 OFFCURVE",
"158 160 OFFCURVE",
"140 160 CURVE SMOOTH",
"123 160 OFFCURVE",
"114 151 OFFCURVE",
"114 133 CURVE SMOOTH",
"114 116 OFFCURVE",
"123 107 OFFCURVE",
"140 107 CURVE SMOOTH",
"158 107 OFFCURVE",
"167 116 OFFCURVE",
"167 133 CURVE SMOOTH"
);
}
);
width = 594;
},
{
layerId = "E193C3F6-581C-4255-BA06-39B2C55FEA85";
name = Condensed;
paths = (
{
closed = 1;
nodes = (
"480 466 OFFCURVE",
"472 475 OFFCURVE",
"455 475 CURVE SMOOTH",
"437 475 OFFCURVE",
"428 466 OFFCURVE",
"428 448 CURVE SMOOTH",
"428 431 OFFCURVE",
"437 422 OFFCURVE",
"455 422 CURVE SMOOTH",
"472 422 OFFCURVE",
"480 431 OFFCURVE",
"480 448 CURVE SMOOTH"
);
},
{
closed = 1;
nodes = (
"408 514 OFFCURVE",
"400 523 OFFCURVE",
"383 523 CURVE SMOOTH",
"364 523 OFFCURVE",
"355 514 OFFCURVE",
"355 496 CURVE SMOOTH",
"355 479 OFFCURVE",
"364 470 OFFCURVE",
"383 470 CURVE SMOOTH",
"400 470 OFFCURVE",
"408 479 OFFCURVE",
"408 496 CURVE SMOOTH"
);
},
{
closed = 1;
nodes = (
"529 393 OFFCURVE",
"520 402 OFFCURVE",
"503 402 CURVE SMOOTH",
"485 402 OFFCURVE",
"476 393 OFFCURVE",
"476 376 CURVE SMOOTH",
"476 358 OFFCURVE",
"485 349 OFFCURVE",
"502 349 CURVE SMOOTH",
"520 349 OFFCURVE",
"529 358 OFFCURVE",
"529 376 CURVE SMOOTH"
);
},
{
closed = 1;
nodes = (
"546 308 OFFCURVE",
"538 317 OFFCURVE",
"521 317 CURVE SMOOTH",
"503 317 OFFCURVE",
"494 308 OFFCURVE",
"494 291 CURVE SMOOTH",
"494 274 OFFCURVE",
"503 265 OFFCURVE",
"521 265 CURVE SMOOTH",
"538 265 OFFCURVE",
"546 274 OFFCURVE",
"546 291 CURVE SMOOTH"
);
},
{
closed = 1;
nodes = (
"323 531 OFFCURVE",
"314 540 OFFCURVE",
"297 540 CURVE SMOOTH",
"280 540 OFFCURVE",
"271 531 OFFCURVE",
"271 514 CURVE SMOOTH",
"271 496 OFFCURVE",
"280 487 OFFCURVE",
"297 487 CURVE SMOOTH",
"314 487 OFFCURVE",
"323 496 OFFCURVE",
"323 514 CURVE SMOOTH"
);
},
{
closed = 1;
nodes = (
"239 514 OFFCURVE",
"230 523 OFFCURVE",
"212 523 CURVE SMOOTH",
"195 523 OFFCURVE",
"186 514 OFFCURVE",
"186 496 CURVE SMOOTH",
"186 479 OFFCURVE",
"195 470 OFFCURVE",
"212 470 CURVE SMOOTH",
"230 470 OFFCURVE",
"239 479 OFFCURVE",
"239 496 CURVE SMOOTH"
);
},
{
closed = 1;
nodes = (
"529 224 OFFCURVE",
"520 233 OFFCURVE",
"502 233 CURVE SMOOTH",
"485 233 OFFCURVE",
"476 224 OFFCURVE",
"476 206 CURVE SMOOTH",
"476 189 OFFCURVE",
"485 180 OFFCURVE",
"502 180 CURVE SMOOTH",
"520 180 OFFCURVE",
"529 189 OFFCURVE",
"529 206 CURVE SMOOTH"
);
},
{
closed = 1;
nodes = (
"167 466 OFFCURVE",
"158 475 OFFCURVE",
"140 475 CURVE SMOOTH",
"123 475 OFFCURVE",
"114 466 OFFCURVE",
"114 447 CURVE SMOOTH",
"114 430 OFFCURVE",
"123 422 OFFCURVE",
"140 422 CURVE SMOOTH",
"158 422 OFFCURVE",
"167 431 OFFCURVE",
"167 448 CURVE SMOOTH"
);
},
{
closed = 1;
nodes = (
"480 151 OFFCURVE",
"472 160 OFFCURVE",
"455 160 CURVE SMOOTH",
"437 160 OFFCURVE",
"428 151 OFFCURVE",
"428 133 CURVE SMOOTH",
"428 116 OFFCURVE",
"437 107 OFFCURVE",
"455 107 CURVE SMOOTH",
"472 107 OFFCURVE",
"480 116 OFFCURVE",
"480 133 CURVE SMOOTH"
);
},
{
closed = 1;
nodes = (
"408 103 OFFCURVE",
"400 112 OFFCURVE",
"383 112 CURVE SMOOTH",
"364 112 OFFCURVE",
"355 103 OFFCURVE",
"355 85 CURVE SMOOTH",
"355 68 OFFCURVE",
"364 60 OFFCURVE",
"383 60 CURVE SMOOTH",
"400 60 OFFCURVE",
"408 68 OFFCURVE",
"408 85 CURVE SMOOTH"
);
},
{
closed = 1;
nodes = (
"118 393 OFFCURVE",
"109 402 OFFCURVE",
"92 402 CURVE SMOOTH",
"74 402 OFFCURVE",
"65 393 OFFCURVE",
"65 376 CURVE SMOOTH",
"65 358 OFFCURVE",
"74 349 OFFCURVE",
"93 349 CURVE SMOOTH",
"110 349 OFFCURVE",
"118 358 OFFCURVE",
"118 376 CURVE SMOOTH"
);
},
{
closed = 1;
nodes = (
"101 308 OFFCURVE",
"92 317 OFFCURVE",
"75 317 CURVE SMOOTH",
"57 317 OFFCURVE",
"48 308 OFFCURVE",
"48 291 CURVE SMOOTH",
"48 274 OFFCURVE",
"57 265 OFFCURVE",
"75 265 CURVE SMOOTH",
"92 265 OFFCURVE",
"101 274 OFFCURVE",
"101 291 CURVE SMOOTH"
);
},
{
closed = 1;
nodes = (
"323 86 OFFCURVE",
"314 95 OFFCURVE",
"297 95 CURVE SMOOTH",
"280 95 OFFCURVE",
"271 86 OFFCURVE",
"271 69 CURVE SMOOTH",
"271 51 OFFCURVE",
"280 42 OFFCURVE",
"297 42 CURVE SMOOTH",
"314 42 OFFCURVE",
"323 51 OFFCURVE",
"323 69 CURVE SMOOTH"
);
},
{
closed = 1;
nodes = (
"118 224 OFFCURVE",
"109 233 OFFCURVE",
"92 233 CURVE SMOOTH",
"74 233 OFFCURVE",
"65 224 OFFCURVE",
"65 206 CURVE SMOOTH",
"65 189 OFFCURVE",
"74 180 OFFCURVE",
"92 180 CURVE SMOOTH",
"109 180 OFFCURVE",
"118 189 OFFCURVE",
"118 206 CURVE SMOOTH"
);
},
{
closed = 1;
nodes = (
"239 104 OFFCURVE",
"230 112 OFFCURVE",
"212 112 CURVE SMOOTH",
"195 112 OFFCURVE",
"186 103 OFFCURVE",
"186 85 CURVE SMOOTH",
"186 68 OFFCURVE",
"195 60 OFFCURVE",
"212 60 CURVE SMOOTH",
"230 60 OFFCURVE",
"239 69 OFFCURVE",
"239 87 CURVE SMOOTH"
);
},
{
closed = 1;
nodes = (
"167 151 OFFCURVE",
"158 160 OFFCURVE",
"140 160 CURVE SMOOTH",
"123 160 OFFCURVE",
"114 151 OFFCURVE",
"114 133 CURVE SMOOTH",
"114 116 OFFCURVE",
"123 107 OFFCURVE",
"140 107 CURVE SMOOTH",
"158 107 OFFCURVE",
"167 116 OFFCURVE",
"167 133 CURVE SMOOTH"
);
}
);
width = 594;
},
{
layerId = "4D9C3FAB-40EB-4CCF-A752-6D6FE9920038";
name = "SemiBold Condensed";
paths = (
{
closed = 1;
nodes = (
"480 466 OFFCURVE",
"472 475 OFFCURVE",
"455 475 CURVE SMOOTH",
"437 475 OFFCURVE",
"428 466 OFFCURVE",
"428 448 CURVE SMOOTH",
"428 431 OFFCURVE",
"437 422 OFFCURVE",
"455 422 CURVE SMOOTH",
"472 422 OFFCURVE",
"480 431 OFFCURVE",
"480 448 CURVE SMOOTH"
);
},
{
closed = 1;
nodes = (
"408 514 OFFCURVE",
"400 523 OFFCURVE",
"383 523 CURVE SMOOTH",
"364 523 OFFCURVE",
"355 514 OFFCURVE",
"355 496 CURVE SMOOTH",
"355 479 OFFCURVE",
"364 470 OFFCURVE",
"383 470 CURVE SMOOTH",
"400 470 OFFCURVE",
"408 479 OFFCURVE",
"408 496 CURVE SMOOTH"
);
},
{
closed = 1;
nodes = (
"529 393 OFFCURVE",
"520 402 OFFCURVE",
"503 402 CURVE SMOOTH",
"485 402 OFFCURVE",
"476 393 OFFCURVE",
"476 376 CURVE SMOOTH",
"476 358 OFFCURVE",
"485 349 OFFCURVE",
"502 349 CURVE SMOOTH",
"520 349 OFFCURVE",
"529 358 OFFCURVE",
"529 376 CURVE SMOOTH"
);
},
{
closed = 1;
nodes = (
"546 308 OFFCURVE",
"538 317 OFFCURVE",
"521 317 CURVE SMOOTH",
"503 317 OFFCURVE",
"494 308 OFFCURVE",
"494 291 CURVE SMOOTH",
"494 274 OFFCURVE",
"503 265 OFFCURVE",
"521 265 CURVE SMOOTH",
"538 265 OFFCURVE",
"546 274 OFFCURVE",
"546 291 CURVE SMOOTH"
);
},
{
closed = 1;
nodes = (
"323 531 OFFCURVE",
"314 540 OFFCURVE",
"297 540 CURVE SMOOTH",
"280 540 OFFCURVE",
"271 531 OFFCURVE",
"271 514 CURVE SMOOTH",
"271 496 OFFCURVE",
"280 487 OFFCURVE",
"297 487 CURVE SMOOTH",
"314 487 OFFCURVE",
"323 496 OFFCURVE",
"323 514 CURVE SMOOTH"
);
},
{
closed = 1;
nodes = (
"239 514 OFFCURVE",
"230 523 OFFCURVE",
"212 523 CURVE SMOOTH",
"195 523 OFFCURVE",
"186 514 OFFCURVE",
"186 496 CURVE SMOOTH",
"186 479 OFFCURVE",
"195 470 OFFCURVE",
"212 470 CURVE SMOOTH",
"230 470 OFFCURVE",
"239 479 OFFCURVE",
"239 496 CURVE SMOOTH"
);
},
{
closed = 1;
nodes = (
"529 224 OFFCURVE",
"520 233 OFFCURVE",
"502 233 CURVE SMOOTH",
"485 233 OFFCURVE",
"476 224 OFFCURVE",
"476 206 CURVE SMOOTH",
"476 189 OFFCURVE",
"485 180 OFFCURVE",
"502 180 CURVE SMOOTH",
"520 180 OFFCURVE",
"529 189 OFFCURVE",
"529 206 CURVE SMOOTH"
);
},
{
closed = 1;
nodes = (
"167 466 OFFCURVE",
"158 475 OFFCURVE",
"140 475 CURVE SMOOTH",
"123 475 OFFCURVE",
"114 466 OFFCURVE",
"114 447 CURVE SMOOTH",
"114 430 OFFCURVE",
"123 422 OFFCURVE",
"140 422 CURVE SMOOTH",
"158 422 OFFCURVE",
"167 431 OFFCURVE",
"167 448 CURVE SMOOTH"
);
},
{
closed = 1;
nodes = (
"480 151 OFFCURVE",
"472 160 OFFCURVE",
"455 160 CURVE SMOOTH",
"437 160 OFFCURVE",
"428 151 OFFCURVE",
"428 133 CURVE SMOOTH",
"428 116 OFFCURVE",
"437 107 OFFCURVE",
"455 107 CURVE SMOOTH",
"472 107 OFFCURVE",
"480 116 OFFCURVE",
"480 133 CURVE SMOOTH"
);
},
{
closed = 1;
nodes = (
"408 103 OFFCURVE",
"400 112 OFFCURVE",
"383 112 CURVE SMOOTH",
"364 112 OFFCURVE",
"355 103 OFFCURVE",
"355 85 CURVE SMOOTH",
"355 68 OFFCURVE",
"364 60 OFFCURVE",
"383 60 CURVE SMOOTH",
"400 60 OFFCURVE",
"408 68 OFFCURVE",
"408 85 CURVE SMOOTH"
);
},
{
closed = 1;
nodes = (
"118 393 OFFCURVE",
"109 402 OFFCURVE",
"92 402 CURVE SMOOTH",
"74 402 OFFCURVE",
"65 393 OFFCURVE",
"65 376 CURVE SMOOTH",
"65 358 OFFCURVE",
"74 349 OFFCURVE",
"93 349 CURVE SMOOTH",
"110 349 OFFCURVE",
"118 358 OFFCURVE",
"118 376 CURVE SMOOTH"
);
},
{
closed = 1;
nodes = (
"101 308 OFFCURVE",
"92 317 OFFCURVE",
"75 317 CURVE SMOOTH",
"57 317 OFFCURVE",
"48 308 OFFCURVE",
"48 291 CURVE SMOOTH",
"48 274 OFFCURVE",
"57 265 OFFCURVE",
"75 265 CURVE SMOOTH",
"92 265 OFFCURVE",
"101 274 OFFCURVE",
"101 291 CURVE SMOOTH"
);
},
{
closed = 1;
nodes = (
"323 86 OFFCURVE",
"314 95 OFFCURVE",
"297 95 CURVE SMOOTH",
"280 95 OFFCURVE",
"271 86 OFFCURVE",
"271 69 CURVE SMOOTH",
"271 51 OFFCURVE",
"280 42 OFFCURVE",
"297 42 CURVE SMOOTH",
"314 42 OFFCURVE",
"323 51 OFFCURVE",
"323 69 CURVE SMOOTH"
);
},
{
closed = 1;
nodes = (
"118 224 OFFCURVE",
"109 233 OFFCURVE",
"92 233 CURVE SMOOTH",
"74 233 OFFCURVE",
"65 224 OFFCURVE",
"65 206 CURVE SMOOTH",
"65 189 OFFCURVE",
"74 180 OFFCURVE",
"92 180 CURVE SMOOTH",
"109 180 OFFCURVE",
"118 189 OFFCURVE",
"118 206 CURVE SMOOTH"
);
},
{
closed = 1;
nodes = (
"239 104 OFFCURVE",
"230 112 OFFCURVE",
"212 112 CURVE SMOOTH",
"195 112 OFFCURVE",
"186 103 OFFCURVE",
"186 85 CURVE SMOOTH",
"186 68 OFFCURVE",
"195 60 OFFCURVE",
"212 60 CURVE SMOOTH",
"230 60 OFFCURVE",
"239 69 OFFCURVE",
"239 87 CURVE SMOOTH"
);
},
{
closed = 1;
nodes = (
"167 151 OFFCURVE",
"158 160 OFFCURVE",
"140 160 CURVE SMOOTH",
"123 160 OFFCURVE",
"114 151 OFFCURVE",
"114 133 CURVE SMOOTH",
"114 116 OFFCURVE",
"123 107 OFFCURVE",
"140 107 CURVE SMOOTH",
"158 107 OFFCURVE",
"167 116 OFFCURVE",
"167 133 CURVE SMOOTH"
);
}
);
width = 594;
},
{
layerId = "AD6F6DAA-2D58-4E1D-98AF-ACAAF76D7B9E";
name = "Bold Condensed";
paths = (
{
closed = 1;
nodes = (
"480 466 OFFCURVE",
"472 475 OFFCURVE",
"455 475 CURVE SMOOTH",
"437 475 OFFCURVE",
"428 466 OFFCURVE",
"428 448 CURVE SMOOTH",
"428 431 OFFCURVE",
"437 422 OFFCURVE",
"455 422 CURVE SMOOTH",
"472 422 OFFCURVE",
"480 431 OFFCURVE",
"480 448 CURVE SMOOTH"
);
},
{
closed = 1;
nodes = (
"408 514 OFFCURVE",
"400 523 OFFCURVE",
"383 523 CURVE SMOOTH",
"364 523 OFFCURVE",
"355 514 OFFCURVE",
"355 496 CURVE SMOOTH",
"355 479 OFFCURVE",
"364 470 OFFCURVE",
"383 470 CURVE SMOOTH",
"400 470 OFFCURVE",
"408 479 OFFCURVE",
"408 496 CURVE SMOOTH"
);
},
{
closed = 1;
nodes = (
"529 393 OFFCURVE",
"520 402 OFFCURVE",
"503 402 CURVE SMOOTH",
"485 402 OFFCURVE",
"476 393 OFFCURVE",
"476 376 CURVE SMOOTH",
"476 358 OFFCURVE",
"485 349 OFFCURVE",
"502 349 CURVE SMOOTH",
"520 349 OFFCURVE",
"529 358 OFFCURVE",
"529 376 CURVE SMOOTH"
);
},
{
closed = 1;
nodes = (
"546 308 OFFCURVE",
"538 317 OFFCURVE",
"521 317 CURVE SMOOTH",
"503 317 OFFCURVE",
"494 308 OFFCURVE",
"494 291 CURVE SMOOTH",
"494 274 OFFCURVE",
"503 265 OFFCURVE",
"521 265 CURVE SMOOTH",
"538 265 OFFCURVE",
"546 274 OFFCURVE",
"546 291 CURVE SMOOTH"
);
},
{
closed = 1;
nodes = (
"323 531 OFFCURVE",
"314 540 OFFCURVE",
"297 540 CURVE SMOOTH",
"280 540 OFFCURVE",
"271 531 OFFCURVE",
"271 514 CURVE SMOOTH",
"271 496 OFFCURVE",
"280 487 OFFCURVE",
"297 487 CURVE SMOOTH",
"314 487 OFFCURVE",
"323 496 OFFCURVE",
"323 514 CURVE SMOOTH"
);
},
{
closed = 1;
nodes = (
"239 514 OFFCURVE",
"230 523 OFFCURVE",
"212 523 CURVE SMOOTH",
"195 523 OFFCURVE",
"186 514 OFFCURVE",
"186 496 CURVE SMOOTH",
"186 479 OFFCURVE",
"195 470 OFFCURVE",
"212 470 CURVE SMOOTH",
"230 470 OFFCURVE",
"239 479 OFFCURVE",
"239 496 CURVE SMOOTH"
);
},
{
closed = 1;
nodes = (
"529 224 OFFCURVE",
"520 233 OFFCURVE",
"502 233 CURVE SMOOTH",
"485 233 OFFCURVE",
"476 224 OFFCURVE",
"476 206 CURVE SMOOTH",
"476 189 OFFCURVE",
"485 180 OFFCURVE",
"502 180 CURVE SMOOTH",
"520 180 OFFCURVE",
"529 189 OFFCURVE",
"529 206 CURVE SMOOTH"
);
},
{
closed = 1;
nodes = (
"167 466 OFFCURVE",
"158 475 OFFCURVE",
"140 475 CURVE SMOOTH",
"123 475 OFFCURVE",
"114 466 OFFCURVE",
"114 447 CURVE SMOOTH",
"114 430 OFFCURVE",
"123 422 OFFCURVE",
"140 422 CURVE SMOOTH",
"158 422 OFFCURVE",
"167 431 OFFCURVE",
"167 448 CURVE SMOOTH"
);
},
{
closed = 1;
nodes = (
"480 151 OFFCURVE",
"472 160 OFFCURVE",
"455 160 CURVE SMOOTH",
"437 160 OFFCURVE",
"428 151 OFFCURVE",
"428 133 CURVE SMOOTH",
"428 116 OFFCURVE",
"437 107 OFFCURVE",
"455 107 CURVE SMOOTH",
"472 107 OFFCURVE",
"480 116 OFFCURVE",
"480 133 CURVE SMOOTH"
);
},
{
closed = 1;
nodes = (
"408 103 OFFCURVE",
"400 112 OFFCURVE",
"383 112 CURVE SMOOTH",
"364 112 OFFCURVE",
"355 103 OFFCURVE",
"355 85 CURVE SMOOTH",
"355 68 OFFCURVE",
"364 60 OFFCURVE",
"383 60 CURVE SMOOTH",
"400 60 OFFCURVE",
"408 68 OFFCURVE",
"408 85 CURVE SMOOTH"
);
},
{
closed = 1;
nodes = (
"118 393 OFFCURVE",
"109 402 OFFCURVE",
"92 402 CURVE SMOOTH",
"74 402 OFFCURVE",
"65 393 OFFCURVE",
"65 376 CURVE SMOOTH",
"65 358 OFFCURVE",
"74 349 OFFCURVE",
"93 349 CURVE SMOOTH",
"110 349 OFFCURVE",
"118 358 OFFCURVE",
"118 376 CURVE SMOOTH"
);
},
{
closed = 1;
nodes = (
"101 308 OFFCURVE",
"92 317 OFFCURVE",
"75 317 CURVE SMOOTH",
"57 317 OFFCURVE",
"48 308 OFFCURVE",
"48 291 CURVE SMOOTH",
"48 274 OFFCURVE",
"57 265 OFFCURVE",
"75 265 CURVE SMOOTH",
"92 265 OFFCURVE",
"101 274 OFFCURVE",
"101 291 CURVE SMOOTH"
);
},
{
closed = 1;
nodes = (
"323 86 OFFCURVE",
"314 95 OFFCURVE",
"297 95 CURVE SMOOTH",
"280 95 OFFCURVE",
"271 86 OFFCURVE",
"271 69 CURVE SMOOTH",
"271 51 OFFCURVE",
"280 42 OFFCURVE",
"297 42 CURVE SMOOTH",
"314 42 OFFCURVE",
"323 51 OFFCURVE",
"323 69 CURVE SMOOTH"
);
},
{
closed = 1;
nodes = (
"118 224 OFFCURVE",
"109 233 OFFCURVE",
"92 233 CURVE SMOOTH",
"74 233 OFFCURVE",
"65 224 OFFCURVE",
"65 206 CURVE SMOOTH",
"65 189 OFFCURVE",
"74 180 OFFCURVE",
"92 180 CURVE SMOOTH",
"109 180 OFFCURVE",
"118 189 OFFCURVE",
"118 206 CURVE SMOOTH"
);
},
{
closed = 1;
nodes = (
"239 104 OFFCURVE",
"230 112 OFFCURVE",
"212 112 CURVE SMOOTH",
"195 112 OFFCURVE",
"186 103 OFFCURVE",
"186 85 CURVE SMOOTH",
"186 68 OFFCURVE",
"195 60 OFFCURVE",
"212 60 CURVE SMOOTH",
"230 60 OFFCURVE",
"239 69 OFFCURVE",
"239 87 CURVE SMOOTH"
);
},
{
closed = 1;
nodes = (
"167 151 OFFCURVE",
"158 160 OFFCURVE",
"140 160 CURVE SMOOTH",
"123 160 OFFCURVE",
"114 151 OFFCURVE",
"114 133 CURVE SMOOTH",
"114 116 OFFCURVE",
"123 107 OFFCURVE",
"140 107 CURVE SMOOTH",
"158 107 OFFCURVE",
"167 116 OFFCURVE",
"167 133 CURVE SMOOTH"
);
}
);
width = 594;
}
);
note = uni25CC;
unicode = 25CC;
},
{
glyphname = uni200C;
lastChange = "2015-12-09 19:01:53 +0000";
layers = (
{
layerId = "1F954AD7-537E-453D-9D07-161C7E95D0AA";
name = Light;
paths = (
{
closed = 1;
nodes = (
"-18 679 LINE",
"-18 -45 LINE",
"18 -45 LINE",
"18 679 LINE"
);
}
);
width = 0;
},
{
layerId = "0C04772A-F31D-4E86-90EF-3402D1EA39CA";
name = Regular;
paths = (
{
closed = 1;
nodes = (
"-18 679 LINE",
"-18 -45 LINE",
"18 -45 LINE",
"18 679 LINE"
);
}
);
width = 0;
},
{
layerId = "3FB868F8-5CDC-4A46-BA32-95627737ABE0";
name = Bold;
paths = (
{
closed = 1;
nodes = (
"-18 679 LINE",
"-18 -45 LINE",
"18 -45 LINE",
"18 679 LINE"
);
}
);
width = 0;
},
{
layerId = "206B8059-80C9-426C-870D-7DCC5D63B771";
name = SemiBold;
paths = (
{
closed = 1;
nodes = (
"-18 679 LINE",
"-18 -45 LINE",
"18 -45 LINE",
"18 679 LINE"
);
}
);
width = 0;
},
{
layerId = "BD31AAF9-E65B-4A30-ACC0-7018B0C27C60";
name = "Light Condensed";
paths = (
{
closed = 1;
nodes = (
"-18 679 LINE",
"-18 -45 LINE",
"18 -45 LINE",
"18 679 LINE"
);
}
);
width = 0;
},
{
layerId = "E193C3F6-581C-4255-BA06-39B2C55FEA85";
name = Condensed;
paths = (
{
closed = 1;
nodes = (
"-18 679 LINE",
"-18 -45 LINE",
"18 -45 LINE",
"18 679 LINE"
);
}
);
width = 0;
},
{
layerId = "4D9C3FAB-40EB-4CCF-A752-6D6FE9920038";
name = "SemiBold Condensed";
paths = (
{
closed = 1;
nodes = (
"-18 679 LINE",
"-18 -45 LINE",
"18 -45 LINE",
"18 679 LINE"
);
}
);
width = 0;
},
{
layerId = "AD6F6DAA-2D58-4E1D-98AF-ACAAF76D7B9E";
name = "Bold Condensed";
paths = (
{
closed = 1;
nodes = (
"-18 679 LINE",
"-18 -45 LINE",
"18 -45 LINE",
"18 679 LINE"
);
}
);
width = 0;
}
);
note = uni200C;
unicode = 200C;
},
{
glyphname = uni200D;
lastChange = "2015-12-09 19:02:57 +0000";
layers = (
{
layerId = "1F954AD7-537E-453D-9D07-161C7E95D0AA";
name = Light;
paths = (
{
closed = 1;
nodes = (
"18 533 LINE",
"83 467 LINE",
"107 491 LINE",
"23 573 LINE",
"107 655 LINE",
"83 679 LINE",
"0 596 LINE",
"-83 679 LINE",
"-107 655 LINE",
"-23 573 LINE",
"-107 491 LINE",
"-83 467 LINE",
"-18 533 LINE",
"-18 -45 LINE",
"18 -45 LINE"
);
}
);
width = 0;
},
{
layerId = "0C04772A-F31D-4E86-90EF-3402D1EA39CA";
name = Regular;
paths = (
{
closed = 1;
nodes = (
"18 533 LINE",
"83 467 LINE",
"107 491 LINE",
"23 573 LINE",
"107 655 LINE",
"83 679 LINE",
"0 596 LINE",
"-83 679 LINE",
"-107 655 LINE",
"-23 573 LINE",
"-107 491 LINE",
"-83 467 LINE",
"-18 533 LINE",
"-18 -45 LINE",
"18 -45 LINE"
);
}
);
width = 0;
},
{
layerId = "3FB868F8-5CDC-4A46-BA32-95627737ABE0";
name = Bold;
paths = (
{
closed = 1;
nodes = (
"18 533 LINE",
"83 467 LINE",
"107 491 LINE",
"23 573 LINE",
"107 655 LINE",
"83 679 LINE",
"0 596 LINE",
"-83 679 LINE",
"-107 655 LINE",
"-23 573 LINE",
"-107 491 LINE",
"-83 467 LINE",
"-18 533 LINE",
"-18 -45 LINE",
"18 -45 LINE"
);
}
);
width = 0;
},
{
layerId = "206B8059-80C9-426C-870D-7DCC5D63B771";
name = SemiBold;
paths = (
{
closed = 1;
nodes = (
"18 533 LINE",
"83 467 LINE",
"107 491 LINE",
"23 573 LINE",
"107 655 LINE",
"83 679 LINE",
"0 596 LINE",
"-83 679 LINE",
"-107 655 LINE",
"-23 573 LINE",
"-107 491 LINE",
"-83 467 LINE",
"-18 533 LINE",
"-18 -45 LINE",
"18 -45 LINE"
);
}
);
width = 0;
},
{
layerId = "BD31AAF9-E65B-4A30-ACC0-7018B0C27C60";
name = "Light Condensed";
paths = (
{
closed = 1;
nodes = (
"18 533 LINE",
"83 467 LINE",
"107 491 LINE",
"23 573 LINE",
"107 655 LINE",
"83 679 LINE",
"0 596 LINE",
"-83 679 LINE",
"-107 655 LINE",
"-23 573 LINE",
"-107 491 LINE",
"-83 467 LINE",
"-18 533 LINE",
"-18 -45 LINE",
"18 -45 LINE"
);
}
);
width = 0;
},
{
layerId = "E193C3F6-581C-4255-BA06-39B2C55FEA85";
name = Condensed;
paths = (
{
closed = 1;
nodes = (
"18 533 LINE",
"83 467 LINE",
"107 491 LINE",
"23 573 LINE",
"107 655 LINE",
"83 679 LINE",
"0 596 LINE",
"-83 679 LINE",
"-107 655 LINE",
"-23 573 LINE",
"-107 491 LINE",
"-83 467 LINE",
"-18 533 LINE",
"-18 -45 LINE",
"18 -45 LINE"
);
}
);
width = 0;
},
{
layerId = "4D9C3FAB-40EB-4CCF-A752-6D6FE9920038";
name = "SemiBold Condensed";
paths = (
{
closed = 1;
nodes = (
"18 533 LINE",
"83 467 LINE",
"107 491 LINE",
"23 573 LINE",
"107 655 LINE",
"83 679 LINE",
"0 596 LINE",
"-83 679 LINE",
"-107 655 LINE",
"-23 573 LINE",
"-107 491 LINE",
"-83 467 LINE",
"-18 533 LINE",
"-18 -45 LINE",
"18 -45 LINE"
);
}
);
width = 0;
},
{
layerId = "AD6F6DAA-2D58-4E1D-98AF-ACAAF76D7B9E";
name = "Bold Condensed";
paths = (
{
closed = 1;
nodes = (
"18 533 LINE",
"83 467 LINE",
"107 491 LINE",
"23 573 LINE",
"107 655 LINE",
"83 679 LINE",
"0 596 LINE",
"-83 679 LINE",
"-107 655 LINE",
"-23 573 LINE",
"-107 491 LINE",
"-83 467 LINE",
"-18 533 LINE",
"-18 -45 LINE",
"18 -45 LINE"
);
}
);
width = 0;
}
);
note = uni200D;
unicode = 200D;
},
{
glyphname = uni200E;
lastChange = "2015-12-09 19:04:13 +0000";
layers = (
{
layerId = "1F954AD7-537E-453D-9D07-161C7E95D0AA";
name = Light;
paths = (
{
closed = 1;
nodes = (
"104 679 LINE",
"80 655 LINE",
"147 592 LINE",
"-18 592 LINE",
"-18 -45 LINE",
"17 -45 LINE",
"17 557 LINE",
"147 557 LINE",
"80 494 LINE",
"104 470 LINE",
"210 574 LINE"
);
}
);
width = 0;
},
{
layerId = "0C04772A-F31D-4E86-90EF-3402D1EA39CA";
name = Regular;
paths = (
{
closed = 1;
nodes = (
"104 679 LINE",
"80 655 LINE",
"147 592 LINE",
"-18 592 LINE",
"-18 -45 LINE",
"17 -45 LINE",
"17 557 LINE",
"147 557 LINE",
"80 494 LINE",
"104 470 LINE",
"210 574 LINE"
);
}
);
width = 0;
},
{
layerId = "3FB868F8-5CDC-4A46-BA32-95627737ABE0";
name = Bold;
paths = (
{
closed = 1;
nodes = (
"104 679 LINE",
"80 655 LINE",
"147 592 LINE",
"-18 592 LINE",
"-18 -45 LINE",
"17 -45 LINE",
"17 557 LINE",
"147 557 LINE",
"80 494 LINE",
"104 470 LINE",
"210 574 LINE"
);
}
);
width = 0;
},
{
layerId = "206B8059-80C9-426C-870D-7DCC5D63B771";
name = SemiBold;
paths = (
{
closed = 1;
nodes = (
"104 679 LINE",
"80 655 LINE",
"147 592 LINE",
"-18 592 LINE",
"-18 -45 LINE",
"17 -45 LINE",
"17 557 LINE",
"147 557 LINE",
"80 494 LINE",
"104 470 LINE",
"210 574 LINE"
);
}
);
width = 0;
},
{
layerId = "BD31AAF9-E65B-4A30-ACC0-7018B0C27C60";
name = "Light Condensed";
paths = (
{
closed = 1;
nodes = (
"104 679 LINE",
"80 655 LINE",
"147 592 LINE",
"-18 592 LINE",
"-18 -45 LINE",
"17 -45 LINE",
"17 557 LINE",
"147 557 LINE",
"80 494 LINE",
"104 470 LINE",
"210 574 LINE"
);
}
);
width = 0;
},
{
layerId = "E193C3F6-581C-4255-BA06-39B2C55FEA85";
name = Condensed;
paths = (
{
closed = 1;
nodes = (
"104 679 LINE",
"80 655 LINE",
"147 592 LINE",
"-18 592 LINE",
"-18 -45 LINE",
"17 -45 LINE",
"17 557 LINE",
"147 557 LINE",
"80 494 LINE",
"104 470 LINE",
"210 574 LINE"
);
}
);
width = 0;
},
{
layerId = "AD6F6DAA-2D58-4E1D-98AF-ACAAF76D7B9E";
name = "Bold Condensed";
paths = (
{
closed = 1;
nodes = (
"104 679 LINE",
"80 655 LINE",
"147 592 LINE",
"-18 592 LINE",
"-18 -45 LINE",
"17 -45 LINE",
"17 557 LINE",
"147 557 LINE",
"80 494 LINE",
"104 470 LINE",
"210 574 LINE"
);
}
);
width = 0;
},
{
layerId = "4D9C3FAB-40EB-4CCF-A752-6D6FE9920038";
name = "SemiBold Condensed";
paths = (
{
closed = 1;
nodes = (
"104 679 LINE",
"80 655 LINE",
"147 592 LINE",
"-18 592 LINE",
"-18 -45 LINE",
"17 -45 LINE",
"17 557 LINE",
"147 557 LINE",
"80 494 LINE",
"104 470 LINE",
"210 574 LINE"
);
}
);
width = 0;
}
);
note = uni200E;
unicode = 200E;
},
{
glyphname = uni200F;
lastChange = "2015-12-09 19:05:34 +0000";
layers = (
{
layerId = "1F954AD7-537E-453D-9D07-161C7E95D0AA";
name = Light;
paths = (
{
closed = 1;
nodes = (
"17 592 LINE",
"-147 592 LINE",
"-81 655 LINE",
"-104 679 LINE",
"-210 574 LINE",
"-104 470 LINE",
"-81 494 LINE",
"-147 557 LINE",
"-18 557 LINE",
"-18 -45 LINE",
"17 -45 LINE"
);
}
);
width = 0;
},
{
layerId = "0C04772A-F31D-4E86-90EF-3402D1EA39CA";
name = Regular;
paths = (
{
closed = 1;
nodes = (
"17 592 LINE",
"-147 592 LINE",
"-81 655 LINE",
"-104 679 LINE",
"-210 574 LINE",
"-104 470 LINE",
"-81 494 LINE",
"-147 557 LINE",
"-18 557 LINE",
"-18 -45 LINE",
"17 -45 LINE"
);
}
);
width = 0;
},
{
layerId = "3FB868F8-5CDC-4A46-BA32-95627737ABE0";
name = Bold;
paths = (
{
closed = 1;
nodes = (
"17 592 LINE",
"-147 592 LINE",
"-81 655 LINE",
"-104 679 LINE",
"-210 574 LINE",
"-104 470 LINE",
"-81 494 LINE",
"-147 557 LINE",
"-18 557 LINE",
"-18 -45 LINE",
"17 -45 LINE"
);
}
);
width = 0;
},
{
layerId = "206B8059-80C9-426C-870D-7DCC5D63B771";
name = SemiBold;
paths = (
{
closed = 1;
nodes = (
"17 592 LINE",
"-147 592 LINE",
"-81 655 LINE",
"-104 679 LINE",
"-210 574 LINE",
"-104 470 LINE",
"-81 494 LINE",
"-147 557 LINE",
"-18 557 LINE",
"-18 -45 LINE",
"17 -45 LINE"
);
}
);
width = 0;
},
{
layerId = "BD31AAF9-E65B-4A30-ACC0-7018B0C27C60";
name = "Light Condensed";
paths = (
{
closed = 1;
nodes = (
"17 592 LINE",
"-147 592 LINE",
"-81 655 LINE",
"-104 679 LINE",
"-210 574 LINE",
"-104 470 LINE",
"-81 494 LINE",
"-147 557 LINE",
"-18 557 LINE",
"-18 -45 LINE",
"17 -45 LINE"
);
}
);
width = 0;
},
{
layerId = "E193C3F6-581C-4255-BA06-39B2C55FEA85";
name = Condensed;
paths = (
{
closed = 1;
nodes = (
"17 592 LINE",
"-147 592 LINE",
"-81 655 LINE",
"-104 679 LINE",
"-210 574 LINE",
"-104 470 LINE",
"-81 494 LINE",
"-147 557 LINE",
"-18 557 LINE",
"-18 -45 LINE",
"17 -45 LINE"
);
}
);
width = 0;
},
{
layerId = "AD6F6DAA-2D58-4E1D-98AF-ACAAF76D7B9E";
name = "Bold Condensed";
paths = (
{
closed = 1;
nodes = (
"17 592 LINE",
"-147 592 LINE",
"-81 655 LINE",
"-104 679 LINE",
"-210 574 LINE",
"-104 470 LINE",
"-81 494 LINE",
"-147 557 LINE",
"-18 557 LINE",
"-18 -45 LINE",
"17 -45 LINE"
);
}
);
width = 0;
},
{
layerId = "4D9C3FAB-40EB-4CCF-A752-6D6FE9920038";
name = "SemiBold Condensed";
paths = (
{
closed = 1;
nodes = (
"17 592 LINE",
"-147 592 LINE",
"-81 655 LINE",
"-104 679 LINE",
"-210 574 LINE",
"-104 470 LINE",
"-81 494 LINE",
"-147 557 LINE",
"-18 557 LINE",
"-18 -45 LINE",
"17 -45 LINE"
);
}
);
width = 0;
}
);
note = uni200F;
unicode = 200F;
},
{
glyphname = "vavvav-hb";
lastChange = "2015-12-02 12:01:14 +0000";
layers = (
{
anchors = (
{
name = bottom;
position = "{103, 0}";
},
{
name = bottomleft;
position = "{0, 0}";
},
{
name = caret_1;
position = "{206, 0}";
},
{
name = center;
position = "{12, 296}";
},
{
name = top;
position = "{103, 528}";
},
{
name = topleft;
position = "{98, 528}";
}
);
layerId = "1F954AD7-537E-453D-9D07-161C7E95D0AA";
name = Light;
paths = (
{
closed = 1;
nodes = (
"322 0 LINE",
"322 584 LINE",
"296 584 LINE",
"296 0 LINE"
);
},
{
closed = 1;
nodes = (
"116 0 LINE",
"116 584 LINE",
"90 584 LINE",
"90 0 LINE"
);
}
);
width = 412;
},
{
anchors = (
{
name = bottom;
position = "{140, 0}";
},
{
name = bottomleft;
position = "{0, 0}";
},
{
name = caret_1;
position = "{280, 0}";
},
{
name = center;
position = "{-0, 300}";
},
{
name = top;
position = "{140, 536}";
},
{
name = topleft;
position = "{122, 536}";
}
);
layerId = "0C04772A-F31D-4E86-90EF-3402D1EA39CA";
name = Regular;
paths = (
{
closed = 1;
nodes = (
"465 0 LINE",
"465 592 LINE",
"375 592 LINE",
"375 0 LINE"
);
},
{
closed = 1;
nodes = (
"185 0 LINE",
"185 592 LINE",
"95 592 LINE",
"95 0 LINE"
);
}
);
width = 560;
},
{
anchors = (
{
name = bottom;
position = "{145, 0}";
},
{
name = bottomleft;
position = "{0, 0}";
},
{
name = caret_1;
position = "{280, 0}";
},
{
name = center;
position = "{-14, 303}";
},
{
name = top;
position = "{145, 546}";
},
{
name = topleft;
position = "{103, 546}";
}
);
layerId = "206B8059-80C9-426C-870D-7DCC5D63B771";
name = SemiBold;
paths = (
{
closed = 1;
nodes = (
"510 0 LINE",
"510 602 LINE",
"360 602 LINE",
"360 0 LINE"
);
},
{
closed = 1;
nodes = (
"220 0 LINE",
"220 602 LINE",
"70 602 LINE",
"70 0 LINE"
);
}
);
width = 580;
},
{
anchors = (
{
name = bottom;
position = "{171, 0}";
},
{
name = bottomleft;
position = "{20, 0}";
},
{
name = caret_1;
position = "{280, 0}";
},
{
name = center;
position = "{-23, 306}";
},
{
name = top;
position = "{171, 553}";
},
{
name = topleft;
position = "{119, 553}";
}
);
layerId = "3FB868F8-5CDC-4A46-BA32-95627737ABE0";
name = Bold;
paths = (
{
closed = 1;
nodes = (
"609 0 LINE",
"609 609 LINE",
"417 609 LINE",
"417 0 LINE"
);
},
{
closed = 1;
nodes = (
"267 0 LINE",
"267 609 LINE",
"75 609 LINE",
"75 0 LINE"
);
}
);
width = 684;
},
{
anchors = (
{
name = bottom;
position = "{103, 0}";
},
{
name = bottomleft;
position = "{0, 0}";
},
{
name = caret_1;
position = "{206, 0}";
},
{
name = center;
position = "{12, 296}";
},
{
name = top;
position = "{103, 528}";
},
{
name = topleft;
position = "{98, 528}";
}
);
layerId = "BD31AAF9-E65B-4A30-ACC0-7018B0C27C60";
name = "Light Condensed";
paths = (
{
closed = 1;
nodes = (
"322 0 LINE",
"322 584 LINE",
"296 584 LINE",
"296 0 LINE"
);
},
{
closed = 1;
nodes = (
"116 0 LINE",
"116 584 LINE",
"90 584 LINE",
"90 0 LINE"
);
}
);
width = 412;
},
{
anchors = (
{
name = bottom;
position = "{140, 0}";
},
{
name = bottomleft;
position = "{0, 0}";
},
{
name = caret_1;
position = "{280, 0}";
},
{
name = center;
position = "{-0, 300}";
},
{
name = top;
position = "{140, 536}";
},
{
name = topleft;
position = "{122, 536}";
}
);
layerId = "E193C3F6-581C-4255-BA06-39B2C55FEA85";
name = Condensed;
paths = (
{
closed = 1;
nodes = (
"465 0 LINE",
"465 592 LINE",
"375 592 LINE",
"375 0 LINE"
);
},
{
closed = 1;
nodes = (
"185 0 LINE",
"185 592 LINE",
"95 592 LINE",
"95 0 LINE"
);
}
);
width = 560;
},
{
anchors = (
{
name = bottom;
position = "{170, 0}";
},
{
name = bottomleft;
position = "{25, 0}";
},
{
name = caret_1;
position = "{305, 0}";
},
{
name = center;
position = "{11, 303}";
},
{
name = top;
position = "{170, 546}";
},
{
name = topleft;
position = "{128, 546}";
}
);
layerId = "4D9C3FAB-40EB-4CCF-A752-6D6FE9920038";
name = "SemiBold Condensed";
paths = (
{
closed = 1;
nodes = (
"535 0 LINE",
"535 602 LINE",
"385 602 LINE",
"385 0 LINE"
);
},
{
closed = 1;
nodes = (
"245 0 LINE",
"245 602 LINE",
"95 602 LINE",
"95 0 LINE"
);
}
);
width = 630;
},
{
anchors = (
{
name = bottom;
position = "{171, 0}";
},
{
name = bottomleft;
position = "{20, 0}";
},
{
name = caret_1;
position = "{280, 0}";
},
{
name = center;
position = "{-23, 306}";
},
{
name = top;
position = "{171, 553}";
},
{
name = topleft;
position = "{119, 553}";
}
);
layerId = "AD6F6DAA-2D58-4E1D-98AF-ACAAF76D7B9E";
name = "Bold Condensed";
paths = (
{
closed = 1;
nodes = (
"609 0 LINE",
"609 609 LINE",
"417 609 LINE",
"417 0 LINE"
);
},
{
closed = 1;
nodes = (
"267 0 LINE",
"267 609 LINE",
"75 609 LINE",
"75 0 LINE"
);
}
);
width = 684;
}
);
note = vavvav;
unicode = 05F0;
},
{
glyphname = "aleflamed-hb";
lastChange = "2015-12-08 17:57:54 +0000";
layers = (
{
anchors = (
{
name = caret_1;
position = "{227, 0}";
}
);
layerId = "1F954AD7-537E-453D-9D07-161C7E95D0AA";
name = Light;
paths = (
{
closed = 1;
nodes = (
"494 0 LINE",
"98 584 LINE",
"66 584 LINE",
"463 0 LINE"
);
},
{
closed = 1;
nodes = (
"94 557 LINE",
"94 584 LINE",
"10 584 LINE",
"10 557 LINE"
);
},
{
closed = 1;
nodes = (
"36 569 LINE",
"36 760 LINE",
"10 760 LINE",
"10 569 LINE"
);
},
{
closed = 1;
nodes = (
"428 247 OFFCURVE",
"492 316 OFFCURVE",
"492 428 CURVE SMOOTH",
"492 584 LINE",
"466 584 LINE",
"466 436 LINE SMOOTH",
"466 333 OFFCURVE",
"413 264 OFFCURVE",
"345 221 CURVE",
"353 199 LINE"
);
}
);
width = 539;
},
{
anchors = (
{
name = caret_1;
position = "{299, 0}";
}
);
layerId = "0C04772A-F31D-4E86-90EF-3402D1EA39CA";
name = Regular;
paths = (
{
closed = 1;
nodes = (
"553 0 LINE",
"153 592 LINE",
"47 592 LINE",
"447 0 LINE"
);
},
{
closed = 1;
nodes = (
"138 509 LINE",
"138 592 LINE",
"10 592 LINE",
"10 509 LINE"
);
},
{
closed = 1;
nodes = (
"100 546 LINE",
"100 760 LINE",
"10 760 LINE",
"10 546 LINE"
);
},
{
closed = 1;
nodes = (
"481 218 OFFCURVE",
"539 301 OFFCURVE",
"539 446 CURVE SMOOTH",
"539 592 LINE",
"449 592 LINE",
"449 440 LINE SMOOTH",
"449 336 OFFCURVE",
"417 274 OFFCURVE",
"352 250 CURVE",
"382 184 LINE"
);
}
);
width = 593;
},
{
anchors = (
{
name = caret_1;
position = "{334, 0}";
}
);
layerId = "206B8059-80C9-426C-870D-7DCC5D63B771";
name = SemiBold;
paths = (
{
closed = 1;
nodes = (
"657 0 LINE",
"227 602 LINE",
"55 602 LINE",
"485 0 LINE"
);
},
{
closed = 1;
nodes = (
"193 476 LINE",
"193 602 LINE",
"5 602 LINE",
"5 476 LINE"
);
},
{
closed = 1;
nodes = (
"155 512 LINE",
"155 760 LINE",
"5 760 LINE",
"5 512 LINE"
);
},
{
closed = 1;
nodes = (
"557 175 OFFCURVE",
"625 293 OFFCURVE",
"625 436 CURVE SMOOTH",
"625 602 LINE",
"475 602 LINE",
"475 436 LINE SMOOTH",
"475 332 OFFCURVE",
"446 267 OFFCURVE",
"370 267 CURVE",
"420 175 LINE"
);
}
);
width = 692;
},
{
anchors = (
{
name = caret_1;
position = "{371, 0}";
}
);
background = {
paths = (
{
closed = 1;
nodes = (
"719 0 LINE",
"514 256 LINE",
"514 255 LINE",
"266 609 LINE",
"46 609 LINE",
"499 0 LINE"
);
},
{
closed = 1;
nodes = (
"240 451 LINE",
"240 609 LINE",
"10 609 LINE",
"10 451 LINE"
);
},
{
closed = 1;
nodes = (
"202 487 LINE",
"202 767 LINE",
"10 767 LINE",
"10 487 LINE"
);
},
{
closed = 1;
nodes = (
"578 152 OFFCURVE",
"672 263 OFFCURVE",
"672 436 CURVE SMOOTH",
"672 609 LINE",
"480 609 LINE",
"480 436 LINE SMOOTH",
"480 312 OFFCURVE",
"440 267 OFFCURVE",
"362 288 CURVE",
"432 159 LINE"
);
}
);
};
layerId = "3FB868F8-5CDC-4A46-BA32-95627737ABE0";
name = Bold;
paths = (
{
closed = 1;
nodes = (
"717 0 LINE",
"290 609 LINE",
"74 609 LINE",
"502 0 LINE"
);
},
{
closed = 1;
nodes = (
"240 451 LINE",
"240 609 LINE",
"10 609 LINE",
"10 451 LINE"
);
},
{
closed = 1;
nodes = (
"202 487 LINE",
"202 760 LINE",
"10 760 LINE",
"10 487 LINE"
);
},
{
closed = 1;
nodes = (
"609 215 OFFCURVE",
"688 310 OFFCURVE",
"688 434 CURVE SMOOTH",
"688 609 LINE",
"499 609 LINE",
"499 447 LINE SMOOTH",
"499 371 OFFCURVE",
"482 338 OFFCURVE",
"418 338 CURVE",
"458 215 LINE"
);
}
);
width = 742;
},
{
anchors = (
{
name = caret_1;
position = "{227, 0}";
}
);
layerId = "BD31AAF9-E65B-4A30-ACC0-7018B0C27C60";
name = "Light Condensed";
paths = (
{
closed = 1;
nodes = (
"346 0 LINE",
"80 584 LINE",
"54 584 LINE",
"321 0 LINE"
);
},
{
closed = 1;
nodes = (
"75 555 LINE",
"75 584 LINE",
"10 584 LINE",
"10 555 LINE"
);
},
{
closed = 1;
nodes = (
"36 567 LINE",
"36 760 LINE",
"10 760 LINE",
"10 567 LINE"
);
},
{
closed = 1;
nodes = (
"300 254 OFFCURVE",
"344 310 OFFCURVE",
"344 408 CURVE SMOOTH",
"344 584 LINE",
"318 584 LINE",
"318 413 LINE SMOOTH",
"318 324 OFFCURVE",
"283 276 OFFCURVE",
"224 233 CURVE",
"232 207 LINE"
);
}
);
width = 396;
},
{
anchors = (
{
name = caret_1;
position = "{221, 0}";
}
);
layerId = "E193C3F6-581C-4255-BA06-39B2C55FEA85";
name = Condensed;
paths = (
{
closed = 1;
nodes = (
"413 0 LINE",
"144 592 LINE",
"45 592 LINE",
"314 0 LINE"
);
},
{
closed = 1;
nodes = (
"137 511 LINE",
"137 592 LINE",
"15 592 LINE",
"15 511 LINE"
);
},
{
closed = 1;
nodes = (
"99 546 LINE",
"99 760 LINE",
"15 760 LINE",
"15 546 LINE"
);
},
{
closed = 1;
nodes = (
"349 222 OFFCURVE",
"400 310 OFFCURVE",
"400 446 CURVE SMOOTH",
"400 592 LINE",
"316 592 LINE",
"316 440 LINE SMOOTH",
"316 337 OFFCURVE",
"285 275 OFFCURVE",
"219 250 CURVE",
"248 186 LINE"
);
}
);
width = 443;
},
{
anchors = (
{
name = caret_1;
position = "{257, 0}";
}
);
layerId = "4D9C3FAB-40EB-4CCF-A752-6D6FE9920038";
name = "SemiBold Condensed";
paths = (
{
closed = 1;
nodes = (
"489 0 LINE",
"204 602 LINE",
"57 602 LINE",
"342 0 LINE"
);
},
{
closed = 1;
nodes = (
"185 482 LINE",
"185 602 LINE",
"10 602 LINE",
"10 482 LINE"
);
},
{
closed = 1;
nodes = (
"147 518 LINE",
"147 760 LINE",
"10 760 LINE",
"10 518 LINE"
);
},
{
closed = 1;
nodes = (
"409 211 OFFCURVE",
"465 309 OFFCURVE",
"465 469 CURVE SMOOTH",
"465 602 LINE",
"331 602 LINE",
"331 476 LINE SMOOTH",
"331 387 OFFCURVE",
"333 366 OFFCURVE",
"286 322 CURVE",
"291 208 LINE"
);
}
);
width = 514;
},
{
anchors = (
{
name = caret_1;
position = "{293, 0}";
}
);
background = {
paths = (
{
closed = 1;
nodes = (
"719 0 LINE",
"514 256 LINE",
"514 255 LINE",
"266 609 LINE",
"46 609 LINE",
"499 0 LINE"
);
},
{
closed = 1;
nodes = (
"240 451 LINE",
"240 609 LINE",
"10 609 LINE",
"10 451 LINE"
);
},
{
closed = 1;
nodes = (
"202 487 LINE",
"202 767 LINE",
"10 767 LINE",
"10 487 LINE"
);
},
{
closed = 1;
nodes = (
"578 152 OFFCURVE",
"672 263 OFFCURVE",
"672 436 CURVE SMOOTH",
"672 609 LINE",
"480 609 LINE",
"480 436 LINE SMOOTH",
"480 312 OFFCURVE",
"440 267 OFFCURVE",
"362 288 CURVE",
"432 159 LINE"
);
}
);
};
layerId = "AD6F6DAA-2D58-4E1D-98AF-ACAAF76D7B9E";
name = "Bold Condensed";
paths = (
{
closed = 1;
nodes = (
"561 0 LINE",
"255 609 LINE",
"86 609 LINE",
"392 0 LINE"
);
},
{
closed = 1;
nodes = (
"240 463 LINE",
"240 609 LINE",
"10 609 LINE",
"10 463 LINE"
);
},
{
closed = 1;
nodes = (
"180 487 LINE",
"180 760 LINE",
"10 760 LINE",
"10 487 LINE"
);
},
{
closed = 1;
nodes = (
"481 253 OFFCURVE",
"542 328 OFFCURVE",
"542 456 CURVE SMOOTH",
"542 609 LINE",
"381 609 LINE",
"381 469 LINE SMOOTH",
"381 379 OFFCURVE",
"380 353 OFFCURVE",
"322 349 CURVE",
"352 249 LINE"
);
}
);
width = 586;
}
);
note = aleflamed;
unicode = FB4F;
},
{
glyphname = "alef-hb";
lastChange = "2015-12-03 05:42:20 +0000";
layers = (
{
anchors = (
{
name = bottom;
position = "{259, 0}";
},
{
name = bottomleft;
position = "{58, 0}";
},
{
name = center;
position = "{197, 127}";
},
{
name = top;
position = "{265, 528}";
},
{
name = topleft;
position = "{49, 528}";
}
);
layerId = "1F954AD7-537E-453D-9D07-161C7E95D0AA";
name = Light;
paths = (
{
closed = 1;
nodes = (
"477 0 LINE",
"337 212 LINE",
"81 584 LINE",
"49 584 LINE",
"174 403 LINE",
"446 0 LINE"
);
},
{
closed = 1;
nodes = (
"71 0 LINE",
"71 179 LINE SMOOTH",
"71 282 OFFCURVE",
"124 351 OFFCURVE",
"192 394 CURVE",
"184 416 LINE",
"109 368 OFFCURVE",
"45 299 OFFCURVE",
"45 187 CURVE SMOOTH",
"45 0 LINE"
);
},
{
closed = 1;
nodes = (
"411 247 OFFCURVE",
"475 316 OFFCURVE",
"475 428 CURVE SMOOTH",
"475 584 LINE",
"449 584 LINE",
"449 436 LINE SMOOTH",
"449 333 OFFCURVE",
"396 264 OFFCURVE",
"328 221 CURVE",
"336 199 LINE"
);
}
);
width = 522;
},
{
anchors = (
{
name = bottom;
position = "{288, 0}";
},
{
name = bottomleft;
position = "{91, 0}";
},
{
name = center;
position = "{240, 158}";
},
{
name = top;
position = "{294, 536}";
},
{
name = topleft;
position = "{37, 536}";
}
);
background = {
paths = (
{
closed = 1;
nodes = (
"666 -186 LINE",
"66 746 LINE",
"-9 698 LINE",
"591 -235 LINE"
);
},
{
closed = 1;
nodes = (
"532 0 LINE",
"532 606 LINE",
"442 606 LINE",
"442 0 LINE"
);
},
{
closed = 1;
nodes = (
"136 0 LINE",
"136 606 LINE",
"46 606 LINE",
"46 0 LINE"
);
}
);
};
layerId = "0C04772A-F31D-4E86-90EF-3402D1EA39CA";
name = Regular;
paths = (
{
closed = 1;
nodes = (
"546 0 LINE",
"387 234 LINE",
"146 592 LINE",
"40 592 LINE",
"183 382 LINE",
"440 0 LINE"
);
},
{
closed = 1;
nodes = (
"136 0 LINE",
"136 164 LINE SMOOTH",
"136 270 OFFCURVE",
"169 332 OFFCURVE",
"236 356 CURVE",
"209 423 LINE",
"107 390 OFFCURVE",
"46 307 OFFCURVE",
"46 158 CURVE SMOOTH",
"46 0 LINE"
);
},
{
closed = 1;
nodes = (
"474 218 OFFCURVE",
"532 301 OFFCURVE",
"532 446 CURVE SMOOTH",
"532 592 LINE",
"442 592 LINE",
"442 440 LINE SMOOTH",
"442 336 OFFCURVE",
"410 274 OFFCURVE",
"345 250 CURVE",
"375 184 LINE"
);
}
);
width = 586;
},
{
anchors = (
{
name = bottom;
position = "{337, 0}";
},
{
name = bottomleft;
position = "{125, 0}";
},
{
name = center;
position = "{283, 131}";
},
{
name = top;
position = "{331, 546}";
},
{
name = topleft;
position = "{35, 546}";
}
);
background = {
paths = (
{
closed = 0;
nodes = (
"314 133 LINE",
"468 148 OFFCURVE",
"606 241 OFFCURVE",
"606 428 CURVE SMOOTH"
);
},
{
closed = 0;
nodes = (
"463 427 LINE SMOOTH",
"463 327 OFFCURVE",
"405 254 OFFCURVE",
"314 246 CURVE"
);
}
);
};
layerId = "206B8059-80C9-426C-870D-7DCC5D63B771";
name = SemiBold;
paths = (
{
closed = 1;
nodes = (
"637 0 LINE",
"451 246 LINE",
"207 602 LINE",
"35 602 LINE",
"205 370 LINE",
"465 0 LINE"
);
},
{
closed = 1;
nodes = (
"209 0 LINE",
"209 174 LINE SMOOTH",
"209 283 OFFCURVE",
"246 348 OFFCURVE",
"316 348 CURVE",
"271 442 LINE",
"130 442 OFFCURVE",
"59 319 OFFCURVE",
"59 168 CURVE SMOOTH",
"59 0 LINE"
);
},
{
closed = 1;
nodes = (
"537 175 OFFCURVE",
"605 298 OFFCURVE",
"605 446 CURVE SMOOTH",
"605 602 LINE",
"455 602 LINE",
"455 440 LINE SMOOTH",
"455 332 OFFCURVE",
"426 267 OFFCURVE",
"350 267 CURVE",
"400 175 LINE"
);
}
);
width = 672;
},
{
anchors = (
{
name = bottom;
position = "{346, 0}";
},
{
name = bottomleft;
position = "{120, 0}";
},
{
name = center;
position = "{319, 80}";
},
{
name = top;
position = "{346, 553}";
},
{
name = topleft;
position = "{25, 553}";
}
);
background = {
paths = (
{
closed = 1;
nodes = (
"526 179 OFFCURVE",
"637 247 OFFCURVE",
"637 413 CURVE SMOOTH",
"637 609 LINE",
"445 609 LINE",
"445 398 LINE SMOOTH",
"445 331 OFFCURVE",
"430 284 OFFCURVE",
"357 284 CURVE",
"397 179 LINE"
);
},
{
closed = 1;
nodes = (
"160 430 OFFCURVE",
"49 362 OFFCURVE",
"49 196 CURVE SMOOTH",
"49 0 LINE",
"241 0 LINE",
"241 211 LINE SMOOTH",
"241 278 OFFCURVE",
"256 325 OFFCURVE",
"329 325 CURVE",
"289 430 LINE"
);
},
{
closed = 1;
nodes = (
"684 0 LINE",
"479 256 LINE",
"231 609 LINE",
"10 609 LINE",
"220 346 LINE",
"464 0 LINE"
);
}
);
};
layerId = "3FB868F8-5CDC-4A46-BA32-95627737ABE0";
name = Bold;
paths = (
{
closed = 1;
nodes = (
"668 0 LINE",
"468 274 LINE",
"241 609 LINE",
"25 609 LINE",
"225 349 LINE",
"453 0 LINE"
);
},
{
closed = 1;
nodes = (
"239 0 LINE",
"239 172 LINE SMOOTH",
"239 248 OFFCURVE",
"256 281 OFFCURVE",
"320 281 CURVE",
"280 404 LINE",
"129 404 OFFCURVE",
"50 309 OFFCURVE",
"50 185 CURVE SMOOTH",
"50 0 LINE"
);
},
{
closed = 1;
nodes = (
"560 215 OFFCURVE",
"639 310 OFFCURVE",
"639 434 CURVE SMOOTH",
"639 609 LINE",
"450 609 LINE",
"450 447 LINE SMOOTH",
"450 371 OFFCURVE",
"433 338 OFFCURVE",
"369 338 CURVE",
"409 215 LINE"
);
}
);
width = 693;
},
{
anchors = (
{
name = bottom;
position = "{194, 0}";
},
{
name = bottomleft;
position = "{58, 0}";
},
{
name = center;
position = "{159, 127}";
},
{
name = top;
position = "{200, 528}";
},
{
name = topleft;
position = "{49, 528}";
}
);
background = {
paths = (
{
closed = 0;
nodes = (
"75 584 LINE",
"342 0 LINE"
);
}
);
};
layerId = "BD31AAF9-E65B-4A30-ACC0-7018B0C27C60";
name = "Light Condensed";
paths = (
{
closed = 1;
nodes = (
"342 0 LINE",
"237 230 LINE",
"76 584 LINE",
"49 583 LINE",
"142 380 LINE",
"316 -1 LINE"
);
},
{
closed = 1;
nodes = (
"71 0 LINE",
"71 189 LINE SMOOTH",
"71 296 OFFCURVE",
"109 344 OFFCURVE",
"163 379 CURVE",
"154 400 LINE",
"82 364 OFFCURVE",
"45 293 OFFCURVE",
"45 197 CURVE SMOOTH",
"45 0 LINE"
);
},
{
closed = 1;
nodes = (
"295 254 OFFCURVE",
"339 310 OFFCURVE",
"339 408 CURVE SMOOTH",
"339 584 LINE",
"313 584 LINE",
"313 413 LINE SMOOTH",
"313 324 OFFCURVE",
"278 276 OFFCURVE",
"219 233 CURVE",
"227 207 LINE"
);
}
);
width = 386;
},
{
anchors = (
{
name = bottom;
position = "{206, 0}";
},
{
name = bottomleft;
position = "{13, 0}";
},
{
name = center;
position = "{183, 88}";
},
{
name = top;
position = "{206, 536}";
},
{
name = topleft;
position = "{30, 536}";
}
);
background = {
paths = (
{
closed = 1;
nodes = (
"376 0 LINE",
"376 404 LINE SMOOTH",
"376 534 OFFCURVE",
"314 592 OFFCURVE",
"178 592 CURVE SMOOTH",
"35 592 LINE",
"35 511 LINE",
"172 511 LINE SMOOTH",
"254 511 OFFCURVE",
"292 472 OFFCURVE",
"292 386 CURVE SMOOTH",
"292 0 LINE"
);
},
{
closed = 1;
nodes = (
"119 0 LINE",
"119 592 LINE",
"35 592 LINE",
"35 0 LINE"
);
}
);
};
layerId = "E193C3F6-581C-4255-BA06-39B2C55FEA85";
name = Condensed;
paths = (
{
closed = 1;
nodes = (
"381 0 LINE",
"271 248 LINE",
"119 592 LINE",
"30 592 LINE",
"136 353 LINE",
"292 0 LINE"
);
},
{
closed = 1;
nodes = (
"120 0 LINE",
"120 164 LINE SMOOTH",
"120 269 OFFCURVE",
"152 331 OFFCURVE",
"220 356 CURVE",
"191 421 LINE",
"86 386 OFFCURVE",
"36 297 OFFCURVE",
"36 158 CURVE SMOOTH",
"36 0 LINE"
);
},
{
closed = 1;
nodes = (
"326 222 OFFCURVE",
"377 310 OFFCURVE",
"377 446 CURVE SMOOTH",
"377 592 LINE",
"293 592 LINE",
"293 440 LINE SMOOTH",
"293 337 OFFCURVE",
"262 275 OFFCURVE",
"196 250 CURVE",
"225 186 LINE"
);
}
);
width = 411;
},
{
anchors = (
{
name = bottom;
position = "{232, 0}";
},
{
name = bottomleft;
position = "{120, 0}";
},
{
name = center;
position = "{231, 53}";
},
{
name = top;
position = "{232, 546}";
},
{
name = topleft;
position = "{30, 546}";
}
);
background = {
paths = (
{
closed = 0;
nodes = (
"138 133 LINE",
"292 148 OFFCURVE",
"430 241 OFFCURVE",
"430 428 CURVE SMOOTH"
);
},
{
closed = 0;
nodes = (
"287 427 LINE SMOOTH",
"287 327 OFFCURVE",
"229 254 OFFCURVE",
"138 246 CURVE"
);
}
);
};
layerId = "4D9C3FAB-40EB-4CCF-A752-6D6FE9920038";
name = "SemiBold Condensed";
paths = (
{
closed = 1;
nodes = (
"457 0 LINE",
"311 294 LINE",
"172 602 LINE",
"25 602 LINE",
"158 336 LINE",
"310 0 LINE"
);
},
{
closed = 1;
nodes = (
"173 0 LINE",
"173 146 LINE SMOOTH",
"173 235 OFFCURVE",
"171 263 OFFCURVE",
"218 307 CURVE",
"213 407 LINE",
"95 404 OFFCURVE",
"39 313 OFFCURVE",
"39 153 CURVE SMOOTH",
"39 0 LINE"
);
},
{
closed = 1;
nodes = (
"377 218 OFFCURVE",
"433 309 OFFCURVE",
"433 469 CURVE SMOOTH",
"433 602 LINE",
"299 602 LINE",
"299 476 LINE SMOOTH",
"299 387 OFFCURVE",
"301 359 OFFCURVE",
"254 315 CURVE",
"259 215 LINE"
);
}
);
width = 482;
},
{
anchors = (
{
name = bottom;
position = "{257, 0}";
},
{
name = bottomleft;
position = "{24, 0}";
},
{
name = center;
position = "{238, 60}";
},
{
name = top;
position = "{249, 553}";
},
{
name = topleft;
position = "{20, 553}";
}
);
background = {
paths = (
{
closed = 1;
nodes = (
"430 179 OFFCURVE",
"541 247 OFFCURVE",
"541 413 CURVE SMOOTH",
"541 609 LINE",
"349 609 LINE",
"349 398 LINE SMOOTH",
"349 331 OFFCURVE",
"334 284 OFFCURVE",
"261 284 CURVE",
"301 179 LINE"
);
},
{
closed = 1;
nodes = (
"64 430 OFFCURVE",
"-47 362 OFFCURVE",
"-47 196 CURVE SMOOTH",
"-47 0 LINE",
"145 0 LINE",
"145 211 LINE SMOOTH",
"145 278 OFFCURVE",
"160 325 OFFCURVE",
"233 325 CURVE",
"193 430 LINE"
);
},
{
closed = 1;
nodes = (
"588 0 LINE",
"383 256 LINE",
"135 609 LINE",
"-86 609 LINE",
"124 346 LINE",
"368 0 LINE"
);
}
);
};
layerId = "AD6F6DAA-2D58-4E1D-98AF-ACAAF76D7B9E";
name = "Bold Condensed";
paths = (
{
closed = 1;
nodes = (
"495 0 LINE",
"329 314 LINE",
"189 609 LINE",
"20 609 LINE",
"165 333 LINE",
"326 0 LINE"
);
},
{
closed = 1;
nodes = (
"186 0 LINE",
"186 177 LINE SMOOTH",
"186 255 OFFCURVE",
"194 280 OFFCURVE",
"245 298 CURVE",
"215 398 LINE",
"86 394 OFFCURVE",
"25 318 OFFCURVE",
"25 190 CURVE SMOOTH",
"25 0 LINE"
);
},
{
closed = 1;
nodes = (
"415 253 OFFCURVE",
"476 328 OFFCURVE",
"476 456 CURVE SMOOTH",
"476 609 LINE",
"315 609 LINE",
"315 469 LINE SMOOTH",
"315 379 OFFCURVE",
"314 353 OFFCURVE",
"256 349 CURVE",
"286 249 LINE"
);
}
);
width = 515;
}
);
unicode = 05D0;
},
{
glyphname = "bet-hb";
lastChange = "2015-12-03 07:36:35 +0000";
layers = (
{
anchors = (
{
name = bottom;
position = "{264, 0}";
},
{
name = bottomleft;
position = "{35, 0}";
},
{
name = center;
position = "{214, 296}";
},
{
name = top;
position = "{206, 528}";
},
{
name = topleft;
position = "{35, 528}";
}
);
layerId = "1F954AD7-537E-453D-9D07-161C7E95D0AA";
name = Light;
paths = (
{
closed = 1;
nodes = (
"418 0 LINE",
"418 419 LINE SMOOTH",
"418 531 OFFCURVE",
"359 584 OFFCURVE",
"258 584 CURVE SMOOTH",
"35 584 LINE",
"35 557 LINE",
"253 557 LINE SMOOTH",
"341 557 OFFCURVE",
"392 518 OFFCURVE",
"392 416 CURVE SMOOTH",
"392 0 LINE"
);
},
{
closed = 1;
nodes = (
"493 0 LINE",
"493 27 LINE",
"35 27 LINE",
"35 0 LINE"
);
}
);
width = 523;
},
{
anchors = (
{
name = bottom;
position = "{274, 0}";
},
{
name = bottomleft;
position = "{30, 0}";
},
{
name = center;
position = "{190, 300}";
},
{
name = top;
position = "{217, 536}";
},
{
name = topleft;
position = "{30, 536}";
}
);
layerId = "0C04772A-F31D-4E86-90EF-3402D1EA39CA";
name = Regular;
paths = (
{
closed = 1;
nodes = (
"439 0 LINE",
"439 403 LINE SMOOTH",
"439 535 OFFCURVE",
"374 592 OFFCURVE",
"238 592 CURVE SMOOTH",
"30 592 LINE",
"30 509 LINE",
"232 509 LINE SMOOTH",
"305 509 OFFCURVE",
"349 478 OFFCURVE",
"349 385 CURVE SMOOTH",
"349 0 LINE"
);
},
{
closed = 1;
nodes = (
"517 0 LINE",
"517 83 LINE",
"30 83 LINE",
"30 0 LINE"
);
}
);
width = 542;
},
{
anchors = (
{
name = bottom;
position = "{299, 0}";
},
{
name = bottomleft;
position = "{5, 0}";
},
{
name = center;
position = "{185, 303}";
},
{
name = top;
position = "{213, 546}";
},
{
name = topleft;
position = "{25, 546}";
}
);
layerId = "206B8059-80C9-426C-870D-7DCC5D63B771";
name = SemiBold;
paths = (
{
closed = 1;
nodes = (
"494 0 LINE",
"494 391 LINE SMOOTH",
"494 533 OFFCURVE",
"418 602 OFFCURVE",
"263 602 CURVE SMOOTH",
"25 602 LINE",
"25 476 LINE",
"257 476 LINE SMOOTH",
"319 476 OFFCURVE",
"344 449 OFFCURVE",
"344 374 CURVE SMOOTH",
"344 0 LINE"
);
},
{
closed = 1;
nodes = (
"572 0 LINE",
"572 126 LINE",
"25 126 LINE",
"25 0 LINE"
);
}
);
width = 592;
},
{
anchors = (
{
name = bottom;
position = "{310, 0}";
},
{
name = bottomleft;
position = "{15, 0}";
},
{
name = center;
position = "{175, 306}";
},
{
name = top;
position = "{247, 553}";
},
{
name = topleft;
position = "{15, 553}";
}
);
layerId = "3FB868F8-5CDC-4A46-BA32-95627737ABE0";
name = Bold;
paths = (
{
closed = 1;
nodes = (
"526 0 LINE",
"526 382 LINE SMOOTH",
"526 533 OFFCURVE",
"441 609 OFFCURVE",
"274 609 CURVE SMOOTH",
"15 609 LINE",
"15 451 LINE",
"265 451 LINE SMOOTH",
"308 451 OFFCURVE",
"334 427 OFFCURVE",
"334 379 CURVE SMOOTH",
"334 0 LINE"
);
},
{
closed = 1;
nodes = (
"604 0 LINE",
"604 158 LINE",
"15 158 LINE",
"15 0 LINE"
);
}
);
width = 614;
},
{
anchors = (
{
name = bottom;
position = "{174, 0}";
},
{
name = bottomleft;
position = "{24, 0}";
},
{
name = center;
position = "{123, 296}";
},
{
name = top;
position = "{123, 528}";
},
{
name = topleft;
position = "{24, 528}";
}
);
layerId = "BD31AAF9-E65B-4A30-ACC0-7018B0C27C60";
name = "Light Condensed";
paths = (
{
closed = 1;
nodes = (
"247 0 LINE",
"247 433 LINE SMOOTH",
"247 545 OFFCURVE",
"203 584 OFFCURVE",
"102 584 CURVE SMOOTH",
"25 584 LINE",
"25 557 LINE",
"97 557 LINE SMOOTH",
"185 557 OFFCURVE",
"221 530 OFFCURVE",
"221 428 CURVE SMOOTH",
"221 0 LINE"
);
},
{
closed = 1;
nodes = (
"322 0 LINE",
"322 27 LINE",
"25 27 LINE",
"25 0 LINE"
);
}
);
width = 327;
},
{
anchors = (
{
name = bottom;
position = "{196, 0}";
},
{
name = bottomleft;
position = "{17, 0}";
},
{
name = center;
position = "{114, 300}";
},
{
name = top;
position = "{151, 536}";
},
{
name = topleft;
position = "{20, 536}";
}
);
layerId = "E193C3F6-581C-4255-BA06-39B2C55FEA85";
name = Condensed;
paths = (
{
closed = 1;
nodes = (
"292 0 LINE",
"292 404 LINE SMOOTH",
"292 534 OFFCURVE",
"236 592 OFFCURVE",
"145 592 CURVE SMOOTH",
"20 592 LINE",
"20 511 LINE",
"122 511 LINE SMOOTH",
"172 511 OFFCURVE",
"208 483 OFFCURVE",
"208 386 CURVE SMOOTH",
"208 0 LINE"
);
},
{
closed = 1;
nodes = (
"362 0 LINE",
"362 81 LINE",
"20 81 LINE",
"20 0 LINE"
);
}
);
width = 367;
},
{
anchors = (
{
name = bottom;
position = "{219, 0}";
},
{
name = bottomleft;
position = "{-5, 0}";
},
{
name = center;
position = "{118, 303}";
},
{
name = top;
position = "{166, 546}";
},
{
name = topleft;
position = "{15, 546}";
}
);
layerId = "4D9C3FAB-40EB-4CCF-A752-6D6FE9920038";
name = "SemiBold Condensed";
paths = (
{
closed = 1;
nodes = (
"357 0 LINE",
"357 407 LINE SMOOTH",
"357 536 OFFCURVE",
"300 602 OFFCURVE",
"194 602 CURVE SMOOTH",
"15 602 LINE",
"15 482 LINE",
"160 482 LINE SMOOTH",
"202 482 OFFCURVE",
"220 453 OFFCURVE",
"220 393 CURVE SMOOTH",
"220 0 LINE"
);
},
{
closed = 1;
nodes = (
"422 0 LINE",
"422 120 LINE",
"15 120 LINE",
"15 0 LINE"
);
}
);
width = 427;
},
{
anchors = (
{
name = bottom;
position = "{225, 0}";
},
{
name = bottomleft;
position = "{14, 0}";
},
{
name = center;
position = "{105, 306}";
},
{
name = top;
position = "{195, 553}";
},
{
name = topleft;
position = "{14, 553}";
}
);
layerId = "AD6F6DAA-2D58-4E1D-98AF-ACAAF76D7B9E";
name = "Bold Condensed";
paths = (
{
closed = 1;
nodes = (
"364 0 LINE",
"364 409 LINE SMOOTH",
"364 544 OFFCURVE",
"295 609 OFFCURVE",
"185 609 CURVE SMOOTH",
"15 609 LINE",
"15 463 LINE",
"141 463 LINE SMOOTH",
"177 463 OFFCURVE",
"194 440 OFFCURVE",
"194 395 CURVE SMOOTH",
"194 0 LINE"
);
},
{
closed = 1;
nodes = (
"434 0 LINE",
"434 146 LINE",
"15 146 LINE",
"15 0 LINE"
);
}
);
width = 439;
}
);
unicode = 05D1;
},
{
glyphname = "gimel-hb";
lastChange = "2015-12-08 18:03:24 +0000";
layers = (
{
anchors = (
{
name = bottom;
position = "{150, 0}";
},
{
name = bottomleft;
position = "{15, 0}";
},
{
name = center;
position = "{126, 296}";
},
{
name = top;
position = "{149, 528}";
},
{
name = topleft;
position = "{60, 528}";
}
);
background = {
paths = (
{
closed = 1;
nodes = (
"285 0 LINE",
"263 178 LINE",
"263 479 LINE SMOOTH",
"263 550 OFFCURVE",
"224 584 OFFCURVE",
"158 584 CURVE SMOOTH",
"59 584 LINE",
"59 555 LINE",
"153 555 LINE SMOOTH",
"206 555 OFFCURVE",
"237 533 OFFCURVE",
"237 474 CURVE SMOOTH",
"237 171 LINE",
"239 171 LINE",
"260 0 LINE"
);
},
{
closed = 1;
nodes = (
"79 11 OFFCURVE",
"186 82 OFFCURVE",
"241 176 CURVE",
"241 254 LINE",
"237 254 LINE",
"237 165 OFFCURVE",
"134 68 OFFCURVE",
"15 17 CURVE",
"15 -12 LINE"
);
}
);
};
layerId = "1F954AD7-537E-453D-9D07-161C7E95D0AA";
name = Light;
paths = (
{
closed = 1;
nodes = (
"81 17 OFFCURVE",
"197 94 OFFCURVE",
"238 171 CURVE",
"239 171 LINE",
"260 0 LINE",
"285 0 LINE",
"263 178 LINE",
"263 479 LINE SMOOTH",
"263 550 OFFCURVE",
"224 584 OFFCURVE",
"158 584 CURVE SMOOTH",
"59 584 LINE",
"59 557 LINE",
"153 557 LINE SMOOTH",
"206 557 OFFCURVE",
"237 535 OFFCURVE",
"237 476 CURVE SMOOTH",
"237 247 LINE SMOOTH",
"237 194 OFFCURVE",
"200 141 OFFCURVE",
"143 95 CURVE SMOOTH",
"109 67 OFFCURVE",
"59 38 OFFCURVE",
"15 17 CURVE",
"15 -10 LINE"
);
}
);
width = 320;
},
{
anchors = (
{
name = bottom;
position = "{176, 0}";
},
{
name = bottomleft;
position = "{15, 0}";
},
{
name = center;
position = "{116, 342}";
},
{
name = top;
position = "{175, 536}";
},
{
name = topleft;
position = "{53, 536}";
}
);
background = {
paths = (
{
closed = 1;
nodes = (
"317 0 LINE",
"296 179 LINE",
"297 456 LINE SMOOTH",
"297 555 OFFCURVE",
"245 592 OFFCURVE",
"175 592 CURVE SMOOTH",
"53 592 LINE",
"53 509 LINE",
"149 509 LINE SMOOTH",
"187 509 OFFCURVE",
"207 492 OFFCURVE",
"207 445 CURVE SMOOTH",
"207 164 LINE",
"215 164 LINE",
"243 0 LINE"
);
},
{
closed = 1;
nodes = (
"75 12 OFFCURVE",
"166 73 OFFCURVE",
"221 182 CURVE",
"221 342 LINE",
"207 342 LINE",
"207 234 OFFCURVE",
"136 128 OFFCURVE",
"15 86 CURVE",
"15 -12 LINE"
);
}
);
};
layerId = "0C04772A-F31D-4E86-90EF-3402D1EA39CA";
name = Regular;
paths = (
{
closed = 1;
nodes = (
"72 13 OFFCURVE",
"156 67 OFFCURVE",
"211 164 CURVE",
"215 164 LINE",
"243 0 LINE",
"317 0 LINE",
"296 179 LINE",
"297 456 LINE SMOOTH",
"297 555 OFFCURVE",
"245 592 OFFCURVE",
"175 592 CURVE SMOOTH",
"53 592 LINE",
"53 509 LINE",
"149 509 LINE SMOOTH",
"187 509 OFFCURVE",
"207 492 OFFCURVE",
"207 445 CURVE SMOOTH",
"207 342 LINE SMOOTH",
"207 281 OFFCURVE",
"184 220 OFFCURVE",
"142 171 CURVE SMOOTH",
"110 134 OFFCURVE",
"67 104 OFFCURVE",
"15 86 CURVE",
"15 -10 LINE"
);
}
);
width = 347;
},
{
anchors = (
{
name = bottom;
position = "{193, 0}";
},
{
name = bottomleft;
position = "{10, 0}";
},
{
name = center;
position = "{106, 332}";
},
{
name = top;
position = "{200, 546}";
},
{
name = topleft;
position = "{48, 546}";
}
);
background = {
paths = (
{
closed = 1;
nodes = (
"375 0 LINE",
"351 202 LINE",
"352 444 LINE SMOOTH",
"352 545 OFFCURVE",
"298 602 OFFCURVE",
"200 602 CURVE SMOOTH",
"48 603 LINE",
"48 476 LINE",
"156 476 LINE SMOOTH",
"190 476 OFFCURVE",
"202 459 OFFCURVE",
"202 425 CURVE SMOOTH",
"202 129 LINE",
"214 129 LINE",
"242 0 LINE"
);
},
{
closed = 1;
nodes = (
"132 23 OFFCURVE",
"230 129 OFFCURVE",
"276 243 CURVE",
"276 332 LINE",
"202 332 LINE",
"202 238 OFFCURVE",
"121 147 OFFCURVE",
"10 123 CURVE",
"10 -12 LINE"
);
}
);
};
layerId = "206B8059-80C9-426C-870D-7DCC5D63B771";
name = SemiBold;
paths = (
{
closed = 1;
nodes = (
"89 13 OFFCURVE",
"159 64 OFFCURVE",
"210 129 CURVE",
"214 129 LINE",
"242 0 LINE",
"375 0 LINE",
"351 202 LINE",
"352 444 LINE SMOOTH",
"352 542 OFFCURVE",
"302 601 OFFCURVE",
"200 602 CURVE SMOOTH",
"48 603 LINE",
"48 476 LINE",
"156 476 LINE SMOOTH",
"190 476 OFFCURVE",
"202 459 OFFCURVE",
"202 425 CURVE SMOOTH",
"202 332 LINE SMOOTH",
"202 283 OFFCURVE",
"180 234 OFFCURVE",
"142 196 CURVE SMOOTH",
"109 161 OFFCURVE",
"63 134 OFFCURVE",
"10 123 CURVE",
"10 -10 LINE"
);
}
);
width = 400;
},
{
anchors = (
{
name = bottom;
position = "{214, 0}";
},
{
name = bottomleft;
position = "{15, 0}";
},
{
name = center;
position = "{114, 306}";
},
{
name = top;
position = "{226, 553}";
},
{
name = topleft;
position = "{53, 553}";
}
);
background = {
paths = (
{
closed = 1;
nodes = (
"425 0 LINE",
"399 199 LINE",
"399 434 LINE SMOOTH",
"399 539 OFFCURVE",
"343 607 OFFCURVE",
"226 608 CURVE SMOOTH",
"53 609 LINE",
"53 450 LINE",
"173 450 LINE SMOOTH",
"198 450 OFFCURVE",
"207 439 OFFCURVE",
"207 415 CURVE SMOOTH",
"207 115 LINE",
"224 115 LINE",
"260 0 LINE"
);
},
{
closed = 1;
nodes = (
"147 17 OFFCURVE",
"268 138 OFFCURVE",
"323 291 CURVE",
"323 324 LINE",
"207 324 LINE",
"207 236 OFFCURVE",
"129 165 OFFCURVE",
"15 152 CURVE",
"15 -12 LINE"
);
}
);
};
layerId = "3FB868F8-5CDC-4A46-BA32-95627737ABE0";
name = Bold;
paths = (
{
closed = 1;
nodes = (
"90 6 OFFCURVE",
"161 51 OFFCURVE",
"219 115 CURVE",
"224 115 LINE",
"260 0 LINE",
"425 0 LINE",
"399 199 LINE",
"399 434 LINE SMOOTH",
"399 539 OFFCURVE",
"343 607 OFFCURVE",
"226 608 CURVE SMOOTH",
"53 609 LINE",
"53 450 LINE",
"173 450 LINE SMOOTH",
"198 450 OFFCURVE",
"207 439 OFFCURVE",
"207 415 CURVE SMOOTH",
"207 324 LINE SMOOTH",
"207 277 OFFCURVE",
"185 236 OFFCURVE",
"148 205 CURVE SMOOTH",
"114 177 OFFCURVE",
"69 158 OFFCURVE",
"15 152 CURVE",
"15 -10 LINE"
);
}
);
width = 440;
},
{
anchors = (
{
name = bottom;
position = "{94, 0}";
},
{
name = bottomleft;
position = "{5, 0}";
},
{
name = center;
position = "{76, 296}";
},
{
name = top;
position = "{106, 528}";
},
{
name = topleft;
position = "{44, 528}";
}
);
background = {
paths = (
{
closed = 1;
nodes = (
"-546 0 LINE",
"-546 434 LINE SMOOTH",
"-546 546 OFFCURVE",
"-590 585 OFFCURVE",
"-691 585 CURVE SMOOTH",
"-768 585 LINE",
"-768 558 LINE",
"-696 558 LINE SMOOTH",
"-608 558 OFFCURVE",
"-572 531 OFFCURVE",
"-572 429 CURVE SMOOTH",
"-572 0 LINE"
);
},
{
closed = 0;
nodes = (
"142 75 LINE",
"142 480 LINE SMOOTH",
"142 538 OFFCURVE",
"129 558 OFFCURVE",
"86 558 CURVE SMOOTH"
);
},
{
closed = 0;
nodes = (
"91 585 LINE SMOOTH",
"145 585 OFFCURVE",
"168 554 OFFCURVE",
"168 488 CURVE SMOOTH",
"168 77 LINE"
);
},
{
closed = 0;
nodes = (
"168 586 LINE",
"168 59 LINE",
"148 59 LINE",
"147 171 LINE",
"145 171 LINE",
"131 112 OFFCURVE",
"94 49 OFFCURVE",
"14 49 CURVE SMOOTH"
);
},
{
closed = 0;
nodes = (
"14 73 LINE SMOOTH",
"83 73 OFFCURVE",
"142 141 OFFCURVE",
"142 275 CURVE SMOOTH"
);
}
);
};
layerId = "BD31AAF9-E65B-4A30-ACC0-7018B0C27C60";
name = "Light Condensed";
paths = (
{
closed = 1;
nodes = (
"78 40 OFFCURVE",
"120 93 OFFCURVE",
"145 171 CURVE",
"147 171 LINE",
"171 0 LINE",
"193 0 LINE",
"168 178 LINE",
"168 487 LINE SMOOTH",
"168 553 OFFCURVE",
"145 584 OFFCURVE",
"91 584 CURVE SMOOTH",
"44 584 LINE",
"44 557 LINE",
"86 557 LINE SMOOTH",
"129 557 OFFCURVE",
"142 537 OFFCURVE",
"142 479 CURVE SMOOTH",
"142 275 LINE SMOOTH",
"142 209 OFFCURVE",
"126 158 OFFCURVE",
"99 113 CURVE SMOOTH",
"81 83 OFFCURVE",
"60 59 OFFCURVE",
"10 19 CURVE",
"10 -12 LINE"
);
}
);
width = 230;
},
{
anchors = (
{
name = bottom;
position = "{124, 0}";
},
{
name = bottomleft;
position = "{10, 0}";
},
{
name = center;
position = "{58, 342}";
},
{
name = top;
position = "{138, 536}";
},
{
name = topleft;
position = "{59, 536}";
}
);
background = {
paths = (
{
closed = 1;
nodes = (
"217 0 LINE",
"217 449 LINE SMOOTH",
"217 545 OFFCURVE",
"185 592 OFFCURVE",
"114 592 CURVE SMOOTH",
"59 592 LINE",
"59 511 LINE",
"84 511 LINE SMOOTH",
"123 511 OFFCURVE",
"133 484 OFFCURVE",
"133 430 CURVE SMOOTH",
"133 0 LINE"
);
}
);
};
layerId = "E193C3F6-581C-4255-BA06-39B2C55FEA85";
name = Condensed;
paths = (
{
closed = 1;
nodes = (
"59 13 OFFCURVE",
"114 72 OFFCURVE",
"139 144 CURVE",
"141 144 LINE",
"169 0 LINE",
"237 0 LINE",
"216 183 LINE",
"217 449 LINE SMOOTH",
"217 545 OFFCURVE",
"185 592 OFFCURVE",
"114 592 CURVE SMOOTH",
"59 592 LINE",
"59 511 LINE",
"84 511 LINE SMOOTH",
"123 511 OFFCURVE",
"133 484 OFFCURVE",
"133 430 CURVE SMOOTH",
"133 342 LINE SMOOTH",
"133 275 OFFCURVE",
"125 219 OFFCURVE",
"94 170 CURVE SMOOTH",
"75 140 OFFCURVE",
"48 112 OFFCURVE",
"10 86 CURVE",
"10 -10 LINE"
);
}
);
width = 277;
},
{
anchors = (
{
name = bottom;
position = "{189, 0}";
},
{
name = bottomleft;
position = "{14, 0}";
},
{
name = center;
position = "{43, 332}";
},
{
name = top;
position = "{151, 546}";
},
{
name = topleft;
position = "{59, 546}";
}
);
background = {
paths = (
{
closed = 0;
nodes = (
"133 147 LINE",
"133 418 LINE SMOOTH",
"133 461 OFFCURVE",
"121 482 OFFCURVE",
"89 482 CURVE SMOOTH"
);
},
{
closed = 0;
nodes = (
"137 602 LINE SMOOTH",
"231 602 OFFCURVE",
"270 546 OFFCURVE",
"270 429 CURVE SMOOTH",
"270 153 LINE"
);
}
);
};
layerId = "4D9C3FAB-40EB-4CCF-A752-6D6FE9920038";
name = "SemiBold Condensed";
paths = (
{
closed = 1;
nodes = (
"76 15 OFFCURVE",
"132 87 OFFCURVE",
"152 129 CURVE",
"154 129 LINE",
"172 0 LINE",
"292 0 LINE",
"269 199 LINE",
"270 429 LINE SMOOTH",
"270 546 OFFCURVE",
"231 602 OFFCURVE",
"137 602 CURVE SMOOTH",
"59 602 LINE",
"59 482 LINE",
"89 482 LINE SMOOTH",
"121 482 OFFCURVE",
"133 461 OFFCURVE",
"133 418 CURVE SMOOTH",
"133 312 LINE SMOOTH",
"133 267 OFFCURVE",
"119 229 OFFCURVE",
"98 198 CURVE SMOOTH",
"75 165 OFFCURVE",
"44 139 OFFCURVE",
"10 120 CURVE",
"10 -7 LINE"
);
}
);
width = 327;
},
{
anchors = (
{
name = bottom;
position = "{317, 3}";
},
{
name = bottomleft;
position = "{-1, 0}";
},
{
name = center;
position = "{52, 306}";
},
{
name = top;
position = "{166, 553}";
},
{
name = topleft;
position = "{37, 553}";
}
);
background = {
paths = (
{
closed = 0;
nodes = (
"123 324 LINE",
"123 409 LINE SMOOTH",
"123 445 OFFCURVE",
"110 463 OFFCURVE",
"83 463 CURVE",
"38 463 LINE",
"38 609 LINE",
"140 609 LINE SMOOTH",
"249 609 OFFCURVE",
"293 547 OFFCURVE",
"293 417 CURVE SMOOTH",
"293 179 LINE"
);
}
);
};
layerId = "AD6F6DAA-2D58-4E1D-98AF-ACAAF76D7B9E";
name = "Bold Condensed";
paths = (
{
closed = 1;
nodes = (
"76 21 OFFCURVE",
"121 52 OFFCURVE",
"153 115 CURVE",
"157 115 LINE",
"183 0 LINE",
"317 0 LINE",
"292 192 LINE",
"293 417 LINE SMOOTH",
"294 547 OFFCURVE",
"249 609 OFFCURVE",
"140 609 CURVE SMOOTH",
"38 609 LINE",
"38 463 LINE",
"83 463 LINE SMOOTH",
"110 463 OFFCURVE",
"123 445 OFFCURVE",
"123 409 CURVE SMOOTH",
"123 291 LINE SMOOTH",
"123 253 OFFCURVE",
"113 225 OFFCURVE",
"93 203 CURVE SMOOTH",
"74 181 OFFCURVE",
"46 164 OFFCURVE",
"10 148 CURVE",
"10 -12 LINE"
);
}
);
width = 347;
}
);
unicode = 05D2;
},
{
glyphname = "dalet-hb";
lastChange = "2015-12-03 07:34:04 +0000";
layers = (
{
anchors = (
{
name = bottom;
position = "{330, 0}";
},
{
name = bottomleft;
position = "{178, 0}";
},
{
name = center;
position = "{178, 296}";
},
{
name = top;
position = "{239, 528}";
},
{
name = topleft;
position = "{10, 528}";
}
);
background = {
anchors = (
{
name = bottom;
position = "{330, 0}";
},
{
name = bottomleft;
position = "{-22, 0}";
},
{
name = center;
position = "{132, 300}";
},
{
name = top;
position = "{222, 560}";
},
{
name = topleft;
position = "{-22, 560}";
}
);
paths = (
{
closed = 1;
nodes = (
"-22 592 LINE",
"-22 509 LINE",
"285 509 LINE",
"285 0 LINE",
"375 0 LINE",
"375 509 LINE",
"466 509 LINE",
"466 592 LINE"
);
}
);
};
layerId = "1F954AD7-537E-453D-9D07-161C7E95D0AA";
name = Light;
paths = (
{
closed = 1;
nodes = (
"372 0 LINE",
"372 572 LINE",
"346 572 LINE",
"346 0 LINE"
);
},
{
closed = 1;
nodes = (
"467 555 LINE",
"467 584 LINE",
"10 584 LINE",
"10 555 LINE"
);
}
);
width = 502;
},
{
anchors = (
{
name = bottom;
position = "{362, 0}";
},
{
name = bottomleft;
position = "{164, 0}";
},
{
name = center;
position = "{164, 300}";
},
{
name = top;
position = "{254, 536}";
},
{
name = topleft;
position = "{10, 536}";
}
);
background = {
paths = (
{
closed = 1;
nodes = (
"385 0 LINE",
"385 390 LINE SMOOTH",
"385 485 OFFCURVE",
"445 523 OFFCURVE",
"496 530 CURVE",
"496 606 LINE",
"10 606 LINE",
"10 523 LINE",
"361 523 LINE",
"361 520 LINE",
"340 508 OFFCURVE",
"295 485 OFFCURVE",
"295 390 CURVE SMOOTH",
"295 0 LINE"
);
}
);
};
layerId = "0C04772A-F31D-4E86-90EF-3402D1EA39CA";
name = Regular;
paths = (
{
closed = 1;
nodes = (
"407 0 LINE",
"407 544 LINE",
"317 544 LINE",
"317 0 LINE"
);
},
{
closed = 1;
nodes = (
"498 509 LINE",
"498 592 LINE",
"10 592 LINE",
"10 509 LINE"
);
}
);
width = 523;
},
{
anchors = (
{
name = bottom;
position = "{392, 0}";
},
{
name = bottomleft;
position = "{0, 0}";
},
{
name = center;
position = "{164, 303}";
},
{
name = top;
position = "{284, 546}";
},
{
name = topleft;
position = "{11, 546}";
}
);
layerId = "206B8059-80C9-426C-870D-7DCC5D63B771";
name = SemiBold;
paths = (
{
closed = 1;
nodes = (
"467 0 LINE",
"467 554 LINE",
"317 554 LINE",
"317 0 LINE"
);
},
{
closed = 1;
nodes = (
"558 476 LINE",
"558 602 LINE",
"10 602 LINE",
"10 476 LINE"
);
}
);
width = 578;
},
{
anchors = (
{
name = bottom;
position = "{418, 0}";
},
{
name = bottomleft;
position = "{25, 0}";
},
{
name = center;
position = "{169, 306}";
},
{
name = top;
position = "{320, 553}";
},
{
name = topleft;
position = "{15, 553}";
}
);
layerId = "3FB868F8-5CDC-4A46-BA32-95627737ABE0";
name = Bold;
paths = (
{
closed = 1;
nodes = (
"514 0 LINE",
"514 570 LINE",
"322 570 LINE",
"322 0 LINE"
);
},
{
closed = 1;
nodes = (
"605 451 LINE",
"605 609 LINE",
"15 609 LINE",
"15 451 LINE"
);
}
);
width = 620;
},
{
anchors = (
{
name = bottom;
position = "{219, 0}";
},
{
name = bottomleft;
position = "{68, 0}";
},
{
name = center;
position = "{108, 296}";
},
{
name = top;
position = "{159, 528}";
},
{
name = topleft;
position = "{10, 528}";
}
);
layerId = "BD31AAF9-E65B-4A30-ACC0-7018B0C27C60";
name = "Light Condensed";
paths = (
{
closed = 1;
nodes = (
"232 0 LINE",
"232 572 LINE",
"206 572 LINE",
"206 0 LINE"
);
},
{
closed = 1;
nodes = (
"307 557 LINE",
"307 584 LINE",
"10 584 LINE",
"10 557 LINE"
);
}
);
width = 317;
},
{
anchors = (
{
name = bottom;
position = "{239, 0}";
},
{
name = bottomleft;
position = "{46, 0}";
},
{
name = center;
position = "{104, 300}";
},
{
name = top;
position = "{181, 536}";
},
{
name = topleft;
position = "{11, 536}";
}
);
background = {
paths = (
{
closed = 1;
nodes = (
"353 0 LINE",
"353 404 LINE SMOOTH",
"353 534 OFFCURVE",
"291 592 OFFCURVE",
"155 592 CURVE SMOOTH",
"12 592 LINE",
"12 511 LINE",
"149 511 LINE SMOOTH",
"231 511 OFFCURVE",
"269 472 OFFCURVE",
"269 386 CURVE SMOOTH",
"269 0 LINE"
);
},
{
closed = 1;
nodes = (
"96 0 LINE",
"96 592 LINE",
"12 592 LINE",
"12 0 LINE"
);
}
);
};
layerId = "E193C3F6-581C-4255-BA06-39B2C55FEA85";
name = Condensed;
paths = (
{
closed = 1;
nodes = (
"281 0 LINE",
"281 542 LINE",
"197 542 LINE",
"197 0 LINE"
);
},
{
closed = 1;
nodes = (
"352 511 LINE",
"352 592 LINE",
"10 592 LINE",
"10 511 LINE"
);
}
);
width = 362;
},
{
anchors = (
{
name = bottom;
position = "{258, 0}";
},
{
name = bottomleft;
position = "{-1, 0}";
},
{
name = center;
position = "{100, 303}";
},
{
name = top;
position = "{207, 546}";
},
{
name = topleft;
position = "{10, 546}";
}
);
layerId = "4D9C3FAB-40EB-4CCF-A752-6D6FE9920038";
name = "SemiBold Condensed";
paths = (
{
closed = 1;
nodes = (
"326 0 LINE",
"326 548 LINE",
"189 548 LINE",
"189 0 LINE"
);
},
{
closed = 1;
nodes = (
"404 482 LINE",
"404 602 LINE",
"10 602 LINE",
"10 482 LINE"
);
}
);
width = 414;
},
{
anchors = (
{
name = bottom;
position = "{282, 0}";
},
{
name = bottomleft;
position = "{20, 0}";
},
{
name = center;
position = "{104, 306}";
},
{
name = top;
position = "{224, 553}";
},
{
name = topleft;
position = "{10, 553}";
}
);
layerId = "AD6F6DAA-2D58-4E1D-98AF-ACAAF76D7B9E";
name = "Bold Condensed";
paths = (
{
closed = 1;
nodes = (
"367 0 LINE",
"367 570 LINE",
"197 570 LINE",
"197 0 LINE"
);
},
{
closed = 1;
nodes = (
"437 463 LINE",
"437 609 LINE",
"10 609 LINE",
"10 463 LINE"
);
}
);
width = 447;
}
);
unicode = 05D3;
},
{
glyphname = "he-hb";
lastChange = "2015-12-03 05:49:06 +0000";
layers = (
{
anchors = (
{
name = bottom;
position = "{321, 0}";
},
{
name = bottomleft;
position = "{90, 0}";
},
{
name = center;
position = "{321, 296}";
},
{
name = top;
position = "{292, 528}";
},
{
name = topleft;
position = "{88, 528}";
}
);
layerId = "1F954AD7-537E-453D-9D07-161C7E95D0AA";
name = Light;
paths = (
{
closed = 1;
nodes = (
"551 0 LINE",
"551 419 LINE SMOOTH",
"551 531 OFFCURVE",
"492 584 OFFCURVE",
"391 584 CURVE SMOOTH",
"90 584 LINE",
"90 557 LINE",
"386 557 LINE SMOOTH",
"474 557 OFFCURVE",
"525 518 OFFCURVE",
"525 416 CURVE SMOOTH",
"525 0 LINE"
);
},
{
closed = 1;
nodes = (
"116 0 LINE",
"116 360 LINE",
"90 360 LINE",
"90 0 LINE"
);
}
);
width = 636;
},
{
anchors = (
{
name = bottom;
position = "{329, 0}";
},
{
name = bottomleft;
position = "{85, 0}";
},
{
name = center;
position = "{329, 300}";
},
{
name = top;
position = "{301, 536}";
},
{
name = topleft;
position = "{85, 536}";
}
);
background = {
anchors = (
{
name = bottom;
position = "{336, 0}";
},
{
name = center;
position = "{336, 323}";
},
{
name = topleft;
position = "{102, 630}";
}
);
};
layerId = "0C04772A-F31D-4E86-90EF-3402D1EA39CA";
name = Regular;
paths = (
{
closed = 1;
nodes = (
"572 0 LINE",
"572 403 LINE SMOOTH",
"572 535 OFFCURVE",
"507 592 OFFCURVE",
"371 592 CURVE SMOOTH",
"85 592 LINE",
"85 509 LINE",
"365 509 LINE SMOOTH",
"438 509 OFFCURVE",
"482 478 OFFCURVE",
"482 385 CURVE SMOOTH",
"482 0 LINE"
);
},
{
closed = 1;
nodes = (
"175 0 LINE",
"175 354 LINE",
"85 354 LINE",
"85 0 LINE"
);
}
);
width = 652;
},
{
anchors = (
{
name = bottom;
position = "{354, 0}";
},
{
name = bottomleft;
position = "{80, 0}";
},
{
name = center;
position = "{354, 303}";
},
{
name = top;
position = "{354, 546}";
},
{
name = topleft;
position = "{80, 546}";
}
);
layerId = "206B8059-80C9-426C-870D-7DCC5D63B771";
name = SemiBold;
paths = (
{
closed = 1;
nodes = (
"627 0 LINE",
"627 391 LINE SMOOTH",
"627 533 OFFCURVE",
"551 602 OFFCURVE",
"396 602 CURVE SMOOTH",
"80 602 LINE",
"80 476 LINE",
"390 476 LINE SMOOTH",
"452 476 OFFCURVE",
"477 449 OFFCURVE",
"477 374 CURVE SMOOTH",
"477 0 LINE"
);
},
{
closed = 1;
nodes = (
"230 0 LINE",
"230 350 LINE",
"80 350 LINE",
"80 0 LINE"
);
}
);
width = 702;
},
{
anchors = (
{
name = bottom;
position = "{365, 0}";
},
{
name = bottomleft;
position = "{70, 0}";
},
{
name = center;
position = "{362, 306}";
},
{
name = top;
position = "{365, 553}";
},
{
name = topleft;
position = "{70, 553}";
}
);
layerId = "3FB868F8-5CDC-4A46-BA32-95627737ABE0";
name = Bold;
paths = (
{
closed = 1;
nodes = (
"659 0 LINE",
"659 382 LINE SMOOTH",
"659 533 OFFCURVE",
"574 609 OFFCURVE",
"407 609 CURVE SMOOTH",
"70 609 LINE",
"70 451 LINE",
"398 451 LINE SMOOTH",
"441 451 OFFCURVE",
"467 427 OFFCURVE",
"467 379 CURVE SMOOTH",
"467 0 LINE"
);
},
{
closed = 1;
nodes = (
"262 0 LINE",
"262 336 LINE",
"70 336 LINE",
"70 0 LINE"
);
}
);
width = 724;
},
{
anchors = (
{
name = bottom;
position = "{235, 0}";
},
{
name = bottomleft;
position = "{75, 0}";
},
{
name = center;
position = "{226, 296}";
},
{
name = top;
position = "{206, 528}";
},
{
name = topleft;
position = "{73, 528}";
}
);
layerId = "BD31AAF9-E65B-4A30-ACC0-7018B0C27C60";
name = "Light Condensed";
paths = (
{
closed = 1;
nodes = (
"376 0 LINE",
"376 433 LINE SMOOTH",
"376 545 OFFCURVE",
"332 584 OFFCURVE",
"231 584 CURVE SMOOTH",
"75 584 LINE",
"75 557 LINE",
"226 557 LINE SMOOTH",
"314 557 OFFCURVE",
"350 530 OFFCURVE",
"350 428 CURVE SMOOTH",
"350 0 LINE"
);
},
{
closed = 1;
nodes = (
"101 0 LINE",
"101 390 LINE",
"75 390 LINE",
"75 0 LINE"
);
}
);
width = 446;
},
{
anchors = (
{
name = bottom;
position = "{231, 0}";
},
{
name = bottomleft;
position = "{62, 0}";
},
{
name = center;
position = "{231, 300}";
},
{
name = top;
position = "{231, 536}";
},
{
name = topleft;
position = "{65, 536}";
}
);
layerId = "E193C3F6-581C-4255-BA06-39B2C55FEA85";
name = Condensed;
paths = (
{
closed = 1;
nodes = (
"396 0 LINE",
"396 407 LINE SMOOTH",
"396 525 OFFCURVE",
"347 592 OFFCURVE",
"246 592 CURVE SMOOTH",
"65 592 LINE",
"65 511 LINE",
"230 511 LINE SMOOTH",
"281 511 OFFCURVE",
"312 473 OFFCURVE",
"312 391 CURVE SMOOTH",
"312 0 LINE"
);
},
{
closed = 1;
nodes = (
"149 0 LINE",
"149 354 LINE",
"65 354 LINE",
"65 0 LINE"
);
}
);
width = 456;
},
{
anchors = (
{
name = bottom;
position = "{261, 0}";
},
{
name = bottomleft;
position = "{60, 0}";
},
{
name = center;
position = "{261, 303}";
},
{
name = top;
position = "{261, 546}";
},
{
name = topleft;
position = "{60, 546}";
}
);
layerId = "4D9C3FAB-40EB-4CCF-A752-6D6FE9920038";
name = "SemiBold Condensed";
paths = (
{
closed = 1;
nodes = (
"463 0 LINE",
"463 407 LINE SMOOTH",
"463 536 OFFCURVE",
"406 602 OFFCURVE",
"300 602 CURVE SMOOTH",
"60 602 LINE",
"60 482 LINE",
"266 482 LINE SMOOTH",
"308 482 OFFCURVE",
"326 453 OFFCURVE",
"326 393 CURVE SMOOTH",
"326 0 LINE"
);
},
{
closed = 1;
nodes = (
"196 0 LINE",
"197 350 LINE",
"60 350 LINE",
"60 0 LINE"
);
}
);
width = 518;
},
{
anchors = (
{
name = bottom;
position = "{279, 0}";
},
{
name = bottomleft;
position = "{55, 0}";
},
{
name = center;
position = "{279, 306}";
},
{
name = top;
position = "{289, 553}";
},
{
name = topleft;
position = "{55, 553}";
}
);
layerId = "AD6F6DAA-2D58-4E1D-98AF-ACAAF76D7B9E";
name = "Bold Condensed";
paths = (
{
closed = 1;
nodes = (
"502 0 LINE",
"502 409 LINE SMOOTH",
"502 544 OFFCURVE",
"433 609 OFFCURVE",
"323 609 CURVE SMOOTH",
"55 609 LINE",
"55 463 LINE",
"279 463 LINE SMOOTH",
"315 463 OFFCURVE",
"332 440 OFFCURVE",
"332 395 CURVE SMOOTH",
"332 0 LINE"
);
},
{
closed = 1;
nodes = (
"225 0 LINE",
"225 336 LINE",
"55 336 LINE",
"55 0 LINE"
);
}
);
width = 552;
}
);
unicode = 05D4;
},
{
glyphname = "vav-hb";
lastChange = "2015-12-03 09:32:55 +0000";
layers = (
{
anchors = (
{
name = bottom;
position = "{103, 0}";
},
{
name = bottomleft;
position = "{31, 0}";
},
{
name = center;
position = "{31, 296}";
},
{
name = top;
position = "{103, 528}";
},
{
name = topleft;
position = "{103, 528}";
}
);
background = {
anchors = (
{
name = bottom;
position = "{103, 0}";
},
{
name = bottomleft;
position = "{58, 0}";
},
{
name = center;
position = "{-42, 300}";
}
);
};
layerId = "1F954AD7-537E-453D-9D07-161C7E95D0AA";
name = Light;
paths = (
{
closed = 1;
nodes = (
"116 0 LINE",
"116 584 LINE",
"90 584 LINE",
"90 0 LINE"
);
}
);
width = 206;
},
{
anchors = (
{
name = bottom;
position = "{130, 0}";
},
{
name = bottomleft;
position = "{14, 0}";
},
{
name = center;
position = "{14, 300}";
},
{
name = top;
position = "{130, 536}";
},
{
name = topleft;
position = "{130, 536}";
}
);
guideLines = (
{
angle = 90;
position = "{85, 425}";
}
);
layerId = "0C04772A-F31D-4E86-90EF-3402D1EA39CA";
name = Regular;
paths = (
{
closed = 1;
nodes = (
"175 0 LINE",
"175 592 LINE",
"85 592 LINE",
"85 0 LINE"
);
}
);
width = 260;
},
{
anchors = (
{
name = bottom;
position = "{155, 0}";
},
{
name = bottomleft;
position = "{-26, 0}";
},
{
name = center;
position = "{10, 303}";
},
{
name = top;
position = "{155, 546}";
},
{
name = topleft;
position = "{155, 546}";
}
);
layerId = "206B8059-80C9-426C-870D-7DCC5D63B771";
name = SemiBold;
paths = (
{
closed = 1;
nodes = (
"230 0 LINE",
"230 602 LINE",
"80 602 LINE",
"80 0 LINE"
);
}
);
width = 310;
},
{
anchors = (
{
name = bottom;
position = "{166, 0}";
},
{
name = bottomleft;
position = "{32, 0}";
},
{
name = center;
position = "{-11, 306}";
},
{
name = top;
position = "{166, 553}";
},
{
name = topleft;
position = "{166, 553}";
}
);
layerId = "3FB868F8-5CDC-4A46-BA32-95627737ABE0";
name = Bold;
paths = (
{
closed = 1;
nodes = (
"262 0 LINE",
"262 609 LINE",
"70 609 LINE",
"70 0 LINE"
);
}
);
width = 332;
},
{
anchors = (
{
name = bottom;
position = "{88, 0}";
},
{
name = bottomleft;
position = "{16, 0}";
},
{
name = center;
position = "{16, 296}";
},
{
name = top;
position = "{88, 528}";
},
{
name = topleft;
position = "{88, 528}";
}
);
background = {
anchors = (
{
name = bottom;
position = "{88, 0}";
},
{
name = bottomleft;
position = "{43, 0}";
},
{
name = center;
position = "{-57, 300}";
}
);
};
layerId = "BD31AAF9-E65B-4A30-ACC0-7018B0C27C60";
name = "Light Condensed";
paths = (
{
closed = 1;
nodes = (
"101 0 LINE",
"101 584 LINE",
"75 584 LINE",
"75 0 LINE"
);
}
);
width = 176;
},
{
anchors = (
{
name = bottom;
position = "{107, 0}";
},
{
name = bottomleft;
position = "{0, 0}";
},
{
name = center;
position = "{0, 300}";
},
{
name = top;
position = "{107, 536}";
},
{
name = topleft;
position = "{107, 536}";
}
);
guideLines = (
{
angle = 90;
position = "{62, 425}";
}
);
layerId = "E193C3F6-581C-4255-BA06-39B2C55FEA85";
name = Condensed;
paths = (
{
closed = 1;
nodes = (
"149 0 LINE",
"149 592 LINE",
"65 592 LINE",
"65 0 LINE"
);
}
);
width = 214;
},
{
anchors = (
{
name = bottom;
position = "{128, 0}";
},
{
name = bottomleft;
position = "{-47, 0}";
},
{
name = center;
position = "{-2, 303}";
},
{
name = top;
position = "{128, 546}";
},
{
name = topleft;
position = "{128, 546}";
}
);
layerId = "4D9C3FAB-40EB-4CCF-A752-6D6FE9920038";
name = "SemiBold Condensed";
paths = (
{
closed = 1;
nodes = (
"197 0 LINE",
"197 602 LINE",
"60 602 LINE",
"60 0 LINE"
);
}
);
width = 257;
},
{
anchors = (
{
name = bottom;
position = "{140, 0}";
},
{
name = bottomleft;
position = "{6, 0}";
},
{
name = center;
position = "{0, 306}";
},
{
name = top;
position = "{140, 553}";
},
{
name = topleft;
position = "{140, 553}";
}
);
layerId = "AD6F6DAA-2D58-4E1D-98AF-ACAAF76D7B9E";
name = "Bold Condensed";
paths = (
{
closed = 1;
nodes = (
"225 0 LINE",
"225 609 LINE",
"55 609 LINE",
"55 0 LINE"
);
}
);
width = 280;
}
);
unicode = 05D5;
},
{
glyphname = "zayin-hb";
lastChange = "2015-12-03 04:57:08 +0000";
layers = (
{
anchors = (
{
name = bottom;
position = "{147, 0}";
},
{
name = bottomleft;
position = "{0, 0}";
},
{
name = center;
position = "{57, 296}";
},
{
name = top;
position = "{138, 528}";
},
{
name = topleft;
position = "{31, 528}";
}
);
layerId = "1F954AD7-537E-453D-9D07-161C7E95D0AA";
name = Light;
paths = (
{
closed = 1;
nodes = (
"160 0 LINE",
"160 411 LINE SMOOTH",
"160 495 OFFCURVE",
"216 543 OFFCURVE",
"246 560 CURVE",
"246 584 LINE",
"30 584 LINE",
"30 557 LINE",
"201 557 LINE",
"201 555 LINE",
"149 511 OFFCURVE",
"134 467 OFFCURVE",
"134 400 CURVE SMOOTH",
"134 0 LINE"
);
}
);
width = 276;
},
{
anchors = (
{
name = bottom;
position = "{144, 0}";
},
{
name = bottomleft;
position = "{-10, 0}";
},
{
name = center;
position = "{-10, 300}";
},
{
name = top;
position = "{150, 536}";
},
{
name = topleft;
position = "{25, 536}";
}
);
background = {
anchors = (
{
name = bottom;
position = "{163, 0}";
},
{
name = center;
position = "{11, 313}";
},
{
name = topleft;
position = "{54, 630}";
}
);
paths = (
{
closed = 1;
nodes = (
"203 0 LINE",
"203 343 LINE SMOOTH",
"203 494 OFFCURVE",
"263 529 OFFCURVE",
"275 536 CURVE",
"275 606 LINE",
"24 606 LINE",
"24 536 LINE",
"205 536 LINE",
"205 533 LINE",
"189 519 OFFCURVE",
"123 461 OFFCURVE",
"123 342 CURVE SMOOTH",
"123 0 LINE"
);
}
);
};
layerId = "0C04772A-F31D-4E86-90EF-3402D1EA39CA";
name = Regular;
paths = (
{
closed = 1;
nodes = (
"189 0 LINE",
"189 360 LINE SMOOTH",
"189 465 OFFCURVE",
"256 503 OFFCURVE",
"275 516 CURVE",
"275 592 LINE",
"25 592 LINE",
"25 509 LINE",
"175 509 LINE",
"175 506 LINE",
"147 488 OFFCURVE",
"99 445 OFFCURVE",
"99 349 CURVE SMOOTH",
"99 0 LINE"
);
}
);
width = 300;
},
{
anchors = (
{
name = bottom;
position = "{169, 0}";
},
{
name = bottomleft;
position = "{10, 0}";
},
{
name = center;
position = "{10, 303}";
},
{
name = top;
position = "{175, 546}";
},
{
name = topleft;
position = "{21, 546}";
}
);
layerId = "206B8059-80C9-426C-870D-7DCC5D63B771";
name = SemiBold;
paths = (
{
closed = 1;
nodes = (
"244 0 LINE",
"244 348 LINE SMOOTH",
"244 445 OFFCURVE",
"298 478 OFFCURVE",
"330 504 CURVE",
"330 602 LINE",
"20 602 LINE",
"20 476 LINE",
"170 476 LINE",
"170 473 LINE",
"119 434 OFFCURVE",
"94 379 OFFCURVE",
"94 307 CURVE SMOOTH",
"94 0 LINE"
);
}
);
width = 350;
},
{
anchors = (
{
name = bottom;
position = "{180, 0}";
},
{
name = bottomleft;
position = "{-5, 0}";
},
{
name = center;
position = "{-5, 306}";
},
{
name = top;
position = "{186, 553}";
},
{
name = topleft;
position = "{10, 553}";
}
);
layerId = "3FB868F8-5CDC-4A46-BA32-95627737ABE0";
name = Bold;
paths = (
{
closed = 1;
nodes = (
"276 0 LINE",
"276 293 LINE SMOOTH",
"276 418 OFFCURVE",
"332 467 OFFCURVE",
"362 489 CURVE",
"362 609 LINE",
"10 609 LINE",
"10 451 LINE",
"160 451 LINE",
"160 447 LINE",
"109 404 OFFCURVE",
"84 347 OFFCURVE",
"84 274 CURVE SMOOTH",
"84 0 LINE"
);
}
);
width = 372;
},
{
anchors = (
{
name = bottom;
position = "{82, 0}";
},
{
name = bottomleft;
position = "{14, 0}";
},
{
name = center;
position = "{33, 296}";
},
{
name = top;
position = "{98, 528}";
},
{
name = topleft;
position = "{35, 528}";
}
);
layerId = "BD31AAF9-E65B-4A30-ACC0-7018B0C27C60";
name = "Light Condensed";
paths = (
{
closed = 1;
nodes = (
"95 0 LINE",
"95 409 LINE SMOOTH",
"95 493 OFFCURVE",
"131 543 OFFCURVE",
"161 560 CURVE",
"161 584 LINE",
"35 584 LINE",
"35 557 LINE",
"126 557 LINE",
"126 555 LINE",
"74 511 OFFCURVE",
"69 465 OFFCURVE",
"69 398 CURVE SMOOTH",
"69 0 LINE"
);
}
);
width = 171;
},
{
anchors = (
{
name = bottom;
position = "{106, 0}";
},
{
name = bottomleft;
position = "{-48, 0}";
},
{
name = center;
position = "{-4, 300}";
},
{
name = top;
position = "{137, 536}";
},
{
name = topleft;
position = "{40, 536}";
}
);
background = {
anchors = (
{
name = bottom;
position = "{119, 0}";
},
{
name = center;
position = "{-33, 313}";
},
{
name = topleft;
position = "{10, 630}";
}
);
paths = (
{
closed = 1;
nodes = (
"159 0 LINE",
"159 343 LINE SMOOTH",
"159 494 OFFCURVE",
"219 529 OFFCURVE",
"231 536 CURVE",
"231 606 LINE",
"-20 606 LINE",
"-20 536 LINE",
"161 536 LINE",
"161 533 LINE",
"145 519 OFFCURVE",
"79 461 OFFCURVE",
"79 342 CURVE SMOOTH",
"79 0 LINE"
);
}
);
};
layerId = "E193C3F6-581C-4255-BA06-39B2C55FEA85";
name = Condensed;
paths = (
{
closed = 1;
nodes = (
"148 0 LINE",
"148 351 LINE SMOOTH",
"148 454 OFFCURVE",
"193 511 OFFCURVE",
"214 525 CURVE",
"214 592 LINE",
"40 592 LINE",
"40 511 LINE",
"140 511 LINE",
"140 509 LINE",
"113 492 OFFCURVE",
"64 438 OFFCURVE",
"64 340 CURVE SMOOTH",
"64 0 LINE"
);
}
);
width = 224;
},
{
anchors = (
{
name = bottom;
position = "{148, 0}";
},
{
name = bottomleft;
position = "{25, 0}";
},
{
name = center;
position = "{25, 303}";
},
{
name = top;
position = "{154, 546}";
},
{
name = topleft;
position = "{36, 546}";
}
);
layerId = "4D9C3FAB-40EB-4CCF-A752-6D6FE9920038";
name = "SemiBold Condensed";
paths = (
{
closed = 1;
nodes = (
"216 0 LINE",
"216 354 LINE SMOOTH",
"216 451 OFFCURVE",
"240 484 OFFCURVE",
"272 510 CURVE",
"272 602 LINE",
"35 602 LINE",
"35 482 LINE",
"155 482 LINE",
"155 479 LINE",
"104 440 OFFCURVE",
"79 385 OFFCURVE",
"79 313 CURVE SMOOTH",
"79 0 LINE"
);
}
);
width = 282;
},
{
anchors = (
{
name = bottom;
position = "{144, 0}";
},
{
name = bottomleft;
position = "{14, 0}";
},
{
name = center;
position = "{-31, 306}";
},
{
name = top;
position = "{160, 553}";
},
{
name = topleft;
position = "{29, 553}";
}
);
layerId = "AD6F6DAA-2D58-4E1D-98AF-ACAAF76D7B9E";
name = "Bold Condensed";
paths = (
{
closed = 1;
nodes = (
"224 0 LINE",
"224 299 LINE SMOOTH",
"224 389 OFFCURVE",
"231 451 OFFCURVE",
"290 496 CURVE",
"290 609 LINE",
"30 609 LINE",
"30 463 LINE",
"130 463 LINE",
"130 459 LINE",
"80 418 OFFCURVE",
"54 353 OFFCURVE",
"54 280 CURVE SMOOTH",
"54 0 LINE"
);
}
);
width = 300;
}
);
unicode = 05D6;
},
{
glyphname = "het-hb";
lastChange = "2015-12-08 17:47:41 +0000";
layers = (
{
anchors = (
{
name = bottom;
position = "{324, 0}";
},
{
name = bottomleft;
position = "{90, 0}";
},
{
name = top;
position = "{324, 528}";
},
{
name = topleft;
position = "{90, 528}";
}
);
background = {
paths = (
{
closed = 1;
nodes = (
"78 585 LINE",
"78 0 LINE",
"106 0 LINE",
"106 553 LINE",
"369 553 LINE SMOOTH",
"477 553 OFFCURVE",
"531 498 OFFCURVE",
"531 389 CURVE SMOOTH",
"531 0 LINE",
"560 0 LINE",
"560 409 LINE SMOOTH",
"560 534 OFFCURVE",
"506 585 OFFCURVE",
"376 585 CURVE SMOOTH"
);
}
);
};
layerId = "1F954AD7-537E-453D-9D07-161C7E95D0AA";
name = Light;
paths = (
{
closed = 1;
nodes = (
"90 584 LINE",
"90 0 LINE",
"116 0 LINE",
"116 557 LINE",
"393 557 LINE SMOOTH",
"481 557 OFFCURVE",
"532 518 OFFCURVE",
"532 416 CURVE SMOOTH",
"532 0 LINE",
"558 0 LINE",
"558 419 LINE SMOOTH",
"558 531 OFFCURVE",
"499 584 OFFCURVE",
"398 584 CURVE SMOOTH"
);
}
);
width = 643;
},
{
anchors = (
{
name = bottom;
position = "{339, 0}";
},
{
name = bottomleft;
position = "{85, 0}";
},
{
name = top;
position = "{339, 536}";
},
{
name = topleft;
position = "{85, 536}";
}
);
layerId = "0C04772A-F31D-4E86-90EF-3402D1EA39CA";
name = Regular;
paths = (
{
closed = 1;
nodes = (
"85 592 LINE",
"85 0 LINE",
"175 0 LINE",
"175 509 LINE",
"385 509 LINE SMOOTH",
"458 509 OFFCURVE",
"502 478 OFFCURVE",
"502 385 CURVE SMOOTH",
"502 0 LINE",
"592 0 LINE",
"592 403 LINE SMOOTH",
"592 535 OFFCURVE",
"527 592 OFFCURVE",
"391 592 CURVE SMOOTH"
);
}
);
width = 672;
},
{
anchors = (
{
name = bottom;
position = "{364, 0}";
},
{
name = bottomleft;
position = "{10, 0}";
},
{
name = top;
position = "{364, 546}";
},
{
name = topleft;
position = "{80, 546}";
}
);
background = {
paths = (
{
closed = 1;
nodes = (
"231 0 LINE",
"231 528 LINE",
"81 528 LINE",
"81 0 LINE"
);
},
{
closed = 1;
nodes = (
"648 0 LINE",
"648 391 LINE SMOOTH",
"648 533 OFFCURVE",
"572 602 OFFCURVE",
"417 602 CURVE SMOOTH",
"81 602 LINE",
"81 475 LINE",
"411 475 LINE SMOOTH",
"473 475 OFFCURVE",
"498 448 OFFCURVE",
"498 373 CURVE SMOOTH",
"498 0 LINE"
);
}
);
};
layerId = "206B8059-80C9-426C-870D-7DCC5D63B771";
name = SemiBold;
paths = (
{
closed = 1;
nodes = (
"80 602 LINE",
"80 0 LINE",
"230 0 LINE",
"230 476 LINE",
"410 476 LINE SMOOTH",
"472 476 OFFCURVE",
"497 449 OFFCURVE",
"497 374 CURVE SMOOTH",
"497 0 LINE",
"647 0 LINE",
"647 391 LINE SMOOTH",
"647 533 OFFCURVE",
"571 602 OFFCURVE",
"416 602 CURVE SMOOTH"
);
}
);
width = 722;
},
{
anchors = (
{
name = bottom;
position = "{369, 0}";
},
{
name = bottomleft;
position = "{70, 0}";
},
{
name = top;
position = "{369, 553}";
},
{
name = topleft;
position = "{70, 553}";
}
);
layerId = "3FB868F8-5CDC-4A46-BA32-95627737ABE0";
name = Bold;
paths = (
{
closed = 1;
nodes = (
"70 609 LINE",
"70 0 LINE",
"262 0 LINE",
"262 451 LINE",
"413 451 LINE SMOOTH",
"456 451 OFFCURVE",
"482 427 OFFCURVE",
"482 379 CURVE SMOOTH",
"482 0 LINE",
"674 0 LINE",
"674 382 LINE SMOOTH",
"674 533 OFFCURVE",
"589 609 OFFCURVE",
"422 609 CURVE SMOOTH"
);
}
);
width = 739;
},
{
anchors = (
{
name = bottom;
position = "{230, 0}";
},
{
name = bottomleft;
position = "{75, 0}";
},
{
name = top;
position = "{230, 528}";
},
{
name = topleft;
position = "{75, 528}";
}
);
background = {
paths = (
{
closed = 1;
nodes = (
"384 0 LINE",
"384 434 LINE SMOOTH",
"384 546 OFFCURVE",
"340 585 OFFCURVE",
"239 585 CURVE SMOOTH",
"75 585 LINE",
"75 558 LINE",
"234 558 LINE SMOOTH",
"322 558 OFFCURVE",
"358 531 OFFCURVE",
"358 429 CURVE SMOOTH",
"358 0 LINE"
);
},
{
closed = 1;
nodes = (
"101 0 LINE",
"101 575 LINE",
"75 575 LINE",
"75 0 LINE"
);
}
);
};
layerId = "BD31AAF9-E65B-4A30-ACC0-7018B0C27C60";
name = "Light Condensed";
paths = (
{
closed = 1;
nodes = (
"75 584 LINE",
"75 0 LINE",
"101 0 LINE",
"101 557 LINE",
"234 557 LINE SMOOTH",
"322 557 OFFCURVE",
"358 531 OFFCURVE",
"358 429 CURVE SMOOTH",
"358 0 LINE",
"384 0 LINE",
"384 434 LINE SMOOTH",
"384 546 OFFCURVE",
"340 584 OFFCURVE",
"239 584 CURVE SMOOTH"
);
}
);
width = 454;
},
{
anchors = (
{
name = bottom;
position = "{236, 0}";
},
{
name = bottomleft;
position = "{65, 0}";
},
{
name = top;
position = "{236, 536}";
},
{
name = topleft;
position = "{65, 536}";
}
);
background = {
paths = (
{
closed = 1;
nodes = (
"396 0 LINE",
"396 404 LINE SMOOTH",
"396 534 OFFCURVE",
"334 592 OFFCURVE",
"198 592 CURVE SMOOTH",
"65 592 LINE",
"65 511 LINE",
"192 511 LINE SMOOTH",
"274 511 OFFCURVE",
"312 472 OFFCURVE",
"312 386 CURVE SMOOTH",
"312 0 LINE"
);
},
{
closed = 1;
nodes = (
"149 0 LINE",
"149 354 LINE",
"65 354 LINE",
"65 0 LINE"
);
}
);
};
layerId = "E193C3F6-581C-4255-BA06-39B2C55FEA85";
name = Condensed;
paths = (
{
closed = 1;
nodes = (
"65 592 LINE",
"65 0 LINE",
"149 0 LINE",
"149 511 LINE",
"240 511 LINE SMOOTH",
"291 511 OFFCURVE",
"322 473 OFFCURVE",
"322 391 CURVE SMOOTH",
"322 0 LINE",
"406 0 LINE",
"406 407 LINE SMOOTH",
"406 525 OFFCURVE",
"357 592 OFFCURVE",
"256 592 CURVE SMOOTH"
);
}
);
width = 466;
},
{
anchors = (
{
name = bottom;
position = "{267, 0}";
},
{
name = bottomleft;
position = "{-10, 0}";
},
{
name = top;
position = "{267, 546}";
},
{
name = topleft;
position = "{60, 546}";
}
);
background = {
paths = (
{
closed = 0;
nodes = (
"473 0 LINE",
"473 407 LINE SMOOTH",
"473 536 OFFCURVE",
"416 602 OFFCURVE",
"310 602 CURVE SMOOTH",
"60 602 LINE",
"60 482 LINE",
"276 482 LINE SMOOTH",
"318 482 OFFCURVE",
"336 453 OFFCURVE",
"336 393 CURVE SMOOTH",
"336 0 LINE"
);
},
{
closed = 1;
nodes = (
"196 0 LINE",
"197 528 LINE",
"60 528 LINE",
"60 0 LINE"
);
}
);
};
layerId = "4D9C3FAB-40EB-4CCF-A752-6D6FE9920038";
name = "SemiBold Condensed";
paths = (
{
closed = 1;
nodes = (
"60 602 LINE",
"60 0 LINE",
"196 0 LINE",
"197 482 LINE",
"276 482 LINE SMOOTH",
"318 482 OFFCURVE",
"336 453 OFFCURVE",
"336 393 CURVE SMOOTH",
"336 0 LINE",
"473 0 LINE",
"473 407 LINE SMOOTH",
"473 536 OFFCURVE",
"416 602 OFFCURVE",
"310 602 CURVE SMOOTH"
);
}
);
width = 528;
},
{
anchors = (
{
name = bottom;
position = "{281, 0}";
},
{
name = bottomleft;
position = "{55, 0}";
},
{
name = top;
position = "{281, 553}";
},
{
name = topleft;
position = "{55, 553}";
}
);
layerId = "AD6F6DAA-2D58-4E1D-98AF-ACAAF76D7B9E";
name = "Bold Condensed";
paths = (
{
closed = 1;
nodes = (
"55 609 LINE",
"55 0 LINE",
"225 0 LINE",
"225 463 LINE",
"284 463 LINE SMOOTH",
"320 463 OFFCURVE",
"337 440 OFFCURVE",
"337 395 CURVE SMOOTH",
"337 0 LINE",
"507 0 LINE",
"507 409 LINE SMOOTH",
"507 544 OFFCURVE",
"438 609 OFFCURVE",
"328 609 CURVE SMOOTH"
);
}
);
width = 557;
}
);
unicode = 05D7;
},
{
glyphname = "tet-hb";
lastChange = "2015-12-03 05:51:44 +0000";
layers = (
{
anchors = (
{
name = bottom;
position = "{336, 0}";
},
{
name = bottomleft;
position = "{90, 0}";
},
{
name = center;
position = "{336, 296}";
},
{
name = top;
position = "{323, 528}";
},
{
name = topleft;
position = "{80, 528}";
}
);
layerId = "1F954AD7-537E-453D-9D07-161C7E95D0AA";
name = Light;
paths = (
{
closed = 1;
nodes = (
"502 -10 OFFCURVE",
"591 75 OFFCURVE",
"591 331 CURVE SMOOTH",
"591 504 OFFCURVE",
"550 594 OFFCURVE",
"426 594 CURVE SMOOTH",
"383 594 OFFCURVE",
"347 584 OFFCURVE",
"322 576 CURVE",
"322 547 LINE",
"347 557 OFFCURVE",
"380 569 OFFCURVE",
"422 569 CURVE SMOOTH",
"534 569 OFFCURVE",
"565 477 OFFCURVE",
"565 328 CURVE SMOOTH",
"565 148 OFFCURVE",
"520 15 OFFCURVE",
"337 15 CURVE SMOOTH",
"174 15 OFFCURVE",
"106 121 OFFCURVE",
"106 315 CURVE SMOOTH",
"106 584 LINE",
"80 584 LINE",
"80 315 LINE SMOOTH",
"80 90 OFFCURVE",
"159 -10 OFFCURVE",
"337 -10 CURVE SMOOTH"
);
}
);
width = 646;
},
{
anchors = (
{
name = bottom;
position = "{350, 0}";
},
{
name = bottomleft;
position = "{85, 0}";
},
{
name = center;
position = "{347, 300}";
},
{
name = top;
position = "{347, 536}";
},
{
name = topleft;
position = "{75, 536}";
}
);
layerId = "0C04772A-F31D-4E86-90EF-3402D1EA39CA";
name = Regular;
paths = (
{
closed = 1;
nodes = (
"516 -13 OFFCURVE",
"624 98 OFFCURVE",
"624 296 CURVE SMOOTH",
"624 466 OFFCURVE",
"609 602 OFFCURVE",
"444 602 CURVE SMOOTH",
"389 602 OFFCURVE",
"344 584 OFFCURVE",
"319 572 CURVE",
"319 486 LINE",
"353 504 OFFCURVE",
"400 518 OFFCURVE",
"434 518 CURVE SMOOTH",
"532 518 OFFCURVE",
"529 395 OFFCURVE",
"529 296 CURVE SMOOTH",
"529 153 OFFCURVE",
"472 65 OFFCURVE",
"347 65 CURVE SMOOTH",
"221 65 OFFCURVE",
"165 153 OFFCURVE",
"165 296 CURVE SMOOTH",
"165 592 LINE",
"75 592 LINE",
"75 296 LINE SMOOTH",
"75 72 OFFCURVE",
"180 -13 OFFCURVE",
"345 -13 CURVE SMOOTH"
);
}
);
width = 674;
},
{
anchors = (
{
name = bottom;
position = "{372, 0}";
},
{
name = bottomleft;
position = "{20, 0}";
},
{
name = center;
position = "{372, 303}";
},
{
name = top;
position = "{372, 546}";
},
{
name = topleft;
position = "{70, 546}";
}
);
layerId = "206B8059-80C9-426C-870D-7DCC5D63B771";
name = SemiBold;
paths = (
{
closed = 1;
nodes = (
"567 -12 OFFCURVE",
"679 74 OFFCURVE",
"679 328 CURVE SMOOTH",
"679 457 OFFCURVE",
"650 612 OFFCURVE",
"464 612 CURVE SMOOTH",
"402 612 OFFCURVE",
"349 596 OFFCURVE",
"314 585 CURVE",
"314 459 LINE",
"353 475 OFFCURVE",
"391 484 OFFCURVE",
"435 484 CURVE SMOOTH",
"491 484 OFFCURVE",
"524 446 OFFCURVE",
"524 319 CURVE SMOOTH",
"524 180 OFFCURVE",
"491 110 OFFCURVE",
"376 110 CURVE SMOOTH",
"272 110 OFFCURVE",
"220 177 OFFCURVE",
"220 319 CURVE SMOOTH",
"220 602 LINE",
"70 602 LINE",
"70 319 LINE SMOOTH",
"70 98 OFFCURVE",
"171 -12 OFFCURVE",
"375 -12 CURVE SMOOTH"
);
}
);
width = 724;
},
{
anchors = (
{
name = bottom;
position = "{386, 0}";
},
{
name = bottomleft;
position = "{70, 0}";
},
{
name = center;
position = "{383, 306}";
},
{
name = top;
position = "{383, 553}";
},
{
name = topleft;
position = "{60, 553}";
}
);
layerId = "3FB868F8-5CDC-4A46-BA32-95627737ABE0";
name = Bold;
paths = (
{
closed = 1;
nodes = (
"609 -12 OFFCURVE",
"711 99 OFFCURVE",
"711 328 CURVE SMOOTH",
"711 526 OFFCURVE",
"635 619 OFFCURVE",
"464 619 CURVE SMOOTH",
"396 619 OFFCURVE",
"360 604 OFFCURVE",
"339 596 CURVE",
"339 448 LINE",
"359 454 OFFCURVE",
"387 466 OFFCURVE",
"429 466 CURVE SMOOTH",
"478 466 OFFCURVE",
"514 449 OFFCURVE",
"514 319 CURVE SMOOTH",
"514 191 OFFCURVE",
"479 142 OFFCURVE",
"390 142 CURVE SMOOTH",
"296 142 OFFCURVE",
"252 196 OFFCURVE",
"252 319 CURVE SMOOTH",
"252 609 LINE",
"60 609 LINE",
"60 319 LINE SMOOTH",
"60 99 OFFCURVE",
"169 -12 OFFCURVE",
"389 -12 CURVE SMOOTH"
);
}
);
width = 746;
},
{
anchors = (
{
name = bottom;
position = "{219, 0}";
},
{
name = bottomleft;
position = "{60, 0}";
},
{
name = center;
position = "{219, 296}";
},
{
name = top;
position = "{219, 528}";
},
{
name = topleft;
position = "{50, 528}";
}
);
layerId = "BD31AAF9-E65B-4A30-ACC0-7018B0C27C60";
name = "Light Condensed";
paths = (
{
closed = 1;
nodes = (
"338 -12 OFFCURVE",
"387 83 OFFCURVE",
"387 317 CURVE SMOOTH",
"387 515 OFFCURVE",
"352 596 OFFCURVE",
"262 596 CURVE SMOOTH",
"222 596 OFFCURVE",
"193 580 OFFCURVE",
"190 579 CURVE",
"190 550 LINE",
"202 557 OFFCURVE",
"228 571 OFFCURVE",
"259 571 CURVE SMOOTH",
"334 571 OFFCURVE",
"361 492 OFFCURVE",
"361 316 CURVE SMOOTH",
"361 105 OFFCURVE",
"322 13 OFFCURVE",
"223 13 CURVE SMOOTH",
"122 13 OFFCURVE",
"76 110 OFFCURVE",
"76 289 CURVE SMOOTH",
"76 585 LINE",
"50 585 LINE",
"50 289 LINE SMOOTH",
"50 85 OFFCURVE",
"109 -12 OFFCURVE",
"224 -12 CURVE SMOOTH"
);
}
);
width = 437;
},
{
anchors = (
{
name = bottom;
position = "{236, 0}";
},
{
name = bottomleft;
position = "{50, 0}";
},
{
name = center;
position = "{236, 300}";
},
{
name = top;
position = "{236, 536}";
},
{
name = topleft;
position = "{40, 536}";
}
);
layerId = "E193C3F6-581C-4255-BA06-39B2C55FEA85";
name = Condensed;
paths = (
{
closed = 1;
nodes = (
"359 -12 OFFCURVE",
"431 87 OFFCURVE",
"431 319 CURVE SMOOTH",
"431 533 OFFCURVE",
"370 604 OFFCURVE",
"267 604 CURVE SMOOTH",
"234 604 OFFCURVE",
"212 597 OFFCURVE",
"200 592 CURVE",
"200 521 LINE",
"212 529 OFFCURVE",
"242 533 OFFCURVE",
"257 533 CURVE SMOOTH",
"334 533 OFFCURVE",
"348 430 OFFCURVE",
"348 319 CURVE SMOOTH",
"348 159 OFFCURVE",
"319 59 OFFCURVE",
"237 59 CURVE SMOOTH",
"159 59 OFFCURVE",
"123 148 OFFCURVE",
"123 293 CURVE SMOOTH",
"124 592 LINE",
"40 592 LINE",
"40 296 LINE SMOOTH",
"40 173 OFFCURVE",
"70 -12 OFFCURVE",
"237 -12 CURVE SMOOTH"
);
}
);
width = 471;
},
{
anchors = (
{
name = bottom;
position = "{260, 0}";
},
{
name = bottomleft;
position = "{-15, 0}";
},
{
name = center;
position = "{260, 303}";
},
{
name = top;
position = "{260, 546}";
},
{
name = topleft;
position = "{35, 546}";
}
);
layerId = "4D9C3FAB-40EB-4CCF-A752-6D6FE9920038";
name = "SemiBold Condensed";
paths = (
{
closed = 1;
nodes = (
"423 -12 OFFCURVE",
"484 134 OFFCURVE",
"484 339 CURVE SMOOTH",
"484 515 OFFCURVE",
"439 614 OFFCURVE",
"327 614 CURVE SMOOTH",
"299 614 OFFCURVE",
"267 608 OFFCURVE",
"249 602 CURVE",
"249 486 LINE",
"267 493 OFFCURVE",
"284 496 OFFCURVE",
"294 496 CURVE SMOOTH",
"337 496 OFFCURVE",
"347 447 OFFCURVE",
"347 315 CURVE SMOOTH",
"347 184 OFFCURVE",
"337 109 OFFCURVE",
"261 109 CURVE SMOOTH",
"202 109 OFFCURVE",
"172 153 OFFCURVE",
"172 296 CURVE SMOOTH",
"172 602 LINE",
"35 602 LINE",
"35 297 LINE SMOOTH",
"35 128 OFFCURVE",
"105 -12 OFFCURVE",
"262 -12 CURVE SMOOTH"
);
}
);
width = 519;
},
{
anchors = (
{
name = bottom;
position = "{275, 0}";
},
{
name = bottomleft;
position = "{40, 0}";
},
{
name = center;
position = "{271, 306}";
},
{
name = top;
position = "{275, 553}";
},
{
name = topleft;
position = "{30, 553}";
}
);
layerId = "AD6F6DAA-2D58-4E1D-98AF-ACAAF76D7B9E";
name = "Bold Condensed";
paths = (
{
closed = 1;
nodes = (
"458 -12 OFFCURVE",
"519 135 OFFCURVE",
"519 338 CURVE SMOOTH",
"519 502 OFFCURVE",
"479 619 OFFCURVE",
"325 619 CURVE SMOOTH",
"300 619 OFFCURVE",
"279 617 OFFCURVE",
"256 609 CURVE",
"256 463 LINE",
"262 467 OFFCURVE",
"275 468 OFFCURVE",
"284 468 CURVE SMOOTH",
"319 468 OFFCURVE",
"342 437 OFFCURVE",
"342 304 CURVE SMOOTH",
"342 204 OFFCURVE",
"329 137 OFFCURVE",
"276 137 CURVE SMOOTH",
"227 137 OFFCURVE",
"200 192 OFFCURVE",
"200 298 CURVE SMOOTH",
"200 609 LINE",
"30 609 LINE",
"30 300 LINE SMOOTH",
"30 142 OFFCURVE",
"100 -12 OFFCURVE",
"281 -12 CURVE SMOOTH"
);
}
);
width = 549;
}
);
unicode = 05D8;
},
{
glyphname = "yod-hb";
lastChange = "2015-12-03 08:33:31 +0000";
layers = (
{
anchors = (
{
name = bottom;
position = "{93, 0}";
},
{
name = bottomleft;
position = "{8, 0}";
},
{
name = center;
position = "{16, 427}";
},
{
name = top;
position = "{93, 528}";
},
{
name = topleft;
position = "{80, 528}";
}
);
layerId = "1F954AD7-537E-453D-9D07-161C7E95D0AA";
name = Light;
paths = (
{
closed = 1;
nodes = (
"93 240 LINE",
"106 308 LINE",
"106 584 LINE",
"80 584 LINE",
"80 240 LINE"
);
}
);
width = 181;
},
{
anchors = (
{
name = bottom;
position = "{120, 0}";
},
{
name = bottomleft;
position = "{-11, 0}";
},
{
name = center;
position = "{9, 408}";
},
{
name = top;
position = "{120, 536}";
},
{
name = topleft;
position = "{75, 536}";
}
);
layerId = "0C04772A-F31D-4E86-90EF-3402D1EA39CA";
name = Regular;
paths = (
{
closed = 1;
nodes = (
"120 213 LINE",
"165 303 LINE",
"165 592 LINE",
"75 592 LINE",
"75 213 LINE"
);
}
);
width = 235;
},
{
anchors = (
{
name = bottom;
position = "{145, 0}";
},
{
name = bottomleft;
position = "{0, 0}";
},
{
name = center;
position = "{0, 421}";
},
{
name = top;
position = "{145, 546}";
},
{
name = topleft;
position = "{70, 546}";
}
);
layerId = "206B8059-80C9-426C-870D-7DCC5D63B771";
name = SemiBold;
paths = (
{
closed = 1;
nodes = (
"145 213 LINE",
"220 332 LINE",
"220 602 LINE",
"70 602 LINE",
"70 213 LINE"
);
}
);
width = 285;
},
{
anchors = (
{
name = bottom;
position = "{156, 0}";
},
{
name = bottomleft;
position = "{-40, 0}";
},
{
name = center;
position = "{-15, 404}";
},
{
name = top;
position = "{156, 553}";
},
{
name = topleft;
position = "{60, 553}";
}
);
layerId = "3FB868F8-5CDC-4A46-BA32-95627737ABE0";
name = Bold;
paths = (
{
closed = 1;
nodes = (
"156 213 LINE",
"252 346 LINE",
"252 609 LINE",
"60 609 LINE",
"60 213 LINE"
);
}
);
width = 307;
},
{
anchors = (
{
name = bottom;
position = "{78, 0}";
},
{
name = bottomleft;
position = "{-7, 0}";
},
{
name = center;
position = "{11, 427}";
},
{
name = top;
position = "{78, 528}";
},
{
name = topleft;
position = "{65, 528}";
}
);
layerId = "BD31AAF9-E65B-4A30-ACC0-7018B0C27C60";
name = "Light Condensed";
paths = (
{
closed = 1;
nodes = (
"77 240 LINE",
"91 308 LINE",
"91 584 LINE",
"65 584 LINE",
"65 240 LINE"
);
}
);
width = 151;
},
{
anchors = (
{
name = bottom;
position = "{100, 0}";
},
{
name = bottomleft;
position = "{-31, 0}";
},
{
name = center;
position = "{-11, 408}";
},
{
name = top;
position = "{100, 536}";
},
{
name = topleft;
position = "{55, 536}";
}
);
layerId = "E193C3F6-581C-4255-BA06-39B2C55FEA85";
name = Condensed;
paths = (
{
closed = 1;
nodes = (
"100 213 LINE",
"145 303 LINE",
"145 592 LINE",
"55 592 LINE",
"55 213 LINE"
);
}
);
width = 195;
},
{
anchors = (
{
name = bottom;
position = "{125, 0}";
},
{
name = bottomleft;
position = "{-20, 0}";
},
{
name = center;
position = "{-20, 421}";
},
{
name = top;
position = "{119, 546}";
},
{
name = topleft;
position = "{50, 546}";
}
);
layerId = "4D9C3FAB-40EB-4CCF-A752-6D6FE9920038";
name = "SemiBold Condensed";
paths = (
{
closed = 1;
nodes = (
"119 213 LINE",
"187 332 LINE",
"187 602 LINE",
"50 602 LINE",
"50 213 LINE"
);
}
);
width = 232;
},
{
anchors = (
{
name = bottom;
position = "{130, 0}";
},
{
name = bottomleft;
position = "{-33, 0}";
},
{
name = center;
position = "{-26, 404}";
},
{
name = top;
position = "{130, 553}";
},
{
name = topleft;
position = "{44, 553}";
}
);
layerId = "AD6F6DAA-2D58-4E1D-98AF-ACAAF76D7B9E";
name = "Bold Condensed";
paths = (
{
closed = 1;
nodes = (
"130 213 LINE",
"215 340 LINE",
"215 609 LINE",
"45 609 LINE",
"45 213 LINE"
);
}
);
width = 255;
}
);
unicode = 05D9;
},
{
glyphname = "finalkaf-hb";
lastChange = "2015-12-08 17:59:33 +0000";
layers = (
{
anchors = (
{
name = bottom;
position = "{217, 199}";
},
{
name = bottomleft;
position = "{15, 0}";
},
{
name = center;
position = "{217, 296}";
},
{
name = top;
position = "{172, 528}";
},
{
name = topleft;
position = "{15, 528}";
}
);
background = {
paths = (
{
closed = 1;
nodes = (
"445 -240 LINE",
"445 308 LINE SMOOTH",
"445 496 OFFCURVE",
"355 584 OFFCURVE",
"164 584 CURVE SMOOTH",
"49 584 LINE",
"49 555 LINE",
"152 555 LINE SMOOTH",
"331 555 OFFCURVE",
"415 477 OFFCURVE",
"415 308 CURVE SMOOTH",
"415 -240 LINE"
);
}
);
};
layerId = "1F954AD7-537E-453D-9D07-161C7E95D0AA";
name = Light;
paths = (
{
closed = 1;
nodes = (
"445 -240 LINE",
"445 314 LINE SMOOTH",
"445 484 OFFCURVE",
"349 584 OFFCURVE",
"175 584 CURVE SMOOTH",
"15 584 LINE",
"15 557 LINE",
"172 557 LINE SMOOTH",
"331 557 OFFCURVE",
"419 468 OFFCURVE",
"419 314 CURVE SMOOTH",
"419 -240 LINE"
);
}
);
width = 520;
},
{
anchors = (
{
name = bottom;
position = "{198, 240}";
},
{
name = bottomleft;
position = "{25, 0}";
},
{
name = center;
position = "{198, 300}";
},
{
name = top;
position = "{245, 536}";
},
{
name = topleft;
position = "{15, 536}";
}
);
layerId = "0C04772A-F31D-4E86-90EF-3402D1EA39CA";
name = Regular;
paths = (
{
closed = 1;
nodes = (
"475 -240 LINE",
"475 289 LINE SMOOTH",
"475 520 OFFCURVE",
"339 592 OFFCURVE",
"162 592 CURVE SMOOTH",
"15 592 LINE",
"15 509 LINE",
"150 509 LINE SMOOTH",
"276 509 OFFCURVE",
"381 473 OFFCURVE",
"381 289 CURVE SMOOTH",
"381 -240 LINE"
);
}
);
width = 545;
},
{
anchors = (
{
name = bottom;
position = "{193, 240}";
},
{
name = bottomleft;
position = "{-5, 0}";
},
{
name = center;
position = "{193, 303}";
},
{
name = top;
position = "{193, 546}";
},
{
name = topleft;
position = "{9, 546}";
}
);
layerId = "206B8059-80C9-426C-870D-7DCC5D63B771";
name = SemiBold;
paths = (
{
closed = 1;
nodes = (
"530 -240 LINE",
"530 277 LINE SMOOTH",
"530 491 OFFCURVE",
"413 602 OFFCURVE",
"187 602 CURVE SMOOTH",
"10 602 LINE",
"10 475 LINE",
"175 475 LINE SMOOTH",
"319 475 OFFCURVE",
"376 420 OFFCURVE",
"376 277 CURVE SMOOTH",
"376 -240 LINE"
);
}
);
width = 595;
},
{
anchors = (
{
name = bottom;
position = "{169, 241}";
},
{
name = bottomleft;
position = "{15, 0}";
},
{
name = center;
position = "{183, 306}";
},
{
name = top;
position = "{279, 553}";
},
{
name = topleft;
position = "{5, 553}";
}
);
layerId = "3FB868F8-5CDC-4A46-BA32-95627737ABE0";
name = Bold;
paths = (
{
closed = 1;
nodes = (
"552 -240 LINE",
"552 297 LINE SMOOTH",
"552 490 OFFCURVE",
"423 609 OFFCURVE",
"218 609 CURVE SMOOTH",
"5 609 LINE",
"5 451 LINE",
"210 451 LINE SMOOTH",
"310 451 OFFCURVE",
"360 398 OFFCURVE",
"360 297 CURVE SMOOTH",
"360 -240 LINE"
);
}
);
width = 607;
},
{
anchors = (
{
name = bottom;
position = "{137, 199}";
},
{
name = bottomleft;
position = "{15, 0}";
},
{
name = center;
position = "{137, 296}";
},
{
name = top;
position = "{137, 528}";
},
{
name = topleft;
position = "{15, 528}";
}
);
background = {
paths = (
{
closed = 1;
nodes = (
"95 584 LINE SMOOTH",
"223 584 OFFCURVE",
"285 533 OFFCURVE",
"285 389 CURVE SMOOTH",
"285 -240 LINE",
"259 -240 LINE",
"259 390 LINE SMOOTH",
"259 515 OFFCURVE",
"206 559 OFFCURVE",
"95 559 CURVE SMOOTH",
"15 559 LINE",
"15 584 LINE"
);
}
);
};
layerId = "BD31AAF9-E65B-4A30-ACC0-7018B0C27C60";
name = "Light Condensed";
paths = (
{
closed = 1;
nodes = (
"285 -240 LINE",
"285 389 LINE SMOOTH",
"285 533 OFFCURVE",
"223 584 OFFCURVE",
"95 584 CURVE SMOOTH",
"15 584 LINE",
"15 559 LINE",
"95 559 LINE SMOOTH",
"206 559 OFFCURVE",
"259 515 OFFCURVE",
"259 390 CURVE SMOOTH",
"259 -240 LINE"
);
}
);
width = 355;
},
{
anchors = (
{
name = bottom;
position = "{130, 240}";
},
{
name = bottomleft;
position = "{29, 0}";
},
{
name = center;
position = "{130, 300}";
},
{
name = top;
position = "{174, 536}";
},
{
name = topleft;
position = "{19, 536}";
}
);
layerId = "E193C3F6-581C-4255-BA06-39B2C55FEA85";
name = Condensed;
paths = (
{
closed = 1;
nodes = (
"327 -240 LINE",
"327 297 LINE SMOOTH",
"327 491 OFFCURVE",
"255 592 OFFCURVE",
"134 592 CURVE SMOOTH",
"20 592 LINE",
"20 511 LINE",
"126 511 LINE SMOOTH",
"197 511 OFFCURVE",
"239 443 OFFCURVE",
"239 297 CURVE SMOOTH",
"239 -240 LINE"
);
}
);
width = 367;
},
{
anchors = (
{
name = bottom;
position = "{83, 240}";
},
{
name = bottomleft;
position = "{1, 0}";
},
{
name = center;
position = "{127, 303}";
},
{
name = top;
position = "{150, 546}";
},
{
name = topleft;
position = "{15, 546}";
}
);
layerId = "4D9C3FAB-40EB-4CCF-A752-6D6FE9920038";
name = "SemiBold Condensed";
paths = (
{
closed = 1;
nodes = (
"376 -240 LINE",
"376 303 LINE SMOOTH",
"376 497 OFFCURVE",
"294 602 OFFCURVE",
"158 602 CURVE SMOOTH",
"15 602 LINE",
"15 482 LINE",
"157 482 LINE SMOOTH",
"215 482 OFFCURVE",
"239 426 OFFCURVE",
"239 302 CURVE SMOOTH",
"239 -240 LINE"
);
}
);
width = 411;
},
{
anchors = (
{
name = bottom;
position = "{35, 241}";
},
{
name = bottomleft;
position = "{21, 0}";
},
{
name = center;
position = "{118, 306}";
},
{
name = top;
position = "{203, 553}";
},
{
name = topleft;
position = "{11, 553}";
}
);
layerId = "AD6F6DAA-2D58-4E1D-98AF-ACAAF76D7B9E";
name = "Bold Condensed";
paths = (
{
closed = 1;
nodes = (
"395 -240 LINE",
"395 305 LINE SMOOTH",
"395 499 OFFCURVE",
"297 609 OFFCURVE",
"152 609 CURVE SMOOTH",
"10 609 LINE",
"10 463 LINE",
"149 463 LINE SMOOTH",
"198 463 OFFCURVE",
"225 423 OFFCURVE",
"225 304 CURVE SMOOTH",
"225 -240 LINE"
);
}
);
width = 425;
}
);
unicode = 05DA;
},
{
glyphname = "kaf-hb";
lastChange = "2015-12-03 08:34:30 +0000";
layers = (
{
anchors = (
{
name = bottom;
position = "{179, 0}";
},
{
name = bottomleft;
position = "{45, 0}";
},
{
name = center;
position = "{237, 296}";
},
{
name = top;
position = "{195, 528}";
},
{
name = topleft;
position = "{35, 528}";
}
);
layerId = "1F954AD7-537E-453D-9D07-161C7E95D0AA";
name = Light;
paths = (
{
closed = 1;
nodes = (
"195 0 LINE SMOOTH",
"369 0 OFFCURVE",
"466 110 OFFCURVE",
"466 292 CURVE SMOOTH",
"466 474 OFFCURVE",
"369 584 OFFCURVE",
"195 584 CURVE SMOOTH",
"35 584 LINE",
"35 557 LINE",
"187 557 LINE SMOOTH",
"341 557 OFFCURVE",
"438 459 OFFCURVE",
"438 292 CURVE SMOOTH",
"438 125 OFFCURVE",
"351 27 OFFCURVE",
"187 27 CURVE SMOOTH",
"35 27 LINE",
"35 0 LINE"
);
}
);
width = 521;
},
{
anchors = (
{
name = bottom;
position = "{231, 0}";
},
{
name = bottomleft;
position = "{40, 0}";
},
{
name = center;
position = "{214, 300}";
},
{
name = top;
position = "{207, 536}";
},
{
name = topleft;
position = "{30, 536}";
}
);
layerId = "0C04772A-F31D-4E86-90EF-3402D1EA39CA";
name = Regular;
paths = (
{
closed = 1;
nodes = (
"222 0 LINE SMOOTH",
"397 0 OFFCURVE",
"490 130 OFFCURVE",
"490 299 CURVE SMOOTH",
"490 472 OFFCURVE",
"392 592 OFFCURVE",
"207 592 CURVE SMOOTH",
"30 592 LINE",
"30 509 LINE",
"197 509 LINE SMOOTH",
"330 509 OFFCURVE",
"397 435 OFFCURVE",
"397 296 CURVE SMOOTH",
"397 171 OFFCURVE",
"343 83 OFFCURVE",
"222 83 CURVE SMOOTH",
"30 83 LINE",
"30 0 LINE"
);
}
);
width = 540;
},
{
anchors = (
{
name = bottom;
position = "{240, 0}";
},
{
name = bottomleft;
position = "{48, 0}";
},
{
name = center;
position = "{209, 303}";
},
{
name = top;
position = "{209, 546}";
},
{
name = topleft;
position = "{25, 546}";
}
);
background = {
anchors = (
{
name = bottom;
position = "{256, 0}";
},
{
name = bottomleft;
position = "{15, 0}";
},
{
name = center;
position = "{239, 300}";
},
{
name = top;
position = "{232, 536}";
},
{
name = topleft;
position = "{55, 536}";
}
);
};
layerId = "206B8059-80C9-426C-870D-7DCC5D63B771";
name = SemiBold;
paths = (
{
closed = 1;
nodes = (
"232 0 LINE SMOOTH",
"428 0 OFFCURVE",
"545 104 OFFCURVE",
"545 299 CURVE SMOOTH",
"545 486 OFFCURVE",
"425 602 OFFCURVE",
"232 602 CURVE SMOOTH",
"25 602 LINE",
"25 476 LINE",
"222 476 LINE SMOOTH",
"326 476 OFFCURVE",
"392 418 OFFCURVE",
"392 296 CURVE SMOOTH",
"392 171 OFFCURVE",
"326 126 OFFCURVE",
"222 126 CURVE SMOOTH",
"25 126 LINE",
"25 0 LINE"
);
}
);
width = 590;
},
{
anchors = (
{
name = bottom;
position = "{214, 0}";
},
{
name = bottomleft;
position = "{15, 0}";
},
{
name = center;
position = "{205, 306}";
},
{
name = top;
position = "{215, 553}";
},
{
name = topleft;
position = "{15, 553}";
}
);
layerId = "3FB868F8-5CDC-4A46-BA32-95627737ABE0";
name = Bold;
paths = (
{
closed = 1;
nodes = (
"228 0 LINE SMOOTH",
"440 0 OFFCURVE",
"562 110 OFFCURVE",
"562 297 CURVE SMOOTH",
"562 490 OFFCURVE",
"433 609 OFFCURVE",
"228 609 CURVE SMOOTH",
"15 609 LINE",
"15 451 LINE",
"218 451 LINE SMOOTH",
"316 451 OFFCURVE",
"367 398 OFFCURVE",
"367 297 CURVE SMOOTH",
"367 201 OFFCURVE",
"321 158 OFFCURVE",
"218 158 CURVE SMOOTH",
"15 158 LINE",
"15 0 LINE"
);
}
);
width = 597;
},
{
anchors = (
{
name = bottom;
position = "{175, 0}";
},
{
name = bottomleft;
position = "{44, 0}";
},
{
name = center;
position = "{160, 296}";
},
{
name = top;
position = "{137, 528}";
},
{
name = topleft;
position = "{34, 528}";
}
);
layerId = "BD31AAF9-E65B-4A30-ACC0-7018B0C27C60";
name = "Light Condensed";
paths = (
{
closed = 1;
nodes = (
"144 0 LINE SMOOTH",
"255 0 OFFCURVE",
"310 90 OFFCURVE",
"310 293 CURVE SMOOTH",
"310 476 OFFCURVE",
"265 584 OFFCURVE",
"142 584 CURVE SMOOTH",
"35 584 LINE",
"35 557 LINE",
"142 557 LINE SMOOTH",
"246 557 OFFCURVE",
"284 461 OFFCURVE",
"284 293 CURVE SMOOTH",
"284 110 OFFCURVE",
"239 27 OFFCURVE",
"143 27 CURVE SMOOTH",
"35 27 LINE",
"35 0 LINE"
);
}
);
width = 365;
},
{
anchors = (
{
name = bottom;
position = "{167, 0}";
},
{
name = bottomleft;
position = "{30, 0}";
},
{
name = center;
position = "{130, 300}";
},
{
name = top;
position = "{139, 536}";
},
{
name = topleft;
position = "{20, 536}";
}
);
layerId = "E193C3F6-581C-4255-BA06-39B2C55FEA85";
name = Condensed;
paths = (
{
closed = 1;
nodes = (
"134 0 LINE SMOOTH",
"267 0 OFFCURVE",
"327 119 OFFCURVE",
"327 297 CURVE SMOOTH",
"327 491 OFFCURVE",
"255 592 OFFCURVE",
"134 592 CURVE SMOOTH",
"20 592 LINE",
"20 511 LINE",
"126 511 LINE SMOOTH",
"197 511 OFFCURVE",
"240 443 OFFCURVE",
"240 297 CURVE SMOOTH",
"240 149 OFFCURVE",
"195 81 OFFCURVE",
"124 81 CURVE SMOOTH",
"20 81 LINE",
"20 0 LINE"
);
}
);
width = 367;
},
{
anchors = (
{
name = bottom;
position = "{223, 0}";
},
{
name = bottomleft;
position = "{38, 0}";
},
{
name = center;
position = "{127, 303}";
},
{
name = top;
position = "{127, 546}";
},
{
name = topleft;
position = "{15, 546}";
}
);
layerId = "4D9C3FAB-40EB-4CCF-A752-6D6FE9920038";
name = "SemiBold Condensed";
paths = (
{
closed = 1;
nodes = (
"158 0 LINE SMOOTH",
"317 0 OFFCURVE",
"381 137 OFFCURVE",
"381 303 CURVE SMOOTH",
"381 497 OFFCURVE",
"294 602 OFFCURVE",
"158 602 CURVE SMOOTH",
"15 602 LINE",
"15 482 LINE",
"157 482 LINE SMOOTH",
"215 482 OFFCURVE",
"239 426 OFFCURVE",
"239 302 CURVE SMOOTH",
"239 176 OFFCURVE",
"214 120 OFFCURVE",
"157 120 CURVE SMOOTH",
"15 120 LINE",
"15 0 LINE"
);
}
);
width = 416;
},
{
anchors = (
{
name = bottom;
position = "{172, 0}";
},
{
name = bottomleft;
position = "{14, 0}";
},
{
name = center;
position = "{119, 306}";
},
{
name = top;
position = "{183, 553}";
},
{
name = topleft;
position = "{14, 553}";
}
);
layerId = "AD6F6DAA-2D58-4E1D-98AF-ACAAF76D7B9E";
name = "Bold Condensed";
paths = (
{
closed = 1;
nodes = (
"150 0 LINE SMOOTH",
"329 0 OFFCURVE",
"400 131 OFFCURVE",
"400 297 CURVE SMOOTH",
"400 460 OFFCURVE",
"335 609 OFFCURVE",
"149 609 CURVE SMOOTH",
"15 609 LINE",
"15 463 LINE",
"145 463 LINE SMOOTH",
"212 463 OFFCURVE",
"230 413 OFFCURVE",
"230 303 CURVE SMOOTH",
"230 202 OFFCURVE",
"215 146 OFFCURVE",
"147 146 CURVE SMOOTH",
"15 146 LINE",
"15 0 LINE"
);
}
);
width = 430;
}
);
unicode = 05DB;
},
{
glyphname = "lamed-hb";
lastChange = "2015-12-03 09:34:55 +0000";
layers = (
{
anchors = (
{
name = bottom;
position = "{228, 0}";
},
{
name = bottomleft;
position = "{222, 0}";
},
{
name = center;
position = "{137, 296}";
},
{
name = top;
position = "{234, 528}";
},
{
name = topleft;
position = "{-26, 528}";
}
);
layerId = "1F954AD7-537E-453D-9D07-161C7E95D0AA";
name = Light;
paths = (
{
closed = 1;
nodes = (
"36 760 LINE",
"10 760 LINE",
"10 557 LINE",
"405 557 LINE",
"215 0 LINE",
"241 0 LINE",
"431 557 LINE",
"431 584 LINE",
"36 584 LINE"
);
}
);
width = 471;
},
{
anchors = (
{
name = bottom;
position = "{231, 0}";
},
{
name = bottomleft;
position = "{215, 0}";
},
{
name = center;
position = "{155, 300}";
},
{
name = top;
position = "{280, 536}";
},
{
name = topleft;
position = "{-57, 536}";
}
);
background = {
paths = (
{
closed = 1;
nodes = (
"314 0 LINE",
"314 10 LINE SMOOTH",
"314 86 OFFCURVE",
"338 197 OFFCURVE",
"372 288 CURVE SMOOTH",
"465 519 LINE",
"465 592 LINE",
"15 592 LINE",
"15 509 LINE",
"371 509 LINE",
"302 342 LINE SMOOTH",
"295 324 OFFCURVE",
"224 148 OFFCURVE",
"224 10 CURVE SMOOTH",
"224 0 LINE"
);
},
{
closed = 1;
nodes = (
"105 546 LINE",
"105 760 LINE",
"15 760 LINE",
"15 546 LINE"
);
}
);
};
layerId = "0C04772A-F31D-4E86-90EF-3402D1EA39CA";
name = Regular;
paths = (
{
closed = 1;
nodes = (
"95 760 LINE",
"5 760 LINE",
"5 509 LINE",
"371 509 LINE",
"183 0 LINE",
"278 0 LINE",
"465 524 LINE",
"465 592 LINE",
"95 592 LINE"
);
}
);
width = 500;
},
{
anchors = (
{
name = bottom;
position = "{263, 0}";
},
{
name = bottomleft;
position = "{246, 0}";
},
{
name = center;
position = "{156, 303}";
},
{
name = top;
position = "{350, 546}";
},
{
name = topleft;
position = "{-44, 546}";
}
);
layerId = "206B8059-80C9-426C-870D-7DCC5D63B771";
name = SemiBold;
paths = (
{
closed = 1;
nodes = (
"165 760 LINE",
"15 760 LINE",
"15 476 LINE",
"372 476 LINE",
"184 0 LINE",
"341 0 LINE",
"535 510 LINE",
"535 602 LINE",
"165 602 LINE"
);
}
);
width = 565;
},
{
anchors = (
{
name = bottom;
position = "{278, 0}";
},
{
name = bottomleft;
position = "{254, 0}";
},
{
name = center;
position = "{150, 306}";
},
{
name = top;
position = "{392, 553}";
},
{
name = topleft;
position = "{-58, 553}";
}
);
layerId = "3FB868F8-5CDC-4A46-BA32-95627737ABE0";
name = Bold;
paths = (
{
closed = 1;
nodes = (
"207 760 LINE",
"15 760 LINE",
"15 451 LINE",
"365 451 LINE",
"177 0 LINE",
"378 0 LINE",
"577 499 LINE",
"577 609 LINE",
"207 609 LINE"
);
}
);
width = 597;
},
{
anchors = (
{
name = bottom;
position = "{128, 0}";
},
{
name = bottomleft;
position = "{106, 0}";
},
{
name = center;
position = "{105, 296}";
},
{
name = top;
position = "{156, 528}";
},
{
name = topleft;
position = "{-26, 528}";
}
);
layerId = "BD31AAF9-E65B-4A30-ACC0-7018B0C27C60";
name = "Light Condensed";
paths = (
{
closed = 1;
nodes = (
"36 760 LINE",
"10 760 LINE",
"10 555 LINE",
"254 555 LINE",
"115 0 LINE",
"141 0 LINE",
"280 555 LINE",
"280 584 LINE",
"36 584 LINE"
);
}
);
width = 310;
},
{
anchors = (
{
name = bottom;
position = "{151, 0}";
},
{
name = bottomleft;
position = "{132, 0}";
},
{
name = center;
position = "{80, 300}";
},
{
name = top;
position = "{213, 536}";
},
{
name = topleft;
position = "{-38, 536}";
}
);
background = {
paths = (
{
closed = 1;
nodes = (
"94 0 LINE",
"94 592 LINE",
"10 592 LINE",
"10 0 LINE"
);
},
{
closed = 1;
nodes = (
"351 407 LINE SMOOTH",
"351 525 OFFCURVE",
"302 592 OFFCURVE",
"201 592 CURVE SMOOTH",
"10 592 LINE",
"10 511 LINE",
"185 511 LINE SMOOTH",
"236 511 OFFCURVE",
"267 473 OFFCURVE",
"267 391 CURVE SMOOTH",
"267 0 LINE",
"351 0 LINE"
);
}
);
};
layerId = "E193C3F6-581C-4255-BA06-39B2C55FEA85";
name = Condensed;
paths = (
{
closed = 1;
nodes = (
"94 760 LINE",
"10 760 LINE",
"10 511 LINE",
"248 511 LINE",
"109 0 LINE",
"193 0 LINE",
"331 525 LINE",
"331 592 LINE",
"94 592 LINE"
);
}
);
width = 351;
},
{
anchors = (
{
name = bottom;
position = "{171, 0}";
},
{
name = bottomleft;
position = "{139, 0}";
},
{
name = center;
position = "{91, 303}";
},
{
name = top;
position = "{272, 546}";
},
{
name = topleft;
position = "{-37, 546}";
}
);
layerId = "4D9C3FAB-40EB-4CCF-A752-6D6FE9920038";
name = "SemiBold Condensed";
paths = (
{
closed = 1;
nodes = (
"152 760 LINE",
"15 760 LINE",
"15 482 LINE",
"244 482 LINE",
"102 0 LINE",
"239 0 LINE",
"392 513 LINE",
"392 602 LINE",
"152 602 LINE"
);
}
);
width = 407;
},
{
anchors = (
{
name = bottom;
position = "{183, 0}";
},
{
name = bottomleft;
position = "{130, 0}";
},
{
name = center;
position = "{93, 306}";
},
{
name = top;
position = "{300, 553}";
},
{
name = topleft;
position = "{-45, 553}";
}
);
layerId = "AD6F6DAA-2D58-4E1D-98AF-ACAAF76D7B9E";
name = "Bold Condensed";
paths = (
{
closed = 1;
nodes = (
"185 760 LINE",
"15 760 LINE",
"15 463 LINE",
"232 463 LINE",
"98 0 LINE",
"268 0 LINE",
"415 505 LINE",
"415 609 LINE",
"185 609 LINE"
);
}
);
width = 430;
}
);
unicode = 05DC;
},
{
glyphname = "finalmem-hb";
lastChange = "2015-12-08 17:48:22 +0000";
layers = (
{
anchors = (
{
name = bottom;
position = "{309, 0}";
},
{
name = bottomleft;
position = "{75, 0}";
},
{
name = top;
position = "{309, 528}";
},
{
name = topleft;
position = "{75, 528}";
}
);
layerId = "1F954AD7-537E-453D-9D07-161C7E95D0AA";
name = Light;
paths = (
{
closed = 1;
nodes = (
"543 0 LINE",
"543 419 LINE SMOOTH",
"543 531 OFFCURVE",
"484 584 OFFCURVE",
"383 584 CURVE SMOOTH",
"75 584 LINE",
"75 0 LINE"
);
},
{
closed = 1;
nodes = (
"101 557 LINE",
"378 557 LINE SMOOTH",
"466 557 OFFCURVE",
"517 518 OFFCURVE",
"517 416 CURVE SMOOTH",
"517 27 LINE",
"101 27 LINE"
);
}
);
width = 628;
},
{
anchors = (
{
name = bottom;
position = "{321, 0}";
},
{
name = bottomleft;
position = "{70, 0}";
},
{
name = top;
position = "{321, 536}";
},
{
name = topleft;
position = "{70, 536}";
}
);
layerId = "0C04772A-F31D-4E86-90EF-3402D1EA39CA";
name = Regular;
paths = (
{
closed = 1;
nodes = (
"572 0 LINE",
"572 403 LINE SMOOTH",
"572 535 OFFCURVE",
"507 592 OFFCURVE",
"371 592 CURVE SMOOTH",
"70 592 LINE",
"70 0 LINE"
);
},
{
closed = 1;
nodes = (
"160 509 LINE",
"365 509 LINE SMOOTH",
"438 509 OFFCURVE",
"482 478 OFFCURVE",
"482 385 CURVE SMOOTH",
"482 83 LINE",
"160 83 LINE"
);
}
);
width = 652;
},
{
anchors = (
{
name = bottom;
position = "{346, 0}";
},
{
name = bottomleft;
position = "{24, 0}";
},
{
name = top;
position = "{346, 546}";
},
{
name = topleft;
position = "{64, 546}";
}
);
layerId = "206B8059-80C9-426C-870D-7DCC5D63B771";
name = SemiBold;
paths = (
{
closed = 1;
nodes = (
"627 0 LINE",
"627 391 LINE SMOOTH",
"627 533 OFFCURVE",
"551 602 OFFCURVE",
"396 602 CURVE SMOOTH",
"65 602 LINE",
"65 0 LINE"
);
},
{
closed = 1;
nodes = (
"215 476 LINE",
"390 476 LINE SMOOTH",
"452 476 OFFCURVE",
"477 448 OFFCURVE",
"477 374 CURVE SMOOTH",
"477 126 LINE",
"215 126 LINE"
);
}
);
width = 702;
},
{
anchors = (
{
name = bottom;
position = "{357, 0}";
},
{
name = bottomleft;
position = "{55, 0}";
},
{
name = top;
position = "{357, 553}";
},
{
name = topleft;
position = "{55, 553}";
}
);
background = {
paths = (
{
closed = 1;
nodes = (
"55 609 LINE",
"55 0 LINE",
"659 0 LINE",
"659 382 LINE SMOOTH",
"659 533 OFFCURVE",
"574 609 OFFCURVE",
"407 609 CURVE SMOOTH"
);
},
{
closed = 1;
nodes = (
"247 451 LINE",
"398 451 LINE SMOOTH",
"441 451 OFFCURVE",
"467 427 OFFCURVE",
"467 379 CURVE SMOOTH",
"467 158 LINE",
"247 158 LINE"
);
}
);
};
layerId = "3FB868F8-5CDC-4A46-BA32-95627737ABE0";
name = Bold;
paths = (
{
closed = 1;
nodes = (
"659 0 LINE",
"659 382 LINE SMOOTH",
"659 533 OFFCURVE",
"574 609 OFFCURVE",
"407 609 CURVE SMOOTH",
"55 609 LINE",
"55 0 LINE"
);
},
{
closed = 1;
nodes = (
"247 451 LINE",
"398 451 LINE SMOOTH",
"441 451 OFFCURVE",
"467 427 OFFCURVE",
"467 379 CURVE SMOOTH",
"467 158 LINE",
"247 158 LINE"
);
}
);
width = 724;
},
{
anchors = (
{
name = bottom;
position = "{215, 0}";
},
{
name = bottomleft;
position = "{60, 0}";
},
{
name = top;
position = "{215, 528}";
},
{
name = topleft;
position = "{60, 528}";
}
);
layerId = "BD31AAF9-E65B-4A30-ACC0-7018B0C27C60";
name = "Light Condensed";
paths = (
{
closed = 1;
nodes = (
"369 0 LINE",
"369 434 LINE SMOOTH",
"369 546 OFFCURVE",
"325 585 OFFCURVE",
"224 585 CURVE SMOOTH",
"60 585 LINE",
"60 0 LINE"
);
},
{
closed = 1;
nodes = (
"86 558 LINE",
"219 558 LINE SMOOTH",
"307 558 OFFCURVE",
"343 531 OFFCURVE",
"343 429 CURVE SMOOTH",
"343 27 LINE",
"86 27 LINE"
);
}
);
width = 439;
},
{
anchors = (
{
name = bottom;
position = "{221, 0}";
},
{
name = bottomleft;
position = "{72, 0}";
},
{
name = top;
position = "{221, 536}";
},
{
name = topleft;
position = "{50, 536}";
}
);
layerId = "E193C3F6-581C-4255-BA06-39B2C55FEA85";
name = Condensed;
paths = (
{
closed = 1;
nodes = (
"391 0 LINE",
"391 407 LINE SMOOTH",
"391 525 OFFCURVE",
"342 592 OFFCURVE",
"241 592 CURVE SMOOTH",
"50 592 LINE",
"50 0 LINE"
);
},
{
closed = 1;
nodes = (
"134 511 LINE",
"225 511 LINE SMOOTH",
"276 511 OFFCURVE",
"307 473 OFFCURVE",
"307 391 CURVE SMOOTH",
"307 81 LINE",
"134 81 LINE"
);
}
);
width = 451;
},
{
anchors = (
{
name = bottom;
position = "{252, 0}";
},
{
name = bottomleft;
position = "{5, 0}";
},
{
name = top;
position = "{252, 546}";
},
{
name = topleft;
position = "{45, 546}";
}
);
layerId = "4D9C3FAB-40EB-4CCF-A752-6D6FE9920038";
name = "SemiBold Condensed";
paths = (
{
closed = 1;
nodes = (
"458 0 LINE",
"458 407 LINE SMOOTH",
"458 536 OFFCURVE",
"401 602 OFFCURVE",
"295 602 CURVE SMOOTH",
"45 602 LINE",
"45 0 LINE"
);
},
{
closed = 1;
nodes = (
"182 482 LINE",
"261 482 LINE SMOOTH",
"303 482 OFFCURVE",
"321 453 OFFCURVE",
"321 393 CURVE SMOOTH",
"321 120 LINE",
"181 120 LINE"
);
}
);
width = 513;
},
{
anchors = (
{
name = bottom;
position = "{269, 0}";
},
{
name = bottomleft;
position = "{40, 0}";
},
{
name = top;
position = "{269, 553}";
},
{
name = topleft;
position = "{39, 553}";
}
);
background = {
paths = (
{
closed = 1;
nodes = (
"14 609 LINE",
"14 0 LINE",
"618 0 LINE",
"618 382 LINE SMOOTH",
"618 533 OFFCURVE",
"533 609 OFFCURVE",
"366 609 CURVE SMOOTH"
);
},
{
closed = 1;
nodes = (
"206 451 LINE",
"357 451 LINE SMOOTH",
"400 451 OFFCURVE",
"426 427 OFFCURVE",
"426 379 CURVE SMOOTH",
"426 158 LINE",
"206 158 LINE"
);
}
);
};
layerId = "AD6F6DAA-2D58-4E1D-98AF-ACAAF76D7B9E";
name = "Bold Condensed";
paths = (
{
closed = 1;
nodes = (
"497 0 LINE",
"497 409 LINE SMOOTH",
"497 544 OFFCURVE",
"428 609 OFFCURVE",
"318 609 CURVE SMOOTH",
"40 609 LINE",
"40 0 LINE"
);
},
{
closed = 1;
nodes = (
"210 463 LINE",
"274 463 LINE SMOOTH",
"310 463 OFFCURVE",
"327 440 OFFCURVE",
"327 395 CURVE SMOOTH",
"327 146 LINE",
"210 146 LINE"
);
}
);
width = 547;
}
);
unicode = 05DD;
},
{
glyphname = "mem-hb";
lastChange = "2015-12-08 17:52:12 +0000";
layers = (
{
anchors = (
{
name = bottom;
position = "{332, 0}";
},
{
name = bottomleft;
position = "{68, 0}";
},
{
name = center;
position = "{332, 296}";
},
{
name = top;
position = "{347, 528}";
},
{
name = topleft;
position = "{91, 528}";
}
);
background = {
paths = (
{
closed = 0;
nodes = (
"116 467 LINE",
"93 584 LINE"
);
}
);
};
layerId = "1F954AD7-537E-453D-9D07-161C7E95D0AA";
name = Light;
paths = (
{
closed = 1;
nodes = (
"260 594 OFFCURVE",
"177 556 OFFCURVE",
"144 467 CURVE",
"142 467 LINE",
"119 584 LINE",
"93 584 LINE",
"123 434 LINE",
"55 0 LINE",
"81 0 LINE",
"141 388 LINE SMOOTH",
"153 468 OFFCURVE",
"213 569 OFFCURVE",
"347 569 CURVE SMOOTH",
"452 569 OFFCURVE",
"522 506 OFFCURVE",
"522 388 CURVE SMOOTH",
"522 27 LINE",
"311 27 LINE",
"311 0 LINE",
"548 0 LINE",
"548 388 LINE SMOOTH",
"548 517 OFFCURVE",
"478 594 OFFCURVE",
"350 594 CURVE SMOOTH"
);
}
);
width = 633;
},
{
anchors = (
{
name = bottom;
position = "{325, 0}";
},
{
name = bottomleft;
position = "{95, 0}";
},
{
name = center;
position = "{325, 300}";
},
{
name = top;
position = "{346, 536}";
},
{
name = topleft;
position = "{50, 536}";
}
);
background = {
anchors = (
{
name = bottom;
position = "{327, 0}";
},
{
name = center;
position = "{328, 313}";
},
{
name = topleft;
position = "{74, 630}";
}
);
paths = (
{
closed = 0;
nodes = (
"-551 536 LINE SMOOTH",
"-426 536 OFFCURVE",
"-364 469 OFFCURVE",
"-364 353 CURVE SMOOTH",
"-364 0 LINE",
"-274 0 LINE",
"-274 350 LINE SMOOTH",
"-274 509 OFFCURVE",
"-368 614 OFFCURVE",
"-546 614 CURVE SMOOTH"
);
},
{
closed = 1;
nodes = (
"550 413 LINE SMOOTH",
"550 528 OFFCURVE",
"478 616 OFFCURVE",
"326 616 CURVE SMOOTH",
"182 616 OFFCURVE",
"106 535 OFFCURVE",
"106 411 CURVE SMOOTH",
"106 0 LINE",
"197 0 LINE",
"197 413 LINE SMOOTH",
"197 496 OFFCURVE",
"240 543 OFFCURVE",
"329 543 CURVE SMOOTH",
"421 543 OFFCURVE",
"460 489 OFFCURVE",
"460 413 CURVE SMOOTH",
"460 0 LINE",
"550 0 LINE"
);
},
{
closed = 0;
nodes = (
"114 325 LINE",
"55 606 LINE"
);
}
);
};
layerId = "0C04772A-F31D-4E86-90EF-3402D1EA39CA";
name = Regular;
paths = (
{
closed = 1;
nodes = (
"248 604 OFFCURVE",
"200 558 OFFCURVE",
"165 508 CURVE",
"162 508 LINE",
"145 592 LINE",
"55 592 LINE",
"95 410 LINE",
"50 0 LINE",
"140 0 LINE",
"175 327 LINE SMOOTH",
"188 449 OFFCURVE",
"239 525 OFFCURVE",
"344 525 CURVE SMOOTH",
"434 525 OFFCURVE",
"475 470 OFFCURVE",
"475 387 CURVE SMOOTH",
"475 83 LINE",
"305 83 LINE",
"305 0 LINE",
"565 0 LINE",
"565 401 LINE SMOOTH",
"565 521 OFFCURVE",
"488 604 OFFCURVE",
"350 604 CURVE SMOOTH"
);
}
);
width = 645;
},
{
anchors = (
{
name = bottom;
position = "{334, 0}";
},
{
name = bottomleft;
position = "{120, 0}";
},
{
name = center;
position = "{353, 303}";
},
{
name = top;
position = "{353, 546}";
},
{
name = topleft;
position = "{45, 546}";
}
);
layerId = "206B8059-80C9-426C-870D-7DCC5D63B771";
name = SemiBold;
paths = (
{
closed = 1;
nodes = (
"297 612 OFFCURVE",
"249 546 OFFCURVE",
"219 504 CURVE",
"215 504 LINE",
"197 602 LINE",
"47 602 LINE",
"92 385 LINE",
"45 0 LINE",
"195 0 LINE",
"232 301 LINE SMOOTH",
"247 422 OFFCURVE",
"291 479 OFFCURVE",
"372 479 CURVE SMOOTH",
"439 479 OFFCURVE",
"473 440 OFFCURVE",
"473 363 CURVE SMOOTH",
"473 126 LINE",
"303 126 LINE",
"303 0 LINE",
"623 0 LINE",
"623 377 LINE SMOOTH",
"623 520 OFFCURVE",
"539 612 OFFCURVE",
"408 612 CURVE SMOOTH"
);
}
);
width = 698;
},
{
anchors = (
{
name = bottom;
position = "{370, 0}";
},
{
name = bottomleft;
position = "{131, 0}";
},
{
name = center;
position = "{370, 306}";
},
{
name = top;
position = "{377, 553}";
},
{
name = topleft;
position = "{35, 553}";
}
);
layerId = "3FB868F8-5CDC-4A46-BA32-95627737ABE0";
name = Bold;
paths = (
{
closed = 1;
nodes = (
"312 619 OFFCURVE",
"266 536 OFFCURVE",
"250 511 CURVE",
"246 511 LINE",
"227 609 LINE",
"35 609 LINE",
"84 376 LINE",
"35 0 LINE",
"227 0 LINE",
"266 290 LINE SMOOTH",
"282 410 OFFCURVE",
"324 458 OFFCURVE",
"387 458 CURVE SMOOTH",
"446 458 OFFCURVE",
"475 425 OFFCURVE",
"475 322 CURVE SMOOTH",
"475 158 LINE",
"345 158 LINE",
"345 0 LINE",
"667 0 LINE",
"667 368 LINE SMOOTH",
"667 520 OFFCURVE",
"587 619 OFFCURVE",
"441 619 CURVE SMOOTH"
);
}
);
width = 732;
},
{
anchors = (
{
name = bottom;
position = "{240, 0}";
},
{
name = bottomleft;
position = "{55, 0}";
},
{
name = center;
position = "{238, 296}";
},
{
name = top;
position = "{253, 528}";
},
{
name = topleft;
position = "{73, 528}";
}
);
layerId = "BD31AAF9-E65B-4A30-ACC0-7018B0C27C60";
name = "Light Condensed";
paths = (
{
closed = 1;
nodes = (
"194 596 OFFCURVE",
"148 556 OFFCURVE",
"126 472 CURVE",
"124 472 LINE",
"99 584 LINE",
"73 584 LINE",
"110 435 LINE",
"55 0 LINE",
"81 0 LINE",
"134 418 LINE SMOOTH",
"146 510 OFFCURVE",
"189 569 OFFCURVE",
"255 569 CURVE SMOOTH",
"316 569 OFFCURVE",
"342 511 OFFCURVE",
"342 405 CURVE SMOOTH",
"342 27 LINE",
"211 27 LINE",
"211 0 LINE",
"368 0 LINE",
"368 416 LINE SMOOTH",
"368 536 OFFCURVE",
"332 596 OFFCURVE",
"254 596 CURVE SMOOTH"
);
}
);
width = 438;
},
{
anchors = (
{
name = bottom;
position = "{240, 0}";
},
{
name = bottomleft;
position = "{75, 0}";
},
{
name = center;
position = "{240, 300}";
},
{
name = top;
position = "{261, 536}";
},
{
name = topleft;
position = "{30, 536}";
}
);
layerId = "E193C3F6-581C-4255-BA06-39B2C55FEA85";
name = Condensed;
paths = (
{
closed = 1;
nodes = (
"217 604 OFFCURVE",
"169 570 OFFCURVE",
"148 506 CURVE",
"144 506 LINE",
"129 592 LINE",
"45 592 LINE",
"87 425 LINE",
"50 0 LINE",
"134 0 LINE",
"162 326 LINE SMOOTH",
"174 465 OFFCURVE",
"207 527 OFFCURVE",
"263 527 CURVE SMOOTH",
"316 527 OFFCURVE",
"333 472 OFFCURVE",
"333 386 CURVE SMOOTH",
"333 81 LINE",
"233 81 LINE",
"233 0 LINE",
"417 0 LINE",
"417 400 LINE SMOOTH",
"417 515 OFFCURVE",
"384 604 OFFCURVE",
"281 604 CURVE SMOOTH"
);
}
);
width = 477;
},
{
anchors = (
{
name = bottom;
position = "{253, 0}";
},
{
name = bottomleft;
position = "{87, 0}";
},
{
name = center;
position = "{271, 303}";
},
{
name = top;
position = "{333, 546}";
},
{
name = topleft;
position = "{37, 546}";
}
);
layerId = "4D9C3FAB-40EB-4CCF-A752-6D6FE9920038";
name = "SemiBold Condensed";
paths = (
{
closed = 1;
nodes = (
"257 612 OFFCURVE",
"233 571 OFFCURVE",
"203 516 CURVE",
"197 516 LINE",
"179 602 LINE",
"42 602 LINE",
"86 389 LINE",
"40 0 LINE",
"177 0 LINE",
"213 304 LINE SMOOTH",
"231 458 OFFCURVE",
"246 485 OFFCURVE",
"281 485 CURVE SMOOTH",
"317 485 OFFCURVE",
"328 456 OFFCURVE",
"328 366 CURVE SMOOTH",
"328 120 LINE",
"258 120 LINE",
"258 0 LINE",
"465 0 LINE",
"465 380 LINE SMOOTH",
"465 522 OFFCURVE",
"448 612 OFFCURVE",
"334 612 CURVE SMOOTH"
);
}
);
width = 520;
},
{
anchors = (
{
name = bottom;
position = "{275, 0}";
},
{
name = bottomleft;
position = "{129, 0}";
},
{
name = center;
position = "{298, 306}";
},
{
name = top;
position = "{299, 553}";
},
{
name = topleft;
position = "{33, 553}";
}
);
layerId = "AD6F6DAA-2D58-4E1D-98AF-ACAAF76D7B9E";
name = "Bold Condensed";
paths = (
{
closed = 1;
nodes = (
"288 621 OFFCURVE",
"244 578 OFFCURVE",
"224 535 CURVE",
"220 535 LINE",
"205 609 LINE",
"35 609 LINE",
"83 382 LINE",
"35 0 LINE",
"205 0 LINE",
"253 382 LINE SMOOTH",
"262 453 OFFCURVE",
"285 472 OFFCURVE",
"308 472 CURVE SMOOTH",
"342 472 OFFCURVE",
"349 432 OFFCURVE",
"349 388 CURVE SMOOTH",
"349 146 LINE",
"279 146 LINE",
"279 0 LINE",
"519 0 LINE",
"519 374 LINE SMOOTH",
"519 519 OFFCURVE",
"498 621 OFFCURVE",
"371 621 CURVE SMOOTH"
);
}
);
width = 569;
}
);
unicode = 05DE;
},
{
glyphname = "finalnun-hb";
lastChange = "2015-12-08 17:49:25 +0000";
layers = (
{
anchors = (
{
name = bottomleft;
position = "{25, 0}";
},
{
name = top;
position = "{98, 528}";
},
{
name = topleft;
position = "{25, 528}";
}
);
layerId = "1F954AD7-537E-453D-9D07-161C7E95D0AA";
name = Light;
paths = (
{
closed = 1;
nodes = (
"170 -240 LINE",
"170 484 LINE SMOOTH",
"170 552 OFFCURVE",
"137 584 OFFCURVE",
"80 584 CURVE SMOOTH",
"25 584 LINE",
"25 557 LINE",
"75 557 LINE SMOOTH",
"118 557 OFFCURVE",
"144 536 OFFCURVE",
"144 481 CURVE SMOOTH",
"144 -240 LINE"
);
}
);
width = 255;
},
{
anchors = (
{
name = bottomleft;
position = "{20, 0}";
},
{
name = top;
position = "{117, 536}";
},
{
name = topleft;
position = "{20, 536}";
}
);
layerId = "0C04772A-F31D-4E86-90EF-3402D1EA39CA";
name = Regular;
paths = (
{
closed = 1;
nodes = (
"214 -240 LINE SMOOTH",
"214 456 LINE SMOOTH",
"214 555 OFFCURVE",
"162 592 OFFCURVE",
"92 592 CURVE SMOOTH",
"20 592 LINE",
"20 509 LINE",
"66 509 LINE SMOOTH",
"104 509 OFFCURVE",
"124 492 OFFCURVE",
"124 445 CURVE SMOOTH",
"124 -240 LINE"
);
}
);
width = 294;
},
{
anchors = (
{
name = bottomleft;
position = "{10, 0}";
},
{
name = top;
position = "{142, 546}";
},
{
name = topleft;
position = "{15, 546}";
}
);
background = {
anchors = (
{
name = topleft;
position = "{45, 536}";
}
);
};
layerId = "206B8059-80C9-426C-870D-7DCC5D63B771";
name = SemiBold;
paths = (
{
closed = 1;
nodes = (
"269 -240 LINE",
"269 444 LINE SMOOTH",
"269 545 OFFCURVE",
"214 602 OFFCURVE",
"117 602 CURVE SMOOTH",
"15 602 LINE",
"15 476 LINE",
"73 476 LINE SMOOTH",
"108 476 OFFCURVE",
"119 459 OFFCURVE",
"119 425 CURVE SMOOTH",
"119 -240 LINE"
);
}
);
width = 344;
},
{
anchors = (
{
name = bottomleft;
position = "{15, 0}";
},
{
name = top;
position = "{181, 553}";
},
{
name = topleft;
position = "{5, 553}";
}
);
background = {
anchors = (
{
name = topleft;
position = "{56, 536}";
}
);
};
layerId = "3FB868F8-5CDC-4A46-BA32-95627737ABE0";
name = Bold;
paths = (
{
closed = 1;
nodes = (
"301 -240 LINE",
"301 434 LINE SMOOTH",
"301 539 OFFCURVE",
"245 607 OFFCURVE",
"128 608 CURVE SMOOTH",
"5 609 LINE",
"5 451 LINE",
"75 451 LINE SMOOTH",
"100 451 OFFCURVE",
"109 440 OFFCURVE",
"109 416 CURVE SMOOTH",
"109 -240 LINE"
);
}
);
width = 366;
},
{
anchors = (
{
name = bottomleft;
position = "{34, 0}";
},
{
name = top;
position = "{102, 528}";
},
{
name = topleft;
position = "{34, 528}";
}
);
background = {
paths = (
{
closed = 1;
nodes = (
"103 480 LINE SMOOTH",
"103 538 OFFCURVE",
"90 558 OFFCURVE",
"47 558 CURVE SMOOTH",
"35 558 LINE",
"35 585 LINE",
"52 585 LINE SMOOTH",
"106 585 OFFCURVE",
"129 554 OFFCURVE",
"129 488 CURVE SMOOTH",
"129 -240 LINE",
"103 -240 LINE"
);
}
);
};
layerId = "BD31AAF9-E65B-4A30-ACC0-7018B0C27C60";
name = "Light Condensed";
paths = (
{
closed = 1;
nodes = (
"129 -240 LINE",
"129 487 LINE SMOOTH",
"129 553 OFFCURVE",
"106 584 OFFCURVE",
"52 584 CURVE SMOOTH",
"35 584 LINE",
"35 557 LINE",
"47 557 LINE SMOOTH",
"90 557 OFFCURVE",
"103 537 OFFCURVE",
"103 479 CURVE SMOOTH",
"103 -240 LINE"
);
}
);
width = 199;
},
{
anchors = (
{
name = bottomleft;
position = "{7, 0}";
},
{
name = top;
position = "{84, 536}";
},
{
name = topleft;
position = "{12, 536}";
}
);
background = {
paths = (
{
closed = 1;
nodes = (
"158 0 LINE",
"158 449 LINE SMOOTH",
"158 545 OFFCURVE",
"126 592 OFFCURVE",
"55 592 CURVE SMOOTH",
"10 592 LINE",
"10 511 LINE",
"25 511 LINE SMOOTH",
"64 511 OFFCURVE",
"74 484 OFFCURVE",
"74 430 CURVE SMOOTH",
"74 0 LINE"
);
}
);
};
layerId = "E193C3F6-581C-4255-BA06-39B2C55FEA85";
name = Condensed;
paths = (
{
closed = 1;
nodes = (
"158 -240 LINE",
"158 449 LINE SMOOTH",
"158 545 OFFCURVE",
"126 592 OFFCURVE",
"55 592 CURVE SMOOTH",
"10 592 LINE",
"10 511 LINE",
"25 511 LINE SMOOTH",
"64 511 OFFCURVE",
"74 484 OFFCURVE",
"74 430 CURVE SMOOTH",
"74 -240 LINE"
);
}
);
width = 218;
},
{
anchors = (
{
name = bottomleft;
position = "{-30, 0}";
},
{
name = top;
position = "{102, 546}";
},
{
name = topleft;
position = "{-25, 546}";
}
);
background = {
anchors = (
{
name = topleft;
position = "{5, 536}";
}
);
};
layerId = "4D9C3FAB-40EB-4CCF-A752-6D6FE9920038";
name = "SemiBold Condensed";
paths = (
{
closed = 1;
nodes = (
"221 -240 LINE",
"221 429 LINE SMOOTH",
"221 546 OFFCURVE",
"182 602 OFFCURVE",
"88 602 CURVE SMOOTH",
"10 602 LINE",
"10 482 LINE",
"40 482 LINE SMOOTH",
"72 482 OFFCURVE",
"84 461 OFFCURVE",
"84 418 CURVE SMOOTH",
"84 -240 LINE"
);
}
);
width = 276;
},
{
anchors = (
{
name = bottomleft;
position = "{20, 0}";
},
{
name = top;
position = "{138, 553}";
},
{
name = topleft;
position = "{10, 553}";
}
);
background = {
anchors = (
{
name = topleft;
position = "{12, 536}";
}
);
};
layerId = "AD6F6DAA-2D58-4E1D-98AF-ACAAF76D7B9E";
name = "Bold Condensed";
paths = (
{
closed = 1;
nodes = (
"264 -240 LINE",
"265 417 LINE SMOOTH",
"265 547 OFFCURVE",
"221 609 OFFCURVE",
"112 609 CURVE SMOOTH",
"10 609 LINE",
"10 463 LINE",
"55 463 LINE SMOOTH",
"82 463 OFFCURVE",
"95 445 OFFCURVE",
"95 409 CURVE SMOOTH",
"94 -240 LINE"
);
}
);
width = 315;
}
);
unicode = 05DF;
},
{
glyphname = "nun-hb";
lastChange = "2015-12-08 17:49:59 +0000";
layers = (
{
anchors = (
{
name = bottom;
position = "{160, 0}";
},
{
name = bottomleft;
position = "{19, 0}";
},
{
name = center;
position = "{137, 296}";
},
{
name = top;
position = "{149, 528}";
},
{
name = topleft;
position = "{70, 528}";
}
);
layerId = "1F954AD7-537E-453D-9D07-161C7E95D0AA";
name = Light;
paths = (
{
closed = 1;
nodes = (
"265 0 LINE",
"265 419 LINE SMOOTH",
"265 531 OFFCURVE",
"206 584 OFFCURVE",
"105 584 CURVE SMOOTH",
"70 584 LINE",
"70 557 LINE",
"100 557 LINE SMOOTH",
"188 557 OFFCURVE",
"239 518 OFFCURVE",
"239 416 CURVE SMOOTH",
"239 27 LINE",
"35 27 LINE",
"35 0 LINE"
);
}
);
width = 350;
},
{
anchors = (
{
name = bottom;
position = "{184, 0}";
},
{
name = bottomleft;
position = "{7, 0}";
},
{
name = center;
position = "{124, 300}";
},
{
name = top;
position = "{184, 536}";
},
{
name = topleft;
position = "{63, 536}";
}
);
layerId = "0C04772A-F31D-4E86-90EF-3402D1EA39CA";
name = Regular;
paths = (
{
closed = 1;
nodes = (
"317 0 LINE",
"317 456 LINE SMOOTH",
"317 555 OFFCURVE",
"265 592 OFFCURVE",
"195 592 CURVE SMOOTH",
"63 592 LINE",
"63 509 LINE",
"169 509 LINE SMOOTH",
"207 509 OFFCURVE",
"227 492 OFFCURVE",
"227 445 CURVE SMOOTH",
"227 83 LINE",
"30 83 LINE",
"30 0 LINE"
);
}
);
width = 397;
},
{
anchors = (
{
name = bottom;
position = "{204, 0}";
},
{
name = bottomleft;
position = "{5, 0}";
},
{
name = center;
position = "{119, 303}";
},
{
name = top;
position = "{210, 546}";
},
{
name = topleft;
position = "{58, 546}";
}
);
layerId = "206B8059-80C9-426C-870D-7DCC5D63B771";
name = SemiBold;
paths = (
{
closed = 1;
nodes = (
"362 0 LINE",
"362 444 LINE SMOOTH",
"362 545 OFFCURVE",
"307 602 OFFCURVE",
"210 602 CURVE SMOOTH",
"58 602 LINE",
"58 476 LINE",
"166 476 LINE SMOOTH",
"201 476 OFFCURVE",
"212 459 OFFCURVE",
"212 425 CURVE SMOOTH",
"212 127 LINE",
"25 127 LINE",
"25 0 LINE"
);
}
);
width = 437;
},
{
anchors = (
{
name = bottom;
position = "{205, 0}";
},
{
name = bottomleft;
position = "{-15, 0}";
},
{
name = center;
position = "{109, 306}";
},
{
name = top;
position = "{221, 553}";
},
{
name = topleft;
position = "{48, 553}";
}
);
layerId = "3FB868F8-5CDC-4A46-BA32-95627737ABE0";
name = Bold;
paths = (
{
closed = 1;
nodes = (
"394 0 LINE",
"394 435 LINE SMOOTH",
"394 540 OFFCURVE",
"338 607 OFFCURVE",
"221 608 CURVE SMOOTH",
"48 609 LINE",
"48 451 LINE",
"168 451 LINE SMOOTH",
"193 451 OFFCURVE",
"202 440 OFFCURVE",
"202 416 CURVE SMOOTH",
"202 158 LINE",
"15 158 LINE",
"15 0 LINE"
);
}
);
width = 459;
},
{
anchors = (
{
name = bottom;
position = "{105, 0}";
},
{
name = bottomleft;
position = "{19, 0}";
},
{
name = center;
position = "{87, 296}";
},
{
name = top;
position = "{118, 528}";
},
{
name = topleft;
position = "{60, 528}";
}
);
layerId = "BD31AAF9-E65B-4A30-ACC0-7018B0C27C60";
name = "Light Condensed";
paths = (
{
closed = 1;
nodes = (
"175 0 LINE",
"175 487 LINE SMOOTH",
"175 553 OFFCURVE",
"152 584 OFFCURVE",
"98 584 CURVE SMOOTH",
"61 584 LINE",
"61 557 LINE",
"93 557 LINE SMOOTH",
"136 557 OFFCURVE",
"149 537 OFFCURVE",
"149 479 CURVE",
"149 29 LINE",
"35 29 LINE",
"35 0 LINE"
);
}
);
width = 245;
},
{
anchors = (
{
name = bottom;
position = "{129, 0}";
},
{
name = bottomleft;
position = "{11, 0}";
},
{
name = center;
position = "{87, 300}";
},
{
name = top;
position = "{149, 536}";
},
{
name = topleft;
position = "{70, 536}";
}
);
layerId = "E193C3F6-581C-4255-BA06-39B2C55FEA85";
name = Condensed;
paths = (
{
closed = 1;
nodes = (
"228 0 LINE",
"228 449 LINE SMOOTH",
"228 545 OFFCURVE",
"196 592 OFFCURVE",
"125 592 CURVE SMOOTH",
"70 592 LINE",
"70 511 LINE",
"95 511 LINE SMOOTH",
"134 511 OFFCURVE",
"144 484 OFFCURVE",
"144 430 CURVE SMOOTH",
"144 81 LINE",
"30 81 LINE",
"30 0 LINE"
);
}
);
width = 288;
},
{
anchors = (
{
name = bottom;
position = "{153, 0}";
},
{
name = bottomleft;
position = "{7, 0}";
},
{
name = center;
position = "{85, 303}";
},
{
name = top;
position = "{157, 546}";
},
{
name = topleft;
position = "{70, 546}";
}
);
layerId = "4D9C3FAB-40EB-4CCF-A752-6D6FE9920038";
name = "SemiBold Condensed";
paths = (
{
closed = 1;
nodes = (
"281 0 LINE",
"281 429 LINE SMOOTH",
"281 546 OFFCURVE",
"242 602 OFFCURVE",
"148 602 CURVE SMOOTH",
"70 602 LINE",
"70 482 LINE",
"100 482 LINE SMOOTH",
"132 482 OFFCURVE",
"144 461 OFFCURVE",
"144 418 CURVE SMOOTH",
"144 121 LINE",
"25 121 LINE",
"25 0 LINE"
);
}
);
width = 336;
},
{
anchors = (
{
name = bottom;
position = "{164, 0}";
},
{
name = bottomleft;
position = "{-12, 0}";
},
{
name = center;
position = "{79, 306}";
},
{
name = top;
position = "{180, 553}";
},
{
name = topleft;
position = "{51, 553}";
}
);
layerId = "AD6F6DAA-2D58-4E1D-98AF-ACAAF76D7B9E";
name = "Bold Condensed";
paths = (
{
closed = 1;
nodes = (
"308 0 LINE",
"308 417 LINE SMOOTH",
"306 547 OFFCURVE",
"263 609 OFFCURVE",
"154 609 CURVE SMOOTH",
"52 609 LINE",
"52 463 LINE",
"98 463 LINE SMOOTH",
"125 463 OFFCURVE",
"138 445 OFFCURVE",
"138 409 CURVE SMOOTH",
"138 146 LINE",
"20 146 LINE",
"20 0 LINE"
);
}
);
width = 358;
}
);
unicode = 05E0;
},
